SplineFontDB: 3.0
FontName: Ionicons
FullName: Ionicons
FamilyName: Ionicons
Weight: Medium
ItalicAngle: 0
UnderlinePosition: -51.2
UnderlineWidth: 25.6
Ascent: 448
Descent: 64
LayerCount: 2
Layer: 0 0 "Back"  1
Layer: 1 0 "Fore"  0
XUID: [1021 436 1836716567 14167880]
OS2Version: 0
OS2_WeightWidthSlopeOnly: 0
OS2_UseTypoMetrics: 0
CreationTime: 1457268492
ModificationTime: 1457789055
PfmFamily: 17
TTFWeight: 500
TTFWidth: 5
LineGap: 46
VLineGap: 46
Panose: 2 0 6 3 0 0 0 0 0 0
OS2TypoAscent: 0
OS2TypoAOffset: 1
OS2TypoDescent: 0
OS2TypoDOffset: 1
OS2TypoLinegap: 46
OS2WinAscent: 0
OS2WinAOffset: 1
OS2WinDescent: 0
OS2WinDOffset: 1
HheadAscent: 0
HheadAOffset: 1
HheadDescent: 0
HheadDOffset: 1
OS2Vendor: 'PfEd'
DEI: 91125
Encoding: Original
UnicodeInterp: none
NameList: Adobe Glyph List
DisplaySize: -24
AntiAlias: 1
FitToEm: 1
WinInfo: 43 43 17
BeginChars: 734 733

StartChar: ion-alert-circled
Encoding: 1 61696 0
Width: 448
LayerCount: 2
Fore
SplineSet
445 26 m 2
 448 21 450 13 447 8 c 0
 444 3 439 0 433 0 c 2
 15 0 l 2
 9 0 4 3 1 8 c 0
 -2 13 0 21 3 26 c 2
 210 375 l 2
 213 380 218 384 224 384 c 0
 230 384 235 380 238 375 c 2
 445 26 l 2
256 48 m 1
 256 96 l 1
 192 96 l 1
 192 48 l 1
 256 48 l 1
256 128 m 1
 256 272 l 1
 192 272 l 1
 192 128 l 1
 256 128 l 1
EndSplineSet
EndChar

StartChar: ion-alert
Encoding: 2 61697 1
Width: 128
LayerCount: 2
Fore
SplineSet
128 -32 m 1
 0 -32 l 1
 0 64 l 1
 128 64 l 1
 128 -32 l 1
112 128 m 1
 16 128 l 1
 0 416 l 1
 128 416 l 1
 112 128 l 1
EndSplineSet
EndChar

StartChar: ion-android-add-circle
Encoding: 3 62297 2
Width: 416
LayerCount: 2
Fore
SplineSet
208 400 m 0
 323 400 416 307 416 192 c 0
 416 77 323 -16 208 -16 c 0
 93 -16 0 77 0 192 c 0
 0 307 93 400 208 400 c 0
315 171 m 1
 315 213 l 1
 229 213 l 1
 229 299 l 1
 187 299 l 1
 187 213 l 1
 101 213 l 1
 101 171 l 1
 187 171 l 1
 187 85 l 1
 229 85 l 1
 229 171 l 1
 315 171 l 1
EndSplineSet
EndChar

StartChar: ion-android-add
Encoding: 4 62151 3
Width: 320
LayerCount: 2
Fore
SplineSet
320 171 m 1
 181 171 l 1
 181 32 l 1
 139 32 l 1
 139 171 l 1
 0 171 l 1
 0 213 l 1
 139 213 l 1
 139 352 l 1
 181 352 l 1
 181 213 l 1
 320 213 l 1
 320 171 l 1
EndSplineSet
EndChar

StartChar: ion-android-alarm-clock
Encoding: 5 62298 4
Width: 428
LayerCount: 2
Fore
SplineSet
428 323 m 1
 400 290 l 1
 302 372 l 1
 330 405 l 1
 428 323 l 1
125 373 m 1
 28 290 l 1
 0 323 l 1
 97 406 l 1
 125 373 l 1
225 275 m 1
 225 275 l 1
 225 164 l 1
 310 114 l 1
 294 87 l 1
 193 148 l 1
 193 275 l 1
 225 275 l 1
214 360 m 0
 320 360 407 274 407 169 c 0
 407 64 320 -22 214 -22 c 0
 107 -22 21 64 21 169 c 0
 21 274 107 360 214 360 c 0
214 20 m 0
 296 20 364 86 364 169 c 0
 364 251 296 318 214 318 c 0
 132 318 64 251 64 169 c 0
 64 87 132 20 214 20 c 0
EndSplineSet
EndChar

StartChar: ion-android-alert
Encoding: 6 62299 5
Width: 416
LayerCount: 2
Fore
SplineSet
208 400 m 0
 322 400 416 306 416 192 c 0
 416 78 322 -16 208 -16 c 0
 94 -16 0 78 0 192 c 0
 0 306 94 400 208 400 c 0
232 88 m 1
 232 128 l 1
 184 128 l 1
 184 88 l 1
 232 88 l 1
232 176 m 1
 232 304 l 1
 184 304 l 1
 184 176 l 1
 232 176 l 1
EndSplineSet
EndChar

StartChar: ion-android-apps
Encoding: 7 62300 6
Width: 320
LayerCount: 2
Fore
SplineSet
0 272 m 1
 0 352 l 1
 80 352 l 1
 80 272 l 1
 0 272 l 1
120 32 m 1
 120 112 l 1
 200 112 l 1
 200 32 l 1
 120 32 l 1
0 32 m 1
 0 112 l 1
 80 112 l 1
 80 32 l 1
 0 32 l 1
0 152 m 1
 0 232 l 1
 80 232 l 1
 80 152 l 1
 0 152 l 1
120 152 m 1
 120 232 l 1
 200 232 l 1
 200 152 l 1
 120 152 l 1
240 352 m 1
 320 352 l 1
 320 272 l 1
 240 272 l 1
 240 352 l 1
120 272 m 1
 120 352 l 1
 200 352 l 1
 200 272 l 1
 120 272 l 1
240 152 m 1
 240 232 l 1
 320 232 l 1
 320 152 l 1
 240 152 l 1
240 32 m 1
 240 112 l 1
 320 112 l 1
 320 32 l 1
 240 32 l 1
EndSplineSet
EndChar

StartChar: ion-android-archive
Encoding: 8 62153 7
Width: 416
LayerCount: 2
Fore
SplineSet
406 348 m 2
 413 341 416 331 416 319 c 2
 416 30 l 2
 416 5 395 -16 370 -16 c 2
 46 -16 l 2
 21 -16 0 5 0 30 c 2
 0 319 l 2
 0 331 3 341 10 348 c 2
 43 387 l 2
 49 395 59 400 69 400 c 2
 347 400 l 2
 357 400 367 395 373 387 c 2
 406 348 l 2
208 65 m 1
 335 192 l 1
 254 192 l 1
 254 238 l 1
 162 238 l 1
 162 192 l 1
 81 192 l 1
 208 65 l 1
49 354 m 1
 366 354 l 1
 344 377 l 1
 67 377 l 1
 49 354 l 1
EndSplineSet
EndChar

StartChar: ion-android-arrow-back
Encoding: 9 62154 8
Width: 342
LayerCount: 2
Fore
SplineSet
342 213 m 1
 342 171 l 1
 82 171 l 1
 201 51 l 1
 171 21 l 1
 0 192 l 1
 171 363 l 1
 202 333 l 1
 82 213 l 1
 342 213 l 1
EndSplineSet
EndChar

StartChar: ion-android-arrow-down
Encoding: 10 62301 9
Width: 342
LayerCount: 2
Fore
SplineSet
192 363 m 1
 192 103 l 1
 312 223 l 1
 342 192 l 1
 171 21 l 1
 0 192 l 1
 30 222 l 1
 150 103 l 1
 150 363 l 1
 192 363 l 1
EndSplineSet
EndChar

StartChar: ion-android-arrow-dropdown-circle
Encoding: 11 62302 10
Width: 416
LayerCount: 2
Fore
SplineSet
208 400 m 0
 323 400 416 307 416 192 c 0
 416 77 323 -16 208 -16 c 0
 93 -16 0 77 0 192 c 0
 0 307 93 400 208 400 c 0
208 128 m 1
 304 224 l 1
 112 224 l 1
 208 128 l 1
EndSplineSet
EndChar

StartChar: ion-android-arrow-dropdown
Encoding: 12 62303 11
Width: 256
LayerCount: 2
Fore
SplineSet
0 256 m 1
 256 256 l 1
 128 128 l 1
 0 256 l 1
EndSplineSet
EndChar

StartChar: ion-android-arrow-dropleft-circle
Encoding: 13 62304 12
Width: 416
LayerCount: 2
Fore
SplineSet
416 192 m 0
 416 77 323 -16 208 -16 c 0
 93 -16 0 77 0 192 c 0
 0 307 93 400 208 400 c 0
 323 400 416 307 416 192 c 0
144 192 m 1
 240 96 l 1
 240 288 l 1
 144 192 l 1
EndSplineSet
EndChar

StartChar: ion-android-arrow-dropleft
Encoding: 14 62305 13
Width: 128
LayerCount: 2
Fore
SplineSet
128 320 m 1
 128 64 l 1
 0 192 l 1
 128 320 l 1
EndSplineSet
EndChar

StartChar: ion-android-arrow-dropright-circle
Encoding: 15 62306 14
Width: 416
LayerCount: 2
Fore
SplineSet
208 -16 m 0
 93 -16 0 77 0 192 c 0
 0 307 93 400 208 400 c 0
 323 400 416 307 416 192 c 0
 416 77 323 -16 208 -16 c 0
176 96 m 1
 272 192 l 1
 176 288 l 1
 176 96 l 1
EndSplineSet
EndChar

StartChar: ion-android-arrow-dropright
Encoding: 16 62307 15
Width: 128
LayerCount: 2
Fore
SplineSet
0 320 m 1
 128 192 l 1
 0 64 l 1
 0 320 l 1
EndSplineSet
EndChar

StartChar: ion-android-arrow-dropup-circle
Encoding: 17 62308 16
Width: 416
LayerCount: 2
Fore
SplineSet
416 192 m 0
 416 77 323 -16 208 -16 c 0
 93 -16 0 77 0 192 c 0
 0 307 93 400 208 400 c 0
 323 400 416 307 416 192 c 0
304 160 m 1
 208 256 l 1
 112 160 l 1
 304 160 l 1
EndSplineSet
EndChar

StartChar: ion-android-arrow-dropup
Encoding: 18 62309 17
Width: 256
LayerCount: 2
Fore
SplineSet
0 128 m 1
 128 256 l 1
 256 128 l 1
 0 128 l 1
EndSplineSet
EndChar

StartChar: ion-android-arrow-forward
Encoding: 19 62223 18
Width: 342
LayerCount: 2
Fore
SplineSet
0 171 m 1
 0 213 l 1
 260 213 l 1
 141 333 l 1
 171 363 l 1
 342 192 l 1
 171 21 l 1
 140 51 l 1
 260 171 l 1
 0 171 l 1
EndSplineSet
EndChar

StartChar: ion-android-arrow-up
Encoding: 20 62310 19
Width: 342
LayerCount: 2
Fore
SplineSet
192 21 m 1
 150 21 l 1
 150 281 l 1
 30 162 l 1
 0 192 l 1
 171 363 l 1
 342 192 l 1
 312 161 l 1
 192 281 l 1
 192 21 l 1
EndSplineSet
EndChar

StartChar: ion-android-attach
Encoding: 21 62311 20
Width: 235
LayerCount: 2
Fore
SplineSet
203 320 m 1
 235 320 l 1
 235 85 l 2
 235 20 182 -32 117 -32 c 0
 52 -32 0 20 0 85 c 2
 0 331 l 2
 0 378 38 416 85 416 c 0
 132 416 171 378 171 331 c 2
 171 85 l 2
 171 55 147 32 117 32 c 0
 87 32 64 55 64 85 c 2
 64 288 l 1
 96 288 l 1
 96 85 l 2
 96 73 105 64 117 64 c 0
 129 64 139 73 139 85 c 2
 139 331 l 2
 139 361 115 384 85 384 c 0
 55 384 32 361 32 331 c 2
 32 85 l 2
 32 38 70 0 117 0 c 0
 164 0 203 38 203 85 c 2
 203 320 l 1
EndSplineSet
EndChar

StartChar: ion-android-bar
Encoding: 22 62312 21
Width: 384
LayerCount: 2
Fore
SplineSet
171 171 m 1
 0 341 l 1
 0 384 l 1
 384 384 l 1
 384 341 l 1
 213 171 l 1
 213 40 l 1
 320 40 l 1
 320 0 l 1
 64 0 l 1
 64 40 l 1
 171 40 l 1
 171 171 l 1
96 299 m 1
 288 299 l 1
 331 341 l 1
 53 341 l 1
 96 299 l 1
EndSplineSet
EndChar

StartChar: ion-android-bicycle
Encoding: 23 62313 22
Width: 448
LayerCount: 2
Fore
SplineSet
299 317 m 0
 280 317 265 331 265 350 c 0
 265 369 280 384 299 384 c 0
 318 384 332 369 332 350 c 0
 332 331 318 317 299 317 c 0
355 187 m 0
 406 187 448 144 448 93 c 0
 448 42 406 0 355 0 c 0
 304 0 261 42 261 93 c 0
 261 144 304 187 355 187 c 0
355 28 m 0
 391 28 420 57 420 93 c 0
 420 129 391 159 355 159 c 0
 319 159 289 129 289 93 c 0
 289 57 319 28 355 28 c 0
274 224 m 1
 244 269 l 1
 201 224 l 1
 240 192 l 1
 240 80 l 1
 208 80 l 1
 208 166 l 1
 147 204 l 2
 138 210 128 219 128 231 c 0
 128 239 131 248 137 254 c 2
 209 323 l 2
 215 329 223 332 231 332 c 0
 242 332 253 325 259 316 c 2
 293 256 l 1
 352 256 l 1
 352 224 l 1
 274 224 l 1
93 187 m 0
 144 187 187 144 187 93 c 0
 187 42 144 0 93 0 c 0
 42 0 0 42 0 93 c 0
 0 144 42 187 93 187 c 0
93 28 m 0
 129 28 159 57 159 93 c 0
 159 129 129 159 93 159 c 0
 57 159 28 129 28 93 c 0
 28 57 57 28 93 28 c 0
EndSplineSet
EndChar

StartChar: ion-android-boat
Encoding: 24 62314 23
Width: 448
LayerCount: 2
Fore
SplineSet
52 35 m 1
 1 174 l 2
 -1 180 0 186 2 191 c 0
 4 196 10 199 15 201 c 2
 53 214 l 1
 53 312 l 2
 53 335 73 355 96 355 c 2
 160 355 l 1
 176 408 l 1
 272 408 l 1
 288 355 l 1
 352 355 l 2
 375 355 395 335 395 312 c 2
 395 214 l 1
 433 201 l 2
 438 199 444 196 446 191 c 0
 448 186 449 179 447 174 c 2
 396 35 l 1
 395 35 l 2
 361 35 330 55 309 78 c 1
 288 55 258 35 224 35 c 0
 190 35 160 54 139 77 c 1
 118 54 87 35 53 35 c 2
 52 35 l 1
96 312 m 1
 96 228 l 1
 224 269 l 1
 352 228 l 1
 352 312 l 1
 96 312 l 1
309 40 m 1
 309 40 368 -24 416 -24 c 2
 395 -24 l 2
 365 -24 336 -12 309 2 c 1
 256 -26 192 -26 139 2 c 1
 112 -12 83 -24 53 -24 c 2
 32 -24 l 2
 81 -24 139 40 139 40 c 1
 191 4 257 4 309 40 c 1
EndSplineSet
EndChar

StartChar: ion-android-bookmark
Encoding: 25 62315 24
Width: 288
LayerCount: 2
Fore
SplineSet
248 384 m 2
 270 384 288 366 288 344 c 2
 288 0 l 1
 144 64 l 1
 0 0 l 1
 0 344 l 2
 0 366 18 384 40 384 c 2
 248 384 l 2
EndSplineSet
EndChar

StartChar: ion-android-bulb
Encoding: 26 62316 25
Width: 448
LayerCount: 2
Fore
SplineSet
224 278 m 0
 199 278 174 268 156 250 c 0
 138 232 128 207 128 182 c 0
 128 148 146 116 176 99 c 1
 192 89 l 1
 192 71 l 1
 192 0 l 1
 256 0 l 1
 256 71 l 1
 256 89 l 1
 272 99 l 1
 287 107 299 119 307 133 c 0
 316 148 320 164 320 182 c 0
 320 207 310 232 292 250 c 0
 274 268 249 278 224 278 c 0
245 416 m 1
 245 416 l 1
 245 352 l 1
 203 352 l 1
 203 416 l 1
 245 416 l 1
374 362 m 1
 374 362 l 1
 404 332 l 1
 366 294 l 1
 336 324 l 1
 374 362 l 1
74 362 m 1
 74 362 l 1
 112 324 l 1
 82 294 l 1
 44 332 l 1
 74 362 l 1
224 310 m 1
 224 310 l 1
 294 310 352 252 352 182 c 0
 352 134 326 93 288 71 c 1
 288 -32 l 1
 160 -32 l 1
 160 71 l 1
 122 93 96 135 96 182 c 0
 96 252 154 310 224 310 c 1
448 203 m 1
 448 203 l 1
 448 161 l 1
 384 161 l 1
 384 203 l 1
 448 203 l 1
64 203 m 1
 64 203 l 1
 64 161 l 1
 0 161 l 1
 0 203 l 1
 64 203 l 1
EndSplineSet
EndChar

StartChar: ion-android-bus
Encoding: 27 62317 26
Width: 352
LayerCount: 2
Fore
SplineSet
0 96 m 2
 0 300 l 2
 0 375 82 384 176 384 c 0
 270 384 352 375 352 300 c 2
 352 96 l 2
 352 78 338 72 325 60 c 1
 325 21 l 2
 325 9 316 0 304 0 c 2
 283 0 l 2
 271 0 261 9 261 21 c 2
 261 43 l 1
 91 43 l 1
 91 21 l 2
 91 9 81 0 69 0 c 2
 48 0 l 2
 36 0 27 9 27 21 c 2
 27 60 l 1
 14 72 0 77 0 96 c 2
80 80 m 0
 98 80 112 94 112 112 c 0
 112 130 98 144 80 144 c 0
 62 144 48 130 48 112 c 0
 48 94 62 80 80 80 c 0
272 80 m 0
 290 80 304 94 304 112 c 0
 304 130 290 144 272 144 c 0
 254 144 240 130 240 112 c 0
 240 94 254 80 272 80 c 0
304 203 m 1
 304 309 l 1
 48 309 l 1
 48 203 l 1
 304 203 l 1
EndSplineSet
EndChar

StartChar: ion-android-calendar
Encoding: 28 62161 27
Width: 384
LayerCount: 2
Fore
SplineSet
304 176 m 1
 304 80 l 1
 208 80 l 1
 208 176 l 1
 304 176 l 1
272 384 m 1
 320 384 l 1
 320 352 l 1
 344 352 l 2
 366 352 384 334 384 312 c 2
 384 40 l 2
 384 18 366 0 344 0 c 2
 40 0 l 2
 18 0 0 18 0 40 c 2
 0 312 l 2
 0 334 18 352 40 352 c 2
 64 352 l 1
 64 384 l 1
 112 384 l 1
 112 352 l 1
 272 352 l 1
 272 384 l 1
344 40 m 1
 344 252 l 1
 40 252 l 1
 40 40 l 1
 344 40 l 1
EndSplineSet
EndChar

StartChar: ion-android-call
Encoding: 29 62162 28
Width: 384
LayerCount: 2
Fore
SplineSet
363 117 m 0
 375 117 384 108 384 96 c 2
 384 21 l 2
 384 9 375 0 363 0 c 0
 162 0 0 162 0 363 c 0
 0 375 9 384 21 384 c 2
 96 384 l 2
 108 384 117 375 117 363 c 0
 117 336 121 311 130 286 c 0
 132 279 130 270 125 265 c 2
 78 218 l 1
 109 157 158 108 219 77 c 1
 266 124 l 2
 271 130 280 131 287 129 c 0
 310 122 336 117 363 117 c 0
EndSplineSet
EndChar

StartChar: ion-android-camera
Encoding: 30 62163 29
Width: 448
LayerCount: 2
Fore
SplineSet
161 168 m 0
 161 210 182 231 224 231 c 0
 266 231 287 210 287 168 c 0
 287 126 266 105 224 105 c 0
 182 105 161 126 161 168 c 0
408 352 m 2
 419 352 428 348 436 340 c 0
 444 332 448 323 448 312 c 2
 448 40 l 2
 448 29 444 20 436 12 c 0
 428 4 419 0 408 0 c 2
 40 0 l 2
 29 0 20 4 12 12 c 0
 4 20 0 29 0 40 c 2
 0 312 l 2
 0 323 4 332 12 340 c 0
 20 348 29 352 40 352 c 2
 128 352 l 1
 160 384 l 1
 288 384 l 1
 320 352 l 1
 408 352 l 2
224 56 m 0
 255 56 281 67 303 89 c 0
 325 111 336 137 336 168 c 0
 336 199 325 225 303 247 c 0
 281 269 255 280 224 280 c 0
 193 280 167 269 145 247 c 0
 123 225 112 199 112 168 c 0
 112 137 123 111 145 89 c 0
 167 67 193 56 224 56 c 0
EndSplineSet
EndChar

StartChar: ion-android-cancel
Encoding: 31 62318 30
Width: 416
LayerCount: 2
Fore
SplineSet
208 400 m 0
 323 400 416 307 416 192 c 0
 416 77 323 -16 208 -16 c 0
 93 -16 0 77 0 192 c 0
 0 307 93 400 208 400 c 0
312 117 m 1
 237 192 l 1
 312 267 l 1
 283 296 l 1
 208 221 l 1
 133 296 l 1
 104 267 l 1
 179 192 l 1
 104 117 l 1
 133 88 l 1
 208 163 l 1
 283 88 l 1
 312 117 l 1
EndSplineSet
EndChar

StartChar: ion-android-car
Encoding: 32 62319 31
Width: 384
LayerCount: 2
Fore
SplineSet
339 331 m 2
 384 213 l 1
 384 53 l 2
 384 41 375 32 363 32 c 2
 341 32 l 2
 329 32 320 41 320 53 c 2
 320 64 l 1
 64 64 l 1
 64 53 l 2
 64 41 55 32 43 32 c 2
 21 32 l 2
 9 32 0 41 0 53 c 2
 0 213 l 1
 45 331 l 2
 49 344 61 352 75 352 c 2
 309 352 l 2
 323 352 335 344 339 331 c 2
75 128 m 0
 93 128 107 142 107 160 c 0
 107 178 93 192 75 192 c 0
 57 192 43 178 43 160 c 0
 43 142 57 128 75 128 c 0
309 128 m 0
 327 128 341 142 341 160 c 0
 341 178 327 192 309 192 c 0
 291 192 277 178 277 160 c 0
 277 142 291 128 309 128 c 0
43 235 m 1
 341 235 l 1
 309 320 l 1
 75 320 l 1
 43 235 l 1
EndSplineSet
EndChar

StartChar: ion-android-cart
Encoding: 33 62320 32
Width: 416
LayerCount: 2
Fore
SplineSet
122 70 m 0
 145 70 163 52 163 29 c 0
 163 6 145 -13 122 -13 c 0
 99 -13 80 6 80 29 c 0
 80 52 99 70 122 70 c 0
0 397 m 1
 68 397 l 1
 87 355 l 1
 395 355 l 2
 406 355 416 346 416 335 c 0
 416 331 415 327 414 325 c 2
 339 196 l 2
 332 182 319 174 303 174 c 2
 148 174 l 1
 127 142 l 1
 127 142 125 137 125 136 c 0
 125 133 127 131 130 131 c 2
 368 131 l 1
 368 91 l 1
 125 91 l 2
 99 91 80 105 80 133 c 0
 80 140 82 148 85 153 c 2
 116 204 l 1
 42 355 l 1
 0 355 l 1
 0 397 l 1
326 70 m 0
 349 70 368 52 368 29 c 0
 368 6 349 -13 326 -13 c 0
 303 -13 285 6 285 29 c 0
 285 52 303 70 326 70 c 0
EndSplineSet
EndChar

StartChar: ion-android-chat
Encoding: 34 62164 33
Width: 416
LayerCount: 2
Fore
SplineSet
344 384 m 2
 348 384 351 380 351 376 c 2
 351 162 l 2
 351 158 348 153 344 153 c 2
 157 153 l 1
 67 64 l 1
 67 153 l 1
 10 153 l 2
 6 153 0 158 0 162 c 2
 0 376 l 2
 0 380 6 384 10 384 c 2
 344 384 l 2
408 321 m 2
 412 321 416 316 416 312 c 2
 416 98 l 2
 416 94 412 89 408 89 c 2
 351 89 l 1
 351 0 l 1
 261 89 l 1
 131 89 l 1
 170 128 l 1
 351 128 l 2
 369 128 376 138 376 154 c 2
 376 321 l 1
 408 321 l 2
EndSplineSet
EndChar

StartChar: ion-android-checkbox-blank
Encoding: 35 62321 34
Width: 384
LayerCount: 2
Fore
SplineSet
341 384 m 2
 364 384 384 364 384 341 c 2
 384 43 l 2
 384 20 364 0 341 0 c 2
 43 0 l 2
 20 0 0 20 0 43 c 2
 0 341 l 2
 0 364 20 384 43 384 c 2
 341 384 l 2
EndSplineSet
EndChar

StartChar: ion-android-checkbox-outline-blank
Encoding: 36 62322 35
Width: 384
LayerCount: 2
Fore
SplineSet
341 341 m 1
 43 341 l 1
 43 43 l 1
 341 43 l 1
 341 341 l 1
341 384 m 1
 341 384 l 1
 364 384 384 364 384 341 c 2
 384 43 l 2
 384 20 364 0 341 0 c 2
 43 0 l 2
 20 0 0 20 0 43 c 2
 0 341 l 2
 0 364 20 384 43 384 c 2
 341 384 l 1
EndSplineSet
EndChar

StartChar: ion-android-checkbox-outline
Encoding: 37 62323 36
Width: 384
LayerCount: 2
Fore
SplineSet
105 233 m 1
 171 167 l 1
 354 350 l 1
 384 320 l 1
 171 107 l 1
 75 203 l 1
 105 233 l 1
341 43 m 1
 341 213 l 1
 384 213 l 1
 384 43 l 2
 384 20 364 0 341 0 c 2
 43 0 l 2
 20 0 0 20 0 43 c 2
 0 341 l 2
 0 364 20 384 43 384 c 2
 256 384 l 1
 256 341 l 1
 43 341 l 1
 43 43 l 1
 341 43 l 1
EndSplineSet
EndChar

StartChar: ion-android-checkbox
Encoding: 38 62324 37
Width: 384
LayerCount: 2
Fore
SplineSet
341 384 m 2
 364 384 384 364 384 341 c 2
 384 43 l 2
 384 20 364 0 341 0 c 2
 43 0 l 2
 20 0 0 20 0 43 c 2
 0 341 l 2
 0 364 20 384 43 384 c 2
 341 384 l 2
149 85 m 1
 341 277 l 1
 311 307 l 1
 149 145 l 1
 73 222 l 1
 43 192 l 1
 149 85 l 1
EndSplineSet
EndChar

StartChar: ion-android-checkmark-circle
Encoding: 39 62325 38
Width: 416
LayerCount: 2
Fore
SplineSet
123 232 m 1
 187 168 l 1
 366 346 l 1
 395 317 l 1
 187 109 l 1
 94 202 l 1
 123 232 l 1
374 192 m 1
 416 192 l 1
 416 78 322 -16 208 -16 c 0
 94 -16 0 78 0 192 c 0
 0 306 94 400 208 400 c 0
 236 400 262 394 286 384 c 1
 254 352 l 1
 239 356 224 358 208 358 c 0
 116 358 42 284 42 192 c 0
 42 100 116 26 208 26 c 0
 300 26 374 100 374 192 c 1
EndSplineSet
EndChar

StartChar: ion-android-clipboard
Encoding: 40 62326 39
Width: 384
LayerCount: 2
Fore
SplineSet
341 368 m 2
 364 368 384 348 384 325 c 2
 384 11 l 2
 384 -12 364 -32 341 -32 c 2
 43 -32 l 2
 20 -32 0 -12 0 11 c 2
 0 325 l 2
 0 348 20 368 43 368 c 2
 130 368 l 1
 137 396 162 416 192 416 c 0
 222 416 247 396 254 368 c 1
 341 368 l 2
192 368 m 0
 180 368 171 359 171 347 c 0
 171 335 180 325 192 325 c 0
 204 325 213 335 213 347 c 0
 213 359 204 368 192 368 c 0
344 8 m 1
 344 328 l 1
 304 328 l 1
 304 256 l 1
 80 256 l 1
 80 328 l 1
 40 328 l 1
 40 8 l 1
 344 8 l 1
EndSplineSet
EndChar

StartChar: ion-android-close
Encoding: 41 62167 40
Width: 298
LayerCount: 2
Fore
SplineSet
298 311 m 1
 179 192 l 1
 298 73 l 1
 268 43 l 1
 149 162 l 1
 30 43 l 1
 0 73 l 1
 119 192 l 1
 0 311 l 1
 30 341 l 1
 149 222 l 1
 268 341 l 1
 298 311 l 1
EndSplineSet
EndChar

StartChar: ion-android-cloud-circle
Encoding: 42 62327 41
Width: 416
LayerCount: 2
Fore
SplineSet
208 400 m 0
 322 400 416 306 416 192 c 0
 416 78 322 -16 208 -16 c 0
 94 -16 0 78 0 192 c 0
 0 306 94 400 208 400 c 0
302 109 m 2
 331 109 354 132 354 161 c 0
 354 190 331 213 302 213 c 2
 291 213 l 1
 291 259 254 296 208 296 c 0
 170 296 137 270 128 234 c 1
 125 234 l 2
 91 234 62 205 62 171 c 0
 62 137 91 109 125 109 c 2
 302 109 l 2
EndSplineSet
EndChar

StartChar: ion-android-cloud-done
Encoding: 43 62328 42
Width: 480
LayerCount: 2
Fore
SplineSet
387 231 m 1
 439 228 480 185 480 132 c 0
 480 77 435 32 380 32 c 2
 120 32 l 2
 54 32 0 86 0 152 c 0
 0 214 47 265 107 271 c 1
 132 319 182 352 240 352 c 0
 313 352 373 300 387 231 c 1
197 85 m 1
 338 226 l 1
 308 256 l 1
 197 145 l 1
 153 190 l 1
 123 160 l 1
 197 85 l 1
EndSplineSet
EndChar

StartChar: ion-android-cloud-outline
Encoding: 44 62329 43
Width: 480
LayerCount: 2
Fore
SplineSet
387 231 m 1
 439 228 480 185 480 132 c 0
 480 77 435 32 380 32 c 2
 120 32 l 2
 54 32 0 86 0 152 c 0
 0 214 47 265 107 271 c 1
 132 319 182 352 240 352 c 0
 313 352 373 300 387 231 c 1
380 72 m 2
 413 72 440 99 440 132 c 0
 440 165 413 192 380 192 c 2
 350 192 l 1
 350 202 l 2
 350 263 301 312 240 312 c 0
 189 312 147 278 134 232 c 1
 120 232 l 2
 76 232 40 196 40 152 c 0
 40 108 76 72 120 72 c 2
 380 72 l 2
EndSplineSet
EndChar

StartChar: ion-android-cloud
Encoding: 45 62330 44
Width: 480
LayerCount: 2
Fore
SplineSet
387 231 m 1
 439 228 480 185 480 132 c 0
 480 77 435 32 380 32 c 2
 120 32 l 2
 54 32 0 86 0 152 c 0
 0 214 47 265 107 271 c 1
 132 319 182 352 240 352 c 0
 313 352 373 300 387 231 c 1
EndSplineSet
EndChar

StartChar: ion-android-color-palette
Encoding: 46 62331 45
Width: 384
LayerCount: 2
Fore
SplineSet
192 384 m 0
 298 384 384 307 384 213 c 0
 384 154 336 107 277 107 c 2
 239 107 l 2
 221 107 207 93 207 75 c 0
 207 66 210 58 215 53 c 0
 220 48 224 41 224 32 c 0
 224 14 210 0 192 0 c 0
 86 0 0 86 0 192 c 0
 0 298 86 384 192 384 c 0
75 192 m 0
 93 192 107 206 107 224 c 0
 107 242 93 256 75 256 c 0
 57 256 43 242 43 224 c 0
 43 206 57 192 75 192 c 0
139 277 m 0
 157 277 171 291 171 309 c 0
 171 327 157 341 139 341 c 0
 121 341 107 327 107 309 c 0
 107 291 121 277 139 277 c 0
245 277 m 0
 263 277 277 291 277 309 c 0
 277 327 263 341 245 341 c 0
 227 341 213 327 213 309 c 0
 213 291 227 277 245 277 c 0
309 192 m 0
 327 192 341 206 341 224 c 0
 341 242 327 256 309 256 c 0
 291 256 277 242 277 224 c 0
 277 206 291 192 309 192 c 0
EndSplineSet
EndChar

StartChar: ion-android-compass
Encoding: 47 62332 46
Width: 448
LayerCount: 2
Fore
SplineSet
224 217 m 0
 237 217 249 205 249 192 c 0
 249 179 237 167 224 167 c 0
 211 167 199 179 199 192 c 0
 199 205 211 217 224 217 c 0
224 416 m 0
 347 416 448 315 448 192 c 0
 448 69 347 -32 224 -32 c 0
 101 -32 0 69 0 192 c 0
 0 315 101 416 224 416 c 0
273 143 m 1
 358 326 l 1
 175 241 l 1
 90 58 l 1
 273 143 l 1
EndSplineSet
EndChar

StartChar: ion-android-contact
Encoding: 48 62168 47
Width: 384
LayerCount: 2
Fore
SplineSet
267 110 m 1
 326 92 371 52 384 0 c 1
 0 0 l 1
 13 52 58 92 117 110 c 1
 139 97 165 90 192 90 c 0
 219 90 245 97 267 110 c 1
192 384 m 0
 265 384 324 325 324 252 c 0
 324 179 265 120 192 120 c 0
 119 120 60 179 60 252 c 0
 60 325 119 384 192 384 c 0
192 153 m 0
 234 153 270 179 284 216 c 1
 100 216 l 1
 114 179 150 153 192 153 c 0
EndSplineSet
EndChar

StartChar: ion-android-contacts
Encoding: 49 62169 48
Width: 448
LayerCount: 2
Fore
SplineSet
207 104 m 1
 254 90 283 42 294 0 c 1
 0 0 l 1
 11 42 40 90 87 104 c 1
 105 94 125 88 147 88 c 0
 169 88 189 94 207 104 c 1
147 328 m 0
 205 328 253 280 253 222 c 0
 253 164 205 116 147 116 c 0
 89 116 41 164 41 222 c 0
 41 280 89 328 147 328 c 0
147 141 m 0
 181 141 209 164 221 192 c 1
 73 192 l 1
 85 164 113 141 147 141 c 0
291 64 m 1
 278 84 257 107 231 117 c 1
 242 126 252 140 259 152 c 1
 272 147 286 144 301 144 c 0
 323 144 343 150 361 160 c 1
 408 146 437 106 448 64 c 1
 291 64 l 1
275 248 m 1
 267 285 244 317 212 335 c 1
 231 364 264 384 301 384 c 0
 359 384 407 336 407 278 c 0
 407 220 359 172 301 172 c 0
 290 172 279 174 269 177 c 1
 272 185 275 193 276 202 c 1
 284 199 292 198 301 198 c 0
 335 198 363 220 375 248 c 1
 275 248 l 1
EndSplineSet
EndChar

StartChar: ion-android-contract
Encoding: 50 62333 49
Width: 384
LayerCount: 2
Fore
SplineSet
0 77 m 1
 0 128 l 1
 128 128 l 1
 128 0 l 1
 77 0 l 1
 77 77 l 1
 0 77 l 1
77 307 m 1
 77 384 l 1
 128 384 l 1
 128 256 l 1
 0 256 l 1
 0 307 l 1
 77 307 l 1
256 0 m 1
 256 128 l 1
 384 128 l 1
 384 77 l 1
 307 77 l 1
 307 0 l 1
 256 0 l 1
307 307 m 1
 384 307 l 1
 384 256 l 1
 256 256 l 1
 256 384 l 1
 307 384 l 1
 307 307 l 1
EndSplineSet
EndChar

StartChar: ion-android-create
Encoding: 51 62334 50
Width: 384
LayerCount: 2
Fore
SplineSet
0 80 m 1
 236 316 l 1
 316 236 l 1
 80 0 l 1
 0 0 l 1
 0 80 l 1
378 298 m 2
 338 258 l 1
 258 338 l 1
 298 378 l 2
 307 387 318 387 327 378 c 2
 378 327 l 2
 387 318 387 307 378 298 c 2
EndSplineSet
EndChar

StartChar: ion-android-delete
Encoding: 52 62335 51
Width: 320
LayerCount: 2
Fore
SplineSet
32 43 m 2
 32 288 l 1
 288 288 l 1
 288 43 l 2
 288 20 268 0 245 0 c 2
 75 0 l 2
 52 0 32 20 32 43 c 2
320 352 m 1
 320 320 l 1
 0 320 l 1
 0 352 l 1
 80 352 l 1
 107 384 l 1
 213 384 l 1
 240 352 l 1
 320 352 l 1
EndSplineSet
EndChar

StartChar: ion-android-desktop
Encoding: 53 62336 52
Width: 448
LayerCount: 2
Fore
SplineSet
405 416 m 2
 428 416 448 396 448 373 c 2
 448 91 l 2
 448 68 428 48 405 48 c 2
 267 48 l 1
 309 0 l 1
 309 -32 l 1
 139 -32 l 1
 139 0 l 1
 181 48 l 1
 43 48 l 2
 20 48 0 68 0 91 c 2
 0 373 l 2
 0 396 20 416 43 416 c 2
 405 416 l 2
405 128 m 1
 405 373 l 1
 43 373 l 1
 43 128 l 1
 405 128 l 1
EndSplineSet
EndChar

StartChar: ion-android-document
Encoding: 54 62337 53
Width: 320
LayerCount: 2
Fore
SplineSet
192 400 m 1
 320 272 l 1
 320 24 l 2
 320 2 302 -16 280 -16 c 2
 40 -16 l 2
 18 -16 0 2 0 24 c 2
 0 360 l 2
 0 382 18 400 40 400 c 2
 192 400 l 1
176 256 m 1
 288 256 l 1
 176 368 l 1
 176 256 l 1
EndSplineSet
EndChar

StartChar: ion-android-done-all
Encoding: 55 62338 54
Width: 512
LayerCount: 2
Fore
SplineSet
388 308 m 1
 248 169 l 1
 217 200 l 1
 357 339 l 1
 388 308 l 1
481 339 m 1
 512 308 l 1
 248 45 l 1
 126 168 l 1
 156 199 l 1
 248 108 l 1
 481 339 l 1
0 168 m 1
 32 199 l 1
 154 76 l 1
 123 45 l 1
 0 168 l 1
EndSplineSet
EndChar

StartChar: ion-android-done
Encoding: 56 62339 55
Width: 384
LayerCount: 2
Fore
SplineSet
122 108 m 1
 352 338 l 1
 384 307 l 1
 122 46 l 1
 0 168 l 1
 32 199 l 1
 122 108 l 1
EndSplineSet
EndChar

StartChar: ion-android-download
Encoding: 57 62173 56
Width: 480
LayerCount: 2
Fore
SplineSet
387 231 m 1
 439 228 480 185 480 132 c 0
 480 77 435 32 380 32 c 2
 120 32 l 2
 54 32 0 86 0 152 c 0
 0 214 47 265 107 271 c 1
 132 319 182 352 240 352 c 0
 313 352 373 300 387 231 c 1
208 180 m 1
 140 180 l 1
 240 80 l 1
 340 180 l 1
 272 180 l 1
 272 256 l 1
 208 256 l 1
 208 180 l 1
EndSplineSet
EndChar

StartChar: ion-android-drafts
Encoding: 58 62340 57
Width: 448
LayerCount: 2
Fore
SplineSet
448 246 m 2
 448 43 l 2
 448 20 428 0 405 0 c 2
 43 0 l 2
 20 0 0 20 0 43 c 2
 0 246 l 2
 0 261 8 276 20 283 c 2
 224 384 l 1
 428 283 l 2
 441 276 448 261 448 246 c 2
224 144 m 1
 395 256 l 1
 224 341 l 1
 53 256 l 1
 224 144 l 1
EndSplineSet
EndChar

StartChar: ion-android-exit
Encoding: 59 62341 58
Width: 384
LayerCount: 2
Fore
SplineSet
151 115 m 1
 206 171 l 1
 0 171 l 1
 0 213 l 1
 207 213 l 1
 151 269 l 1
 181 299 l 1
 288 192 l 1
 181 85 l 1
 151 115 l 1
341 384 m 2
 364 384 384 364 384 341 c 2
 384 43 l 2
 384 20 364 0 341 0 c 2
 43 0 l 2
 20 0 0 20 0 43 c 2
 0 128 l 1
 43 128 l 1
 43 43 l 1
 341 43 l 1
 341 341 l 1
 43 341 l 1
 43 256 l 1
 0 256 l 1
 0 341 l 2
 0 364 20 384 43 384 c 2
 341 384 l 2
EndSplineSet
EndChar

StartChar: ion-android-expand
Encoding: 60 62342 59
Width: 384
LayerCount: 2
Fore
SplineSet
333 51 m 1
 333 128 l 1
 384 128 l 1
 384 0 l 1
 256 0 l 1
 256 51 l 1
 333 51 l 1
333 333 m 1
 256 333 l 1
 256 384 l 1
 384 384 l 1
 384 256 l 1
 333 256 l 1
 333 333 l 1
51 333 m 1
 51 256 l 1
 0 256 l 1
 0 384 l 1
 128 384 l 1
 128 333 l 1
 51 333 l 1
51 51 m 1
 128 51 l 1
 128 0 l 1
 0 0 l 1
 0 128 l 1
 51 128 l 1
 51 51 l 1
EndSplineSet
EndChar

StartChar: ion-android-favorite-outline
Encoding: 61 62343 60
Width: 416
LayerCount: 2
Fore
SplineSet
302 384 m 0
 366 384 416 334 416 269 c 0
 416 189 345 125 238 27 c 1
 208 0 l 1
 178 27 l 1
 71 125 0 189 0 269 c 0
 0 334 50 384 114 384 c 0
 150 384 185 367 208 340 c 1
 231 367 266 384 302 384 c 0
221 55 m 1
 271 101 315 141 344 177 c 0
 372 212 384 240 384 269 c 0
 384 292 375 313 360 328 c 0
 345 343 325 352 302 352 c 0
 276 352 249 339 232 319 c 2
 208 290 l 1
 184 319 l 2
 167 339 140 352 114 352 c 0
 91 352 71 343 56 328 c 0
 41 313 32 292 32 269 c 0
 32 240 44 212 72 177 c 0
 101 141 145 101 195 55 c 1
 199 51 l 1
 208 43 l 1
 217 51 l 1
 221 55 l 1
EndSplineSet
EndChar

StartChar: ion-android-favorite
Encoding: 62 62344 61
Width: 416
LayerCount: 2
Fore
SplineSet
208 0 m 1
 178 27 l 1
 71 125 0 189 0 269 c 0
 0 334 50 384 114 384 c 0
 150 384 185 367 208 340 c 1
 231 367 266 384 302 384 c 0
 366 384 416 334 416 269 c 0
 416 189 345 125 238 27 c 1
 208 0 l 1
EndSplineSet
EndChar

StartChar: ion-android-film
Encoding: 63 62345 62
Width: 320
LayerCount: 2
Fore
SplineSet
280 384 m 1
 320 384 l 1
 320 0 l 1
 280 0 l 1
 280 43 l 1
 240 43 l 1
 240 0 l 1
 80 0 l 1
 80 43 l 1
 40 43 l 1
 40 0 l 1
 0 0 l 1
 0 384 l 1
 40 384 l 1
 40 341 l 1
 80 341 l 1
 80 384 l 1
 240 384 l 1
 240 341 l 1
 280 341 l 1
 280 384 l 1
80 85 m 1
 80 128 l 1
 40 128 l 1
 40 85 l 1
 80 85 l 1
80 171 m 1
 80 213 l 1
 40 213 l 1
 40 171 l 1
 80 171 l 1
80 256 m 1
 80 299 l 1
 40 299 l 1
 40 256 l 1
 80 256 l 1
280 85 m 1
 280 128 l 1
 240 128 l 1
 240 85 l 1
 280 85 l 1
280 171 m 1
 280 213 l 1
 240 213 l 1
 240 171 l 1
 280 171 l 1
280 256 m 1
 280 299 l 1
 240 299 l 1
 240 256 l 1
 280 256 l 1
EndSplineSet
EndChar

StartChar: ion-android-folder-open
Encoding: 64 62346 63
Width: 448
LayerCount: 2
Fore
SplineSet
405 304 m 2
 428 304 448 284 448 261 c 2
 448 75 l 2
 448 52 428 32 405 32 c 2
 43 32 l 2
 20 32 0 52 0 75 c 2
 0 309 l 2
 0 332 20 352 43 352 c 2
 181 352 l 1
 224 304 l 1
 405 304 l 2
416 75 m 2
 416 261 l 2
 416 267 411 272 405 272 c 2
 32 272 l 1
 32 75 l 2
 32 69 37 64 43 64 c 2
 405 64 l 2
 411 64 416 69 416 75 c 2
EndSplineSet
EndChar

StartChar: ion-android-folder
Encoding: 65 62176 64
Width: 448
LayerCount: 2
Fore
SplineSet
181 352 m 1
 224 304 l 1
 405 304 l 2
 428 304 448 284 448 261 c 2
 448 75 l 2
 448 52 428 32 405 32 c 2
 43 32 l 2
 20 32 0 52 0 75 c 2
 0 309 l 2
 0 332 20 352 43 352 c 2
 181 352 l 1
EndSplineSet
EndChar

StartChar: ion-android-funnel
Encoding: 66 62347 65
Width: 448
LayerCount: 2
Fore
SplineSet
176 48 m 1
 176 96 l 1
 272 96 l 1
 272 48 l 1
 176 48 l 1
0 336 m 1
 448 336 l 1
 448 288 l 1
 0 288 l 1
 0 336 l 1
80 167 m 1
 80 217 l 1
 368 217 l 1
 368 167 l 1
 80 167 l 1
EndSplineSet
EndChar

StartChar: ion-android-globe
Encoding: 67 62348 66
Width: 416
LayerCount: 2
Fore
SplineSet
208 400 m 0
 323 400 416 307 416 192 c 0
 416 77 323 -16 208 -16 c 0
 93 -16 0 77 0 192 c 0
 0 307 93 400 208 400 c 0
186 15 m 1
 192 30 207 44 194 54 c 0
 186 61 178 68 171 75 c 0
 169 77 160 95 162 98 c 0
 167 107 168 112 170 122 c 0
 173 134 167 138 157 144 c 0
 142 154 128 167 114 178 c 0
 107 183 97 188 94 197 c 0
 91 206 89 217 84 225 c 0
 70 245 72 259 74 283 c 0
 74 290 73 299 72 308 c 1
 44 276 30 235 30 192 c 0
 30 144 48 100 82 66 c 0
 111 37 147 20 186 15 c 1
334 66 m 0
 357 89 373 117 381 148 c 1
 373 147 362 150 362 150 c 1
 362 150 341 174 339 195 c 0
 337 217 339 234 336 252 c 0
 333 268 316 283 309 298 c 0
 302 312 296 326 289 340 c 1
 291 339 294 338 296 337 c 1
 301 338 306 339 310 339 c 1
 287 355 261 364 234 368 c 1
 234 360 l 1
 238 351 l 1
 224 338 l 1
 215 341 l 1
 205 351 l 1
 195 363 l 1
 181 368 l 1
 165 366 150 361 136 355 c 1
 136 348 l 1
 143 351 152 353 159 356 c 0
 162 357 172 349 175 347 c 1
 171 342 154 332 153 326 c 0
 153 324 160 320 160 316 c 0
 160 310 159 305 159 299 c 1
 162 302 179 320 181 320 c 0
 194 323 216 301 218 294 c 0
 220 287 196 270 185 260 c 0
 177 252 160 248 165 236 c 0
 167 232 175 216 170 212 c 0
 164 207 156 221 153 224 c 0
 145 234 127 231 115 231 c 1
 115 214 114 200 130 188 c 0
 145 177 160 163 177 155 c 0
 190 149 213 162 224 154 c 0
 240 143 253 133 271 125 c 0
 279 122 304 105 297 94 c 0
 292 86 287 79 283 71 c 0
 279 63 270 51 263 46 c 0
 255 40 247 29 242 17 c 1
 277 24 308 40 334 66 c 0
EndSplineSet
EndChar

StartChar: ion-android-hand
Encoding: 68 62179 67
Width: 414
LayerCount: 2
Fore
SplineSet
401 174 m 0
 416 159 419 138 404 123 c 2
 404 123 308 20 278 2 c 1
 278 2 l 1
 250 -19 213 -32 178 -32 c 0
 123 -32 77 4 61 53 c 1
 61 53 l 1
 61 54 l 2
 61 55 60 56 60 57 c 2
 2 246 l 2
 -3 261 4 278 19 283 c 0
 34 288 49 280 54 265 c 2
 88 177 l 2
 89 173 90 175 90 178 c 2
 68 339 l 2
 65 354 75 369 90 372 c 0
 105 375 120 364 123 349 c 2
 148 211 l 2
 148 209 150 209 150 211 c 2
 150 388 l 2
 150 403 163 416 178 416 c 0
 193 416 206 403 206 388 c 2
 214 213 l 2
 214 208 217 209 218 212 c 2
 241 347 l 2
 243 362 257 374 272 372 c 0
 287 370 299 355 297 340 c 2
 276 168 l 2
 275 156 273 138 278 132 c 0
 286 123 298 123 309 134 c 2
 351 176 l 2
 366 191 386 189 401 174 c 0
EndSplineSet
EndChar

StartChar: ion-android-hangout
Encoding: 69 62349 68
Width: 352
LayerCount: 2
Fore
SplineSet
176 400 m 0
 273 400 352 323 352 228 c 0
 352 137 276 32 176 -16 c 1
 176 55 l 1
 79 55 0 133 0 228 c 0
 0 323 79 400 176 400 c 0
166 217 m 1
 166 278 l 1
 104 278 l 1
 104 217 l 1
 135 217 l 1
 114 177 l 1
 145 177 l 1
 166 217 l 1
248 217 m 1
 248 278 l 1
 186 278 l 1
 186 217 l 1
 217 217 l 1
 197 177 l 1
 228 177 l 1
 248 217 l 1
EndSplineSet
EndChar

StartChar: ion-android-happy
Encoding: 70 62350 69
Width: 416
LayerCount: 2
Fore
SplineSet
208 400 m 0
 322 400 416 306 416 192 c 0
 416 78 323 -16 208 -16 c 0
 93 -16 0 78 0 192 c 0
 0 306 93 400 208 400 c 0
208 26 m 0
 300 26 374 100 374 192 c 0
 374 284 300 358 208 358 c 0
 116 358 42 284 42 192 c 0
 42 100 116 26 208 26 c 0
281 213 m 0
 263 213 250 226 250 244 c 0
 250 262 263 275 281 275 c 0
 299 275 312 262 312 244 c 0
 312 226 299 213 281 213 c 0
135 213 m 0
 117 213 104 226 104 244 c 0
 104 262 117 275 135 275 c 0
 153 275 166 262 166 244 c 0
 166 226 153 213 135 213 c 0
208 78 m 0
 159 78 119 107 102 150 c 1
 314 150 l 1
 297 107 257 78 208 78 c 0
EndSplineSet
EndChar

StartChar: ion-android-home
Encoding: 71 62351 70
Width: 416
LayerCount: 2
Fore
SplineSet
160 0 m 1
 62 0 l 1
 62 192 l 1
 0 192 l 1
 208 384 l 1
 416 192 l 1
 354 192 l 1
 354 0 l 1
 256 0 l 1
 256 128 l 1
 160 128 l 1
 160 0 l 1
EndSplineSet
EndChar

StartChar: ion-android-image
Encoding: 72 62180 71
Width: 384
LayerCount: 2
Fore
SplineSet
384 43 m 2
 384 20 364 0 341 0 c 2
 43 0 l 2
 20 0 0 20 0 43 c 2
 0 341 l 2
 0 364 20 384 43 384 c 2
 341 384 l 2
 364 384 384 364 384 341 c 2
 384 43 l 2
117 160 m 1
 43 64 l 1
 341 64 l 1
 245 192 l 1
 171 96 l 1
 117 160 l 1
EndSplineSet
EndChar

StartChar: ion-android-laptop
Encoding: 73 62352 72
Width: 512
LayerCount: 2
Fore
SplineSet
437 32 m 2
 512 32 l 1
 512 9 448 0 416 0 c 2
 96 0 l 2
 64 0 0 9 0 32 c 1
 75 32 l 2
 52 32 32 52 32 75 c 2
 32 341 l 2
 32 364 52 384 75 384 c 2
 437 384 l 2
 460 384 480 364 480 341 c 2
 480 75 l 2
 480 52 460 32 437 32 c 2
75 341 m 1
 75 69 l 1
 437 69 l 1
 437 341 l 1
 75 341 l 1
256 13 m 0
 268 13 277 23 277 35 c 0
 277 47 268 56 256 56 c 0
 244 56 235 47 235 35 c 0
 235 23 244 13 256 13 c 0
EndSplineSet
EndChar

StartChar: ion-android-list
Encoding: 74 62353 73
Width: 384
LayerCount: 2
Fore
SplineSet
344 384 m 2
 366 384 384 366 384 344 c 2
 384 40 l 2
 384 18 366 0 344 0 c 2
 40 0 l 2
 18 0 0 18 0 40 c 2
 0 344 l 2
 0 366 18 384 40 384 c 2
 344 384 l 2
240 80 m 1
 240 128 l 1
 80 128 l 1
 80 80 l 1
 240 80 l 1
304 168 m 1
 304 216 l 1
 80 216 l 1
 80 168 l 1
 304 168 l 1
304 256 m 1
 304 304 l 1
 80 304 l 1
 80 256 l 1
 304 256 l 1
EndSplineSet
EndChar

StartChar: ion-android-locate
Encoding: 75 62185 74
Width: 448
LayerCount: 2
Fore
SplineSet
224 272 m 0
 268 272 304 236 304 192 c 0
 304 148 268 112 224 112 c 0
 180 112 144 148 144 192 c 0
 144 236 180 272 224 272 c 0
415 213 m 1
 448 213 l 1
 448 171 l 1
 415 171 l 1
 405 82 334 11 245 1 c 1
 245 -32 l 1
 203 -32 l 1
 203 1 l 1
 114 11 43 82 33 171 c 1
 0 171 l 1
 0 213 l 1
 33 213 l 1
 43 302 114 373 203 383 c 1
 203 416 l 1
 245 416 l 1
 245 383 l 1
 334 373 405 302 415 213 c 1
224 43 m 0
 306 43 373 110 373 192 c 0
 373 274 306 341 224 341 c 0
 142 341 75 274 75 192 c 0
 75 110 142 43 224 43 c 0
EndSplineSet
EndChar

StartChar: ion-android-lock
Encoding: 76 62354 75
Width: 320
LayerCount: 2
Fore
SplineSet
280 262 m 2
 302 262 320 244 320 222 c 2
 320 22 l 2
 320 0 302 -18 280 -18 c 2
 40 -18 l 2
 18 -18 0 0 0 22 c 2
 0 222 l 2
 0 244 18 262 40 262 c 2
 60 262 l 1
 60 302 l 2
 60 357 105 402 160 402 c 0
 215 402 260 357 260 302 c 2
 260 262 l 1
 280 262 l 2
160 80 m 0
 182 80 200 98 200 120 c 0
 200 142 182 160 160 160 c 0
 138 160 120 142 120 120 c 0
 120 98 138 80 160 80 c 0
222 262 m 1
 222 302 l 2
 222 336 194 364 160 364 c 0
 126 364 98 336 98 302 c 2
 98 262 l 1
 222 262 l 1
EndSplineSet
EndChar

StartChar: ion-android-mail
Encoding: 77 62187 76
Width: 448
LayerCount: 2
Fore
SplineSet
405 368 m 2
 428 368 448 348 448 325 c 2
 448 59 l 2
 448 36 428 16 405 16 c 2
 43 16 l 2
 20 16 0 36 0 59 c 2
 0 325 l 2
 0 348 20 368 43 368 c 2
 405 368 l 2
400 277 m 1
 400 320 l 1
 224 203 l 1
 48 320 l 1
 48 277 l 1
 224 160 l 1
 400 277 l 1
EndSplineSet
EndChar

StartChar: ion-android-map
Encoding: 78 62355 77
Width: 384
LayerCount: 2
Fore
SplineSet
373 384 m 0
 379 384 384 379 384 373 c 2
 384 51 l 2
 384 46 381 42 377 41 c 2
 256 0 l 1
 128 45 l 1
 128 45 23 4 20 3 c 0
 17 2 13 0 11 0 c 0
 5 0 0 5 0 11 c 2
 0 333 l 2
 0 338 3 342 7 343 c 2
 128 384 l 1
 256 339 l 1
 256 339 359 379 364 381 c 0
 369 383 371 384 373 384 c 0
256 43 m 1
 256 297 l 1
 128 341 l 1
 128 87 l 1
 256 43 l 1
EndSplineSet
EndChar

StartChar: ion-android-menu
Encoding: 79 62356 78
Width: 384
LayerCount: 2
Fore
SplineSet
0 64 m 1
 0 107 l 1
 384 107 l 1
 384 64 l 1
 0 64 l 1
0 171 m 1
 0 213 l 1
 384 213 l 1
 384 171 l 1
 0 171 l 1
0 320 m 1
 384 320 l 1
 384 277 l 1
 0 277 l 1
 0 320 l 1
EndSplineSet
EndChar

StartChar: ion-android-microphone-off
Encoding: 80 62357 79
Width: 408
LayerCount: 2
Fore
SplineSet
316 93 m 1
 374 35 l 1
 316 93 l 1
 374 35 l 1
 408 2 l 1
 384 -22 l 1
 289 73 l 1
 270 62 249 53 227 50 c 1
 227 -32 l 1
 181 -32 l 1
 181 50 l 1
 106 60 44 126 44 203 c 1
 83 203 l 1
 83 135 141 86 204 86 c 0
 224 86 244 91 261 100 c 1
 229 133 l 1
 221 130 213 128 204 128 c 0
 166 128 135 159 135 197 c 2
 135 226 l 1
 0 360 l 1
 24 384 l 1
 135 274 l 1
 135 274 l 1
 275 134 l 1
 280 129 l 1
 289 120 l 1
 316 93 l 1
273 197 m 2
 273 193 273 189 272 185 c 1
 135 322 l 1
 135 347 l 2
 135 385 166 416 204 416 c 0
 242 416 273 385 273 347 c 2
 273 197 l 2
365 203 m 1
 365 172 355 143 338 119 c 1
 311 147 l 1
 320 164 326 183 326 203 c 1
 365 203 l 1
408 2 m 1
 408 2 l 1
 374 35 l 1
 408 2 l 1
EndSplineSet
EndChar

StartChar: ion-android-microphone
Encoding: 81 62188 80
Width: 320
LayerCount: 2
Fore
SplineSet
160 128 m 0
 122 128 91 159 91 197 c 2
 91 347 l 2
 91 385 122 416 160 416 c 0
 198 416 229 385 229 347 c 2
 229 197 l 2
 229 159 198 128 160 128 c 0
281 203 m 1
 320 203 l 1
 320 125 258 61 183 50 c 1
 183 -32 l 1
 137 -32 l 1
 137 50 l 1
 62 60 0 125 0 203 c 1
 39 203 l 1
 39 134 97 87 160 87 c 0
 223 87 281 134 281 203 c 1
EndSplineSet
EndChar

StartChar: ion-android-more-horizontal
Encoding: 82 62358 81
Width: 320
LayerCount: 2
Fore
SplineSet
40 232 m 0
 62 232 80 214 80 192 c 0
 80 170 62 152 40 152 c 0
 18 152 0 170 0 192 c 0
 0 214 18 232 40 232 c 0
280 232 m 0
 302 232 320 214 320 192 c 0
 320 170 302 152 280 152 c 0
 258 152 240 170 240 192 c 0
 240 214 258 232 280 232 c 0
160 232 m 0
 182 232 200 214 200 192 c 0
 200 170 182 152 160 152 c 0
 138 152 120 170 120 192 c 0
 120 214 138 232 160 232 c 0
EndSplineSet
EndChar

StartChar: ion-android-more-vertical
Encoding: 83 62359 82
Width: 80
LayerCount: 2
Fore
SplineSet
80 312 m 0
 80 290 62 272 40 272 c 0
 18 272 0 290 0 312 c 0
 0 334 18 352 40 352 c 0
 62 352 80 334 80 312 c 0
80 72 m 0
 80 50 62 32 40 32 c 0
 18 32 0 50 0 72 c 0
 0 94 18 112 40 112 c 0
 62 112 80 94 80 72 c 0
80 192 m 0
 80 170 62 152 40 152 c 0
 18 152 0 170 0 192 c 0
 0 214 18 232 40 232 c 0
 62 232 80 214 80 192 c 0
EndSplineSet
EndChar

StartChar: ion-android-navigate
Encoding: 84 62360 83
Width: 320
LayerCount: 2
Fore
SplineSet
160 384 m 1
 320 15 l 1
 305 0 l 1
 160 64 l 1
 15 0 l 1
 0 15 l 1
 160 384 l 1
EndSplineSet
EndChar

StartChar: ion-android-notifications-none
Encoding: 85 62361 84
Width: 352
LayerCount: 2
Fore
SplineSet
177 328 m 2
 175 328 l 2
 169 328 151 323 151 323 c 2
 105 313 73 270 73 223 c 2
 73 109 l 1
 73 96 l 1
 64 86 l 1
 56 78 l 1
 296 78 l 1
 288 86 l 1
 279 96 l 1
 279 109 l 1
 279 223 l 2
 279 270 247 313 201 323 c 2
 201 323 184 328 177 328 c 2
176 400 m 1
 176 400 l 1
 194 400 207 387 207 369 c 2
 207 354 l 1
 266 340 311 286 311 223 c 2
 311 109 l 1
 352 67 l 1
 352 46 l 1
 0 46 l 1
 0 67 l 1
 41 109 l 1
 41 223 l 2
 41 286 86 340 145 354 c 1
 145 369 l 2
 145 387 158 400 176 400 c 1
217 26 m 1
 217 26 l 1
 217 3 199 -16 176 -16 c 0
 153 -16 135 3 135 26 c 1
 217 26 l 1
EndSplineSet
EndChar

StartChar: ion-android-notifications-off
Encoding: 86 62362 85
Width: 364
LayerCount: 2
Fore
SplineSet
182 -16 m 0
 159 -16 141 3 141 26 c 1
 223 26 l 1
 223 3 205 -16 182 -16 c 0
57 341 m 1
 352 46 l 1
 352 46 l 1
 364 34 l 1
 340 10 l 1
 304 46 l 1
 6 46 l 1
 6 67 l 1
 47 108 l 1
 47 223 l 2
 47 246 53 267 63 286 c 1
 0 350 l 1
 24 374 l 1
 57 341 l 1
 57 341 l 1
317 223 m 2
 317 129 l 1
 109 336 l 1
 122 344 136 351 151 354 c 1
 151 369 l 2
 151 387 164 400 182 400 c 0
 200 400 213 387 213 369 c 2
 213 354 l 1
 272 340 317 287 317 223 c 2
EndSplineSet
EndChar

StartChar: ion-android-notifications
Encoding: 87 62363 86
Width: 352
LayerCount: 2
Fore
SplineSet
176 -16 m 0
 153 -16 135 3 135 26 c 1
 217 26 l 1
 217 3 199 -16 176 -16 c 0
311 109 m 1
 352 67 l 1
 352 46 l 1
 0 46 l 1
 0 67 l 1
 41 109 l 1
 41 223 l 2
 41 286 86 340 145 354 c 1
 145 369 l 2
 145 387 158 400 176 400 c 0
 194 400 207 387 207 369 c 2
 207 354 l 1
 266 340 311 286 311 223 c 2
 311 109 l 1
EndSplineSet
EndChar

StartChar: ion-android-open
Encoding: 88 62364 87
Width: 384
LayerCount: 2
Fore
SplineSet
341 43 m 1
 341 176 l 1
 384 176 l 1
 384 43 l 2
 384 20 364 0 341 0 c 2
 43 0 l 2
 20 0 0 20 0 43 c 2
 0 341 l 2
 0 364 20 384 43 384 c 2
 176 384 l 1
 176 341 l 1
 43 341 l 1
 43 43 l 1
 341 43 l 1
224 384 m 1
 384 384 l 1
 384 224 l 1
 341 224 l 1
 341 311 l 1
 126 96 l 1
 96 126 l 1
 311 341 l 1
 224 341 l 1
 224 384 l 1
EndSplineSet
EndChar

StartChar: ion-android-options
Encoding: 89 62365 88
Width: 448
LayerCount: 2
Fore
SplineSet
0 32 m 1
 0 64 l 1
 272 64 l 1
 272 32 l 1
 0 32 l 1
368 32 m 1
 368 64 l 1
 448 64 l 1
 448 32 l 1
 368 32 l 1
352 0 m 2
 352 -18 338 -32 320 -32 c 1
 320 -32 l 1
 302 -32 288 -18 288 0 c 2
 288 96 l 2
 288 114 302 128 320 128 c 1
 320 128 l 1
 338 128 352 114 352 96 c 2
 352 0 l 2
0 176 m 1
 0 208 l 1
 80 208 l 1
 80 176 l 1
 0 176 l 1
176 176 m 1
 176 208 l 1
 448 208 l 1
 448 176 l 1
 176 176 l 1
160 144 m 2
 160 126 146 112 128 112 c 1
 128 112 l 1
 110 112 96 126 96 144 c 2
 96 240 l 2
 96 258 110 272 128 272 c 1
 128 272 l 1
 146 272 160 258 160 240 c 2
 160 144 l 2
0 320 m 1
 0 352 l 1
 272 352 l 1
 272 320 l 1
 0 320 l 1
368 320 m 1
 368 352 l 1
 448 352 l 1
 448 320 l 1
 368 320 l 1
352 288 m 2
 352 270 338 256 320 256 c 1
 320 256 l 1
 302 256 288 270 288 288 c 2
 288 384 l 2
 288 402 302 416 320 416 c 1
 320 416 l 1
 338 416 352 402 352 384 c 2
 352 288 l 2
EndSplineSet
EndChar

StartChar: ion-android-people
Encoding: 90 62366 89
Width: 448
LayerCount: 2
Fore
SplineSet
305 216 m 0
 271 216 244 243 244 276 c 0
 244 309 271 336 305 336 c 0
 339 336 367 309 367 276 c 0
 367 243 339 216 305 216 c 0
143 216 m 0
 109 216 81 243 81 276 c 0
 81 309 109 336 143 336 c 0
 177 336 204 309 204 276 c 0
 204 243 177 216 143 216 c 0
143 172 m 0
 191 172 288 149 288 102 c 2
 288 48 l 1
 0 48 l 1
 0 102 l 2
 0 149 95 172 143 172 c 0
305 161 m 0
 353 161 448 149 448 102 c 2
 448 48 l 1
 320 48 l 1
 320 102 l 2
 320 132 311 143 288 160 c 1
 295 161 299 161 305 161 c 0
EndSplineSet
EndChar

StartChar: ion-android-person-add
Encoding: 91 62367 90
Width: 480
LayerCount: 2
Fore
SplineSet
288 192 m 0
 235 192 192 235 192 288 c 0
 192 341 235 384 288 384 c 0
 341 384 384 341 384 288 c 0
 384 235 341 192 288 192 c 0
288 144 m 0
 352 144 480 112 480 48 c 2
 480 0 l 1
 96 0 l 1
 96 48 l 2
 96 112 224 144 288 144 c 0
96 224 m 1
 160 224 l 1
 160 192 l 1
 96 192 l 1
 96 128 l 1
 64 128 l 1
 64 192 l 1
 0 192 l 1
 0 224 l 1
 64 224 l 1
 64 288 l 1
 96 288 l 1
 96 224 l 1
EndSplineSet
EndChar

StartChar: ion-android-person
Encoding: 92 62368 91
Width: 384
LayerCount: 2
Fore
SplineSet
192 192 m 0
 139 192 96 235 96 288 c 0
 96 341 139 384 192 384 c 0
 245 384 288 341 288 288 c 0
 288 235 245 192 192 192 c 0
192 144 m 0
 256 144 384 112 384 48 c 2
 384 0 l 1
 0 0 l 1
 0 48 l 2
 0 112 128 144 192 144 c 0
EndSplineSet
EndChar

StartChar: ion-android-phone-landscape
Encoding: 93 62369 92
Width: 448
LayerCount: 2
Fore
SplineSet
448 89 m 2
 448 66 429 48 407 48 c 2
 41 48 l 2
 19 48 0 66 0 89 c 2
 0 295 l 2
 0 318 19 336 41 336 c 2
 407 336 l 2
 429 336 448 318 448 295 c 2
 448 89 l 2
80 84 m 1
 368 84 l 1
 368 300 l 1
 80 300 l 1
 80 84 l 1
EndSplineSet
EndChar

StartChar: ion-android-phone-portrait
Encoding: 94 62370 93
Width: 288
LayerCount: 2
Fore
SplineSet
247 416 m 2
 270 416 288 397 288 375 c 2
 288 9 l 2
 288 -13 270 -32 247 -32 c 2
 41 -32 l 2
 18 -32 0 -13 0 9 c 2
 0 375 l 2
 0 397 18 416 41 416 c 2
 247 416 l 2
252 48 m 1
 252 336 l 1
 36 336 l 1
 36 48 l 1
 252 48 l 1
EndSplineSet
EndChar

StartChar: ion-android-pin
Encoding: 95 62371 94
Width: 320
LayerCount: 2
Fore
SplineSet
160 416 m 0
 248 416 320 345 320 259 c 0
 320 141 160 -32 160 -32 c 1
 160 -32 0 141 0 259 c 0
 0 345 72 416 160 416 c 0
160 203 m 0
 192 203 217 228 217 259 c 0
 217 290 192 315 160 315 c 0
 128 315 103 290 103 259 c 0
 103 228 128 203 160 203 c 0
EndSplineSet
EndChar

StartChar: ion-android-plane
Encoding: 96 62372 95
Width: 384
LayerCount: 2
Fore
SplineSet
384 112 m 1
 224 160 l 1
 224 46 l 1
 272 15 l 1
 272 -16 l 1
 192 0 l 1
 112 -16 l 1
 112 15 l 1
 160 46 l 1
 160 160 l 1
 0 112 l 1
 0 152 l 1
 160 256 l 1
 160 369 l 2
 160 387 175 400 192 400 c 0
 209 400 224 387 224 369 c 2
 224 256 l 1
 384 152 l 1
 384 112 l 1
EndSplineSet
EndChar

StartChar: ion-android-playstore
Encoding: 97 62192 96
Width: 416
LayerCount: 2
Fore
SplineSet
416 296 m 1
 397 82 403 -16 403 -16 c 1
 13 -16 l 1
 13 -16 19 80 0 296 c 1
 104 296 l 1
 104 353 151 400 208 400 c 0
 265 400 312 353 312 296 c 1
 416 296 l 1
208 374 m 0
 165 374 130 339 130 296 c 1
 286 296 l 1
 286 339 251 374 208 374 c 0
156 50 m 1
 299 135 l 1
 156 219 l 1
 156 50 l 1
EndSplineSet
EndChar

StartChar: ion-android-print
Encoding: 98 62373 97
Width: 416
LayerCount: 2
Fore
SplineSet
352 288 m 2
 387 288 416 259 416 224 c 2
 416 85 l 1
 336 85 l 1
 336 0 l 1
 80 0 l 1
 80 85 l 1
 0 85 l 1
 0 224 l 2
 0 259 29 288 64 288 c 2
 352 288 l 2
304 32 m 1
 304 160 l 1
 112 160 l 1
 112 32 l 1
 304 32 l 1
336 384 m 1
 336 384 l 1
 336 304 l 1
 80 304 l 1
 80 384 l 1
 336 384 l 1
EndSplineSet
EndChar

StartChar: ion-android-radio-button-off
Encoding: 99 62374 98
Width: 416
LayerCount: 2
Fore
SplineSet
208 400 m 0
 322 400 416 306 416 192 c 0
 416 78 322 -16 208 -16 c 0
 94 -16 0 78 0 192 c 0
 0 306 94 400 208 400 c 0
208 26 m 0
 300 26 374 100 374 192 c 0
 374 284 300 358 208 358 c 0
 116 358 42 284 42 192 c 0
 42 100 116 26 208 26 c 0
EndSplineSet
EndChar

StartChar: ion-android-radio-button-on
Encoding: 100 62375 99
Width: 416
LayerCount: 2
Fore
SplineSet
208 296 m 0
 265 296 312 249 312 192 c 0
 312 135 265 88 208 88 c 0
 151 88 104 135 104 192 c 0
 104 249 151 296 208 296 c 0
208 400 m 0
 322 400 416 306 416 192 c 0
 416 78 322 -16 208 -16 c 0
 94 -16 0 78 0 192 c 0
 0 306 94 400 208 400 c 0
208 26 m 0
 300 26 374 100 374 192 c 0
 374 284 300 358 208 358 c 0
 116 358 42 284 42 192 c 0
 42 100 116 26 208 26 c 0
EndSplineSet
EndChar

StartChar: ion-android-refresh
Encoding: 101 62376 100
Width: 352
LayerCount: 2
Fore
SplineSet
176 60 m 0
 232 60 280 94 299 144 c 1
 345 144 l 1
 324 70 257 16 176 16 c 0
 78 16 0 95 0 192 c 0
 0 289 79 368 176 368 c 0
 224 368 268 348 300 316 c 1
 352 368 l 1
 352 214 l 1
 198 214 l 1
 268 284 l 1
 245 308 212 324 176 324 c 0
 103 324 44 265 44 192 c 0
 44 119 103 60 176 60 c 0
EndSplineSet
EndChar

StartChar: ion-android-remove-circle
Encoding: 102 62377 101
Width: 416
LayerCount: 2
Fore
SplineSet
208 400 m 0
 323 400 416 307 416 192 c 0
 416 77 323 -16 208 -16 c 0
 93 -16 0 77 0 192 c 0
 0 307 93 400 208 400 c 0
315 171 m 1
 315 213 l 1
 101 213 l 1
 101 171 l 1
 315 171 l 1
EndSplineSet
EndChar

StartChar: ion-android-remove
Encoding: 103 62196 102
Width: 320
LayerCount: 2
Fore
SplineSet
0 171 m 1
 0 213 l 1
 320 213 l 1
 320 171 l 1
 0 171 l 1
EndSplineSet
EndChar

StartChar: ion-android-restaurant
Encoding: 104 62378 103
Width: 415
LayerCount: 2
Fore
SplineSet
116 168 m 1
 25 257 l 2
 -9 290 -9 343 25 376 c 1
 178 228 l 1
 116 168 l 1
264 206 m 1
 231 175 l 1
 381 30 l 1
 351 0 l 1
 201 146 l 1
 51 0 l 1
 21 30 l 1
 21 30 184 189 232 237 c 1
 217 269 228 314 263 348 c 0
 304 388 364 397 395 365 c 1
 428 334 419 276 378 236 c 0
 344 202 298 191 264 206 c 1
EndSplineSet
EndChar

StartChar: ion-android-sad
Encoding: 105 62379 104
Width: 416
LayerCount: 2
Fore
SplineSet
208 160 m 0
 253 160 291 134 310 96 c 1
 106 96 l 1
 125 134 163 160 208 160 c 0
208 400 m 0
 322 400 416 306 416 192 c 0
 416 78 323 -16 208 -16 c 0
 93 -16 0 78 0 192 c 0
 0 306 93 400 208 400 c 0
208 26 m 0
 300 26 374 100 374 192 c 0
 374 284 300 358 208 358 c 0
 116 358 42 284 42 192 c 0
 42 100 116 26 208 26 c 0
281 213 m 0
 263 213 250 226 250 244 c 0
 250 262 263 275 281 275 c 0
 299 275 312 262 312 244 c 0
 312 226 299 213 281 213 c 0
135 213 m 0
 117 213 104 226 104 244 c 0
 104 262 117 275 135 275 c 0
 153 275 166 262 166 244 c 0
 166 226 153 213 135 213 c 0
EndSplineSet
EndChar

StartChar: ion-android-search
Encoding: 106 62197 105
Width: 384
LayerCount: 2
Fore
SplineSet
274 143 m 1
 384 33 l 1
 351 0 l 1
 242 110 l 1
 242 127 l 1
 235 133 l 1
 210 112 177 99 142 99 c 0
 63 99 0 162 0 241 c 0
 0 320 63 384 141 384 c 0
 220 384 283 320 283 241 c 0
 283 205 270 173 249 148 c 1
 256 143 l 1
 274 143 l 1
142 143 m 0
 197 143 241 186 241 241 c 0
 241 296 197 340 142 340 c 0
 87 340 44 296 44 241 c 0
 44 186 87 143 142 143 c 0
EndSplineSet
EndChar

StartChar: ion-android-send
Encoding: 107 62198 106
Width: 416
LayerCount: 2
Fore
SplineSet
0 0 m 1
 0 149 l 1
 298 192 l 1
 0 235 l 1
 0 384 l 1
 416 192 l 1
 0 0 l 1
EndSplineSet
EndChar

StartChar: ion-android-settings
Encoding: 108 62199 107
Width: 416
LayerCount: 2
Fore
SplineSet
366 171 m 1
 413 137 l 2
 416 134 417 127 415 123 c 2
 372 52 l 2
 370 48 365 45 360 47 c 2
 306 68 l 1
 294 60 283 52 270 47 c 1
 262 -8 l 2
 261 -12 256 -16 251 -16 c 2
 166 -16 l 2
 161 -16 156 -13 155 -8 c 2
 147 47 l 1
 134 52 122 60 111 68 c 1
 57 47 l 2
 53 45 47 48 45 52 c 2
 2 123 l 2
 -1 128 0 134 4 137 c 2
 49 171 l 1
 49 178 48 185 48 192 c 0
 48 199 49 206 49 213 c 1
 3 247 l 2
 0 250 -1 257 1 261 c 2
 44 332 l 2
 46 336 51 339 56 337 c 2
 110 316 l 1
 122 324 133 332 146 337 c 1
 154 392 l 2
 155 396 160 400 165 400 c 2
 250 400 l 2
 255 400 260 396 261 392 c 2
 268 337 l 1
 281 332 293 324 304 316 c 1
 357 337 l 2
 361 339 368 336 370 332 c 2
 413 261 l 2
 416 256 415 250 411 247 c 2
 366 213 l 1
 366 206 367 199 367 192 c 0
 367 185 367 177 366 171 c 1
207 119 m 0
 248 119 282 151 282 192 c 0
 282 233 248 265 207 265 c 0
 166 265 133 233 133 192 c 0
 133 151 166 119 207 119 c 0
EndSplineSet
EndChar

StartChar: ion-android-share-alt
Encoding: 109 62380 108
Width: 384
LayerCount: 2
Fore
SplineSet
320 104 m 0
 354 104 382 76 382 42 c 0
 382 8 354 -20 320 -20 c 0
 286 -20 258 8 258 42 c 0
 258 47 259 52 260 56 c 1
 108 144 l 1
 96 133 81 127 64 127 c 0
 29 127 0 156 0 191 c 0
 0 226 28 255 63 255 c 0
 80 255 95 249 107 238 c 1
 258 325 l 1
 257 330 256 335 256 340 c 0
 256 375 285 404 320 404 c 0
 355 404 384 375 384 340 c 0
 384 305 355 276 320 276 c 0
 303 276 288 282 276 293 c 1
 125 206 l 1
 126 201 127 196 127 191 c 0
 127 186 126 181 125 176 c 1
 278 88 l 1
 289 99 304 104 320 104 c 0
EndSplineSet
EndChar

StartChar: ion-android-share
Encoding: 110 62200 109
Width: 384
LayerCount: 2
Fore
SplineSet
384 200 m 1
 224 53 l 1
 224 141 l 1
 117 141 53 107 0 32 c 1
 21 139 75 246 224 267 c 1
 224 352 l 1
 384 200 l 1
EndSplineSet
EndChar

StartChar: ion-android-star-half
Encoding: 111 62381 110
Width: 404
LayerCount: 2
Fore
SplineSet
404 238 m 1
 294 142 l 1
 327 0 l 1
 202 75 l 1
 77 0 l 1
 110 142 l 1
 0 238 l 1
 145 250 l 1
 202 384 l 1
 259 250 l 1
 404 238 l 1
219 103 m 1
 279 67 l 1
 263 135 l 1
 258 154 l 1
 273 166 l 1
 326 212 l 1
 256 218 l 1
 237 220 l 1
 229 238 l 1
 202 302 l 1
 202 113 l 1
 219 103 l 1
EndSplineSet
EndChar

StartChar: ion-android-star-outline
Encoding: 112 62382 111
Width: 404
LayerCount: 2
Fore
SplineSet
404 238 m 1
 294 142 l 1
 327 0 l 1
 202 75 l 1
 77 0 l 1
 110 142 l 1
 0 238 l 1
 145 250 l 1
 202 384 l 1
 259 250 l 1
 404 238 l 1
219 103 m 1
 279 67 l 1
 263 135 l 1
 258 154 l 1
 273 166 l 1
 326 212 l 1
 256 218 l 1
 237 220 l 1
 229 238 l 1
 202 302 l 1
 175 238 l 1
 167 220 l 1
 148 218 l 1
 78 212 l 1
 131 166 l 1
 146 154 l 1
 141 135 l 1
 125 67 l 1
 185 103 l 1
 202 113 l 1
 219 103 l 1
EndSplineSet
EndChar

StartChar: ion-android-star
Encoding: 113 62204 112
Width: 404
LayerCount: 2
Fore
SplineSet
202 75 m 1
 77 0 l 1
 110 142 l 1
 0 238 l 1
 145 250 l 1
 202 384 l 1
 259 250 l 1
 404 238 l 1
 294 142 l 1
 327 0 l 1
 202 75 l 1
EndSplineSet
EndChar

StartChar: ion-android-stopwatch
Encoding: 114 62205 113
Width: 384
LayerCount: 2
Fore
SplineSet
168 141 m 1
 168 272 l 1
 216 272 l 1
 216 141 l 1
 168 141 l 1
344 278 m 1
 369 245 384 204 384 160 c 0
 384 54 298 -32 192 -32 c 0
 86 -32 0 54 0 160 c 0
 0 266 86 352 192 352 c 0
 236 352 277 337 310 312 c 1
 341 342 l 1
 374 309 l 1
 344 278 l 1
298 54 m 0
 326 82 342 120 342 160 c 0
 342 200 326 238 298 266 c 0
 270 294 232 310 192 310 c 0
 152 310 114 294 86 266 c 0
 58 238 42 200 42 160 c 0
 42 120 58 82 86 54 c 0
 114 26 152 10 192 10 c 0
 232 10 270 26 298 54 c 0
128 368 m 1
 128 416 l 1
 256 416 l 1
 256 368 l 1
 128 368 l 1
EndSplineSet
EndChar

StartChar: ion-android-subway
Encoding: 115 62383 114
Width: 352
LayerCount: 2
Fore
SplineSet
176 400 m 0
 270 400 352 390 352 315 c 2
 352 101 l 2
 352 59 319 27 277 27 c 1
 304 0 l 1
 304 -16 l 1
 48 -16 l 1
 48 0 l 1
 75 27 l 1
 33 27 0 59 0 101 c 2
 0 315 l 2
 0 390 82 400 176 400 c 0
80 64 m 0
 98 64 112 78 112 96 c 0
 112 114 98 128 80 128 c 0
 62 128 48 114 48 96 c 0
 48 78 62 64 80 64 c 0
160 208 m 1
 160 304 l 1
 48 304 l 1
 48 208 l 1
 160 208 l 1
272 64 m 0
 290 64 304 78 304 96 c 0
 304 114 290 128 272 128 c 0
 254 128 240 114 240 96 c 0
 240 78 254 64 272 64 c 0
304 208 m 1
 304 304 l 1
 192 304 l 1
 192 208 l 1
 304 208 l 1
EndSplineSet
EndChar

StartChar: ion-android-sunny
Encoding: 116 62384 115
Width: 448
LayerCount: 2
Fore
SplineSet
224 288 m 0
 199 288 174 278 156 260 c 0
 138 242 128 217 128 192 c 0
 128 167 138 142 156 124 c 0
 174 106 199 96 224 96 c 0
 249 96 274 106 292 124 c 0
 310 142 320 167 320 192 c 0
 320 217 310 242 292 260 c 0
 274 278 249 288 224 288 c 0
245 416 m 1
 245 416 l 1
 245 352 l 1
 203 352 l 1
 203 416 l 1
 245 416 l 1
374 372 m 1
 374 372 l 1
 404 342 l 1
 366 304 l 1
 336 334 l 1
 374 372 l 1
74 372 m 1
 74 372 l 1
 112 334 l 1
 82 304 l 1
 44 342 l 1
 74 372 l 1
224 320 m 1
 224 320 l 1
 294 320 352 262 352 192 c 0
 352 122 294 64 224 64 c 0
 154 64 96 122 96 192 c 0
 96 262 154 320 224 320 c 1
448 213 m 1
 448 213 l 1
 448 171 l 1
 384 171 l 1
 384 213 l 1
 448 213 l 1
64 213 m 1
 64 213 l 1
 64 171 l 1
 0 171 l 1
 0 213 l 1
 64 213 l 1
366 80 m 1
 366 80 l 1
 404 42 l 1
 374 12 l 1
 336 50 l 1
 366 80 l 1
82 80 m 1
 82 80 l 1
 112 50 l 1
 74 12 l 1
 44 42 l 1
 82 80 l 1
245 32 m 1
 245 32 l 1
 245 -32 l 1
 203 -32 l 1
 203 32 l 1
 245 32 l 1
EndSplineSet
EndChar

StartChar: ion-android-sync
Encoding: 117 62385 116
Width: 320
LayerCount: 2
Fore
SplineSet
160 355 m 1
 248 355 320 282 320 192 c 0
 320 160 311 130 295 105 c 1
 266 135 l 1
 275 152 280 172 280 192 c 0
 280 259 226 314 160 314 c 1
 160 253 l 1
 80 335 l 1
 160 416 l 1
 160 355 l 1
160 70 m 1
 160 131 l 1
 240 49 l 1
 160 -32 l 1
 160 29 l 1
 72 29 0 102 0 192 c 0
 0 224 9 255 25 279 c 1
 54 249 l 1
 45 232 40 212 40 192 c 0
 40 125 94 70 160 70 c 1
EndSplineSet
EndChar

StartChar: ion-android-textsms
Encoding: 118 62386 117
Width: 384
LayerCount: 2
Fore
SplineSet
344 384 m 2
 366 384 384 366 384 344 c 2
 384 104 l 2
 384 82 366 64 344 64 c 2
 64 64 l 1
 0 0 l 1
 0 344 l 2
 0 366 10 384 32 384 c 2
 344 384 l 2
134 206 m 1
 134 246 l 1
 96 246 l 1
 96 206 l 1
 134 206 l 1
211 206 m 1
 211 246 l 1
 173 246 l 1
 173 206 l 1
 211 206 l 1
288 206 m 1
 288 246 l 1
 250 246 l 1
 250 206 l 1
 288 206 l 1
EndSplineSet
EndChar

StartChar: ion-android-time
Encoding: 119 62387 118
Width: 426
LayerCount: 2
Fore
SplineSet
213 405 m 0
 330 405 426 309 426 192 c 0
 426 75 331 -21 213 -21 c 0
 95 -21 0 75 0 192 c 0
 0 309 95 405 213 405 c 0
213 22 m 0
 307 22 383 98 383 192 c 0
 383 286 307 362 213 362 c 0
 119 362 43 286 43 192 c 0
 43 98 119 22 213 22 c 0
224 298 m 1
 224 187 l 1
 320 130 l 1
 304 104 l 1
 192 171 l 1
 192 298 l 1
 224 298 l 1
EndSplineSet
EndChar

StartChar: ion-android-train
Encoding: 120 62388 119
Width: 352
LayerCount: 2
Fore
SplineSet
0 101 m 2
 0 315 l 2
 0 390 82 400 176 400 c 0
 270 400 352 390 352 315 c 2
 352 101 l 2
 352 59 319 27 277 27 c 1
 304 0 l 1
 304 -16 l 1
 48 -16 l 1
 48 0 l 1
 75 27 l 1
 33 27 0 59 0 101 c 2
176 72 m 0
 198 72 216 90 216 112 c 0
 216 134 198 152 176 152 c 0
 154 152 136 134 136 112 c 0
 136 90 154 72 176 72 c 0
304 224 m 1
 304 320 l 1
 48 320 l 1
 48 224 l 1
 304 224 l 1
EndSplineSet
EndChar

StartChar: ion-android-unlock
Encoding: 121 62389 120
Width: 320
LayerCount: 2
Fore
SplineSet
280 262 m 2
 302 262 320 244 320 222 c 2
 320 22 l 2
 320 0 302 -18 280 -18 c 2
 40 -18 l 2
 18 -18 0 0 0 22 c 2
 0 222 l 2
 0 244 18 262 40 262 c 2
 222 262 l 1
 222 302 l 1
 222 302 l 1
 222 336 194 364 160 364 c 0
 126 364 98 336 98 302 c 1
 60 302 l 1
 60 357 105 402 160 402 c 0
 215 402 260 357 260 302 c 2
 260 262 l 1
 280 262 l 2
160 80 m 0
 182 80 200 98 200 120 c 0
 200 142 182 160 160 160 c 0
 138 160 120 142 120 120 c 0
 120 98 138 80 160 80 c 0
EndSplineSet
EndChar

StartChar: ion-android-upload
Encoding: 122 62390 121
Width: 480
LayerCount: 2
Fore
SplineSet
387 231 m 1
 439 228 480 185 480 132 c 0
 480 77 435 32 380 32 c 2
 120 32 l 2
 54 32 0 86 0 152 c 0
 0 214 47 265 107 271 c 1
 132 319 182 352 240 352 c 0
 313 352 373 300 387 231 c 1
272 172 m 1
 340 172 l 1
 240 272 l 1
 140 172 l 1
 208 172 l 1
 208 96 l 1
 272 96 l 1
 272 172 l 1
EndSplineSet
EndChar

StartChar: ion-android-volume-down
Encoding: 123 62391 122
Width: 288
LayerCount: 2
Fore
SplineSet
0 256 m 1
 85 256 l 1
 192 368 l 1
 192 16 l 1
 85 128 l 1
 0 128 l 1
 0 256 l 1
288 192 m 0
 288 154 267 119 235 104 c 1
 235 281 l 1
 267 265 288 230 288 192 c 0
EndSplineSet
EndChar

StartChar: ion-android-volume-mute
Encoding: 124 62392 123
Width: 192
LayerCount: 2
Fore
SplineSet
0 256 m 1
 85 256 l 1
 192 368 l 1
 192 16 l 1
 85 128 l 1
 0 128 l 1
 0 256 l 1
EndSplineSet
EndChar

StartChar: ion-android-volume-off
Encoding: 125 62393 124
Width: 384
LayerCount: 2
Fore
SplineSet
342 192 m 0
 342 261 297 320 235 339 c 1
 235 384 l 1
 320 364 384 285 384 192 c 0
 384 157 376 124 360 96 c 1
 328 128 l 1
 337 147 342 169 342 192 c 0
192 368 m 1
 192 264 l 1
 141 315 l 1
 192 368 l 1
357 51 m 1
 357 51 l 1
 381 27 l 1
 357 3 l 1
 317 43 l 1
 294 22 266 7 235 0 c 1
 235 45 l 1
 254 51 272 60 287 73 c 1
 192 168 l 1
 192 16 l 1
 85 128 l 1
 0 128 l 1
 0 256 l 1
 85 256 l 1
 94 266 l 1
 3 357 l 1
 27 381 l 1
 357 51 l 1
288 192 m 0
 288 185 288 177 286 170 c 1
 235 221 l 1
 235 281 l 1
 267 265 288 230 288 192 c 0
EndSplineSet
EndChar

StartChar: ion-android-volume-up
Encoding: 126 62394 125
Width: 384
LayerCount: 2
Fore
SplineSet
0 256 m 1
 85 256 l 1
 192 368 l 1
 192 16 l 1
 85 128 l 1
 0 128 l 1
 0 256 l 1
288 192 m 0
 288 154 267 119 235 104 c 1
 235 281 l 1
 267 265 288 230 288 192 c 0
235 384 m 1
 320 364 384 285 384 192 c 0
 384 99 320 20 235 0 c 1
 235 45 l 1
 297 64 341 123 341 192 c 0
 341 261 297 320 235 339 c 1
 235 384 l 1
EndSplineSet
EndChar

StartChar: ion-android-walk
Encoding: 127 62395 126
Width: 272
LayerCount: 2
Fore
SplineSet
168 336 m 0
 146 336 128 354 128 376 c 0
 128 398 146 416 168 416 c 0
 190 416 208 398 208 376 c 0
 208 354 190 336 168 336 c 0
168 216 m 1
 148 254 l 1
 128 192 l 1
 185 96 l 1
 185 -32 l 1
 147 -32 l 1
 147 64 l 1
 97 132 l 1
 40 -32 l 1
 0 -32 l 1
 81 288 l 1
 40 272 l 1
 40 192 l 1
 0 192 l 1
 0 304 l 1
 111 342 l 2
 115 343 121 343 124 343 c 0
 137 343 147 337 155 325 c 2
 200 256 l 1
 272 256 l 1
 272 216 l 1
 168 216 l 1
EndSplineSet
EndChar

StartChar: ion-android-warning
Encoding: 128 62396 127
Width: 448
LayerCount: 2
Fore
SplineSet
0 -16 m 1
 224 400 l 1
 448 -16 l 1
 0 -16 l 1
248 48 m 1
 248 96 l 1
 200 96 l 1
 200 48 l 1
 248 48 l 1
248 128 m 1
 248 224 l 1
 200 224 l 1
 200 128 l 1
 248 128 l 1
EndSplineSet
EndChar

StartChar: ion-android-watch
Encoding: 129 62397 128
Width: 320
LayerCount: 2
Fore
SplineSet
320 192 m 0
 320 141 296 96 259 67 c 1
 240 -48 l 1
 80 -48 l 1
 61 67 l 1
 24 96 0 141 0 192 c 0
 0 243 24 288 61 317 c 1
 80 432 l 1
 240 432 l 1
 259 317 l 1
 296 288 320 243 320 192 c 0
40 192 m 0
 40 126 94 72 160 72 c 0
 226 72 280 126 280 192 c 0
 280 258 226 312 160 312 c 0
 94 312 40 258 40 192 c 0
EndSplineSet
EndChar

StartChar: ion-android-wifi
Encoding: 130 62213 129
Width: 416
LayerCount: 2
Fore
SplineSet
208 219 m 0
 231 219 250 201 250 178 c 0
 250 155 231 137 208 137 c 0
 185 137 166 155 166 178 c 0
 166 201 185 219 208 219 c 0
333 178 m 0
 333 133 307 93 270 71 c 1
 250 107 l 1
 275 121 291 147 291 178 c 0
 291 223 254 260 208 260 c 0
 162 260 125 223 125 178 c 0
 125 147 141 121 166 107 c 1
 146 71 l 1
 109 93 83 133 83 178 c 0
 83 246 139 302 208 302 c 0
 277 302 333 246 333 178 c 0
208 384 m 0
 322 384 416 291 416 178 c 0
 416 102 374 36 312 0 c 1
 291 36 l 1
 341 64 374 117 374 178 c 0
 374 269 300 343 208 343 c 0
 116 343 42 269 42 178 c 0
 42 117 75 65 125 36 c 1
 104 0 l 1
 42 36 0 102 0 178 c 0
 0 291 94 384 208 384 c 0
EndSplineSet
EndChar

StartChar: ion-aperture
Encoding: 131 62227 130
Width: 448
LayerCount: 2
Fore
SplineSet
224 416 m 0
 348 416 448 316 448 192 c 0
 448 68 348 -32 224 -32 c 0
 100 -32 0 68 0 192 c 0
 0 316 100 416 224 416 c 0
360 56 m 0
 396 92 416 141 416 192 c 0
 416 243 396 292 360 328 c 0
 324 364 275 384 224 384 c 0
 173 384 124 364 88 328 c 0
 52 292 32 243 32 192 c 0
 32 141 52 92 88 56 c 0
 124 20 173 0 224 0 c 0
 275 0 324 20 360 56 c 0
168 342 m 1
 224 256 l 1
 77 256 l 1
 94 296 127 327 168 342 c 1
381 160 m 1
 279 160 l 1
 351 289 l 1
 372 262 384 229 384 192 c 0
 384 181 383 170 381 160 c 1
328 314 m 1
 279 224 l 1
 201 350 l 1
 209 351 216 352 224 352 c 0
 264 352 300 338 328 314 c 1
67 224 m 1
 169 224 l 1
 97 95 l 1
 76 122 64 155 64 192 c 0
 64 203 65 214 67 224 c 1
280 42 m 1
 224 128 l 1
 371 128 l 1
 354 88 321 57 280 42 c 1
120 70 m 1
 169 160 l 1
 247 34 l 1
 239 33 232 32 224 32 c 0
 184 32 148 46 120 70 c 1
EndSplineSet
EndChar

StartChar: ion-archive
Encoding: 132 61698 131
Width: 448
LayerCount: 2
Fore
SplineSet
224 140 m 1
 96 256 l 1
 176 256 l 1
 176 352 l 1
 272 352 l 1
 272 256 l 1
 352 256 l 1
 224 140 l 1
433 151 m 1
 444 145 450 132 448 119 c 2
 439 52 l 2
 437 39 430 32 411 32 c 2
 37 32 l 2
 19 32 11 39 9 52 c 2
 0 119 l 2
 -2 132 3 145 14 151 c 1
 86 206 l 1
 128 206 l 1
 66 144 l 1
 116 144 l 2
 118 144 121 143 122 141 c 2
 140 96 l 1
 308 96 l 1
 326 141 l 2
 327 143 329 144 331 144 c 2
 382 144 l 1
 320 206 l 1
 362 206 l 1
 433 151 l 1
EndSplineSet
EndChar

StartChar: ion-arrow-down-a
Encoding: 133 61699 132
Width: 384
LayerCount: 2
Fore
SplineSet
192 -0 m 1
 0 192 l 1
 112 192 l 1
 112 384 l 1
 272 384 l 1
 272 192 l 1
 384 192 l 1
 192 -0 l 1
EndSplineSet
EndChar

StartChar: ion-arrow-down-b
Encoding: 134 61700 133
Width: 320
LayerCount: 2
Fore
SplineSet
3 263 m 2
 1 265 0 269 0 272 c 0
 0 281 8 288 17 288 c 1
 17 288 l 1
 303 288 l 1
 303 288 l 1
 312 288 320 281 320 272 c 0
 320 269 319 266 317 264 c 2
 315 261 l 1
 179 105 l 2
 174 100 168 96 160 96 c 0
 152 96 146 100 141 105 c 2
 5 261 l 1
 3 263 l 2
EndSplineSet
EndChar

StartChar: ion-arrow-down-c
Encoding: 135 61701 134
Width: 274
LayerCount: 2
Fore
SplineSet
265 125 m 2
 160 25 l 2
 154 19 146 16 137 16 c 0
 128 16 121 19 115 25 c 2
 9 125 l 2
 -3 137 -3 156 9 168 c 0
 21 180 43 180 55 168 c 2
 105 120 l 1
 105 337 l 2
 105 354 119 368 137 368 c 0
 155 368 169 354 169 337 c 2
 169 120 l 1
 219 168 l 2
 231 180 253 180 265 168 c 0
 277 156 277 137 265 125 c 2
EndSplineSet
EndChar

StartChar: ion-arrow-expand
Encoding: 136 62046 135
Width: 320
LayerCount: 2
Fore
SplineSet
178 238 m 1
 242 302 l 1
 192 352 l 1
 320 352 l 1
 320 224 l 1
 270 274 l 1
 206 210 l 1
 178 238 l 1
178 146 m 1
 206 174 l 1
 270 110 l 1
 320 160 l 1
 320 32 l 1
 192 32 l 1
 242 82 l 1
 178 146 l 1
142 146 m 1
 78 82 l 1
 128 32 l 1
 0 32 l 1
 0 160 l 1
 50 110 l 1
 114 174 l 1
 142 146 l 1
142 238 m 1
 114 210 l 1
 50 274 l 1
 0 224 l 1
 0 352 l 1
 128 352 l 1
 78 302 l 1
 142 238 l 1
EndSplineSet
EndChar

StartChar: ion-arrow-graph-down-left
Encoding: 137 62047 136
Width: 448
LayerCount: 2
Fore
SplineSet
0 64 m 1
 0 224 l 1
 61 163 l 1
 192 304 l 1
 299 192 l 1
 448 320 l 1
 299 117 l 1
 192 224 l 1
 98 126 l 1
 160 64 l 1
 0 64 l 1
EndSplineSet
EndChar

StartChar: ion-arrow-graph-down-right
Encoding: 138 62048 137
Width: 448
LayerCount: 2
Fore
SplineSet
288 64 m 1
 350 126 l 1
 256 224 l 1
 149 117 l 1
 0 320 l 1
 149 192 l 1
 256 304 l 1
 387 163 l 1
 448 224 l 1
 448 64 l 1
 288 64 l 1
EndSplineSet
EndChar

StartChar: ion-arrow-graph-up-left
Encoding: 139 62049 138
Width: 448
LayerCount: 2
Fore
SplineSet
160 320 m 1
 98 258 l 1
 192 160 l 1
 299 267 l 1
 448 64 l 1
 299 192 l 1
 192 80 l 1
 61 221 l 1
 0 160 l 1
 0 320 l 1
 160 320 l 1
EndSplineSet
EndChar

StartChar: ion-arrow-graph-up-right
Encoding: 140 62050 139
Width: 448
LayerCount: 2
Fore
SplineSet
288 320 m 1
 448 320 l 1
 448 160 l 1
 387 221 l 1
 256 80 l 1
 149 192 l 1
 0 64 l 1
 149 267 l 1
 256 160 l 1
 350 258 l 1
 288 320 l 1
EndSplineSet
EndChar

StartChar: ion-arrow-left-a
Encoding: 141 61702 140
Width: 384
LayerCount: 2
Fore
SplineSet
0 192 m 1
 192 384 l 1
 192 272 l 1
 384 272 l 1
 384 112 l 1
 192 112 l 1
 192 0 l 1
 0 192 l 1
EndSplineSet
EndChar

StartChar: ion-arrow-left-b
Encoding: 142 61703 141
Width: 192
LayerCount: 2
Fore
SplineSet
167 349 m 2
 169 351 173 352 176 352 c 0
 185 352 192 344 192 335 c 1
 192 335 l 1
 192 49 l 1
 192 49 l 1
 192 40 185 32 176 32 c 0
 173 32 169 33 167 35 c 2
 165 37 l 1
 9 173 l 2
 4 178 0 184 0 192 c 0
 0 200 4 206 9 211 c 2
 165 347 l 1
 167 349 l 2
EndSplineSet
EndChar

StartChar: ion-arrow-left-c
Encoding: 143 61704 142
Width: 352
LayerCount: 2
Fore
SplineSet
109 320 m 2
 121 332 141 332 153 320 c 0
 165 308 165 286 153 274 c 2
 104 224 l 1
 321 224 l 2
 338 224 352 210 352 192 c 0
 352 174 338 160 321 160 c 2
 104 160 l 1
 152 110 l 2
 164 98 164 76 152 64 c 0
 140 52 121 52 109 64 c 2
 9 170 l 2
 3 176 0 183 0 192 c 0
 0 201 3 209 9 215 c 2
 109 320 l 2
EndSplineSet
EndChar

StartChar: ion-arrow-move
Encoding: 144 62051 143
Width: 448
LayerCount: 2
Fore
SplineSet
448 192 m 1
 352 96 l 1
 352 172 l 1
 243 172 l 1
 244 64 l 1
 320 64 l 1
 224 -32 l 1
 128 64 l 1
 204 64 l 1
 204 172 l 1
 96 172 l 1
 96 96 l 1
 0 192 l 1
 96 288 l 1
 96 212 l 1
 204 212 l 1
 204 320 l 1
 128 320 l 1
 224 416 l 1
 320 320 l 1
 244 320 l 1
 244 212 l 1
 352 212 l 1
 352 288 l 1
 448 192 l 1
EndSplineSet
EndChar

StartChar: ion-arrow-resize
Encoding: 145 62052 144
Width: 320
LayerCount: 2
Fore
SplineSet
192 352 m 1
 320 352 l 1
 320 224 l 1
 270 274 l 1
 261 265 l 1
 78 82 l 1
 128 32 l 1
 0 32 l 1
 0 160 l 1
 50 110 l 1
 178 238 l 1
 178 238 l 1
 242 302 l 1
 192 352 l 1
EndSplineSet
EndChar

StartChar: ion-arrow-return-left
Encoding: 146 62053 145
Width: 384
LayerCount: 2
Fore
SplineSet
128 352 m 1
 128 288 l 1
 376 288 l 2
 380 288 384 284 384 280 c 2
 384 40 l 2
 384 36 380 32 376 32 c 2
 72 32 l 2
 68 32 64 36 64 40 c 2
 64 88 l 2
 64 92 68 96 72 96 c 2
 320 96 l 1
 320 224 l 1
 128 224 l 1
 128 160 l 1
 0 256 l 1
 128 352 l 1
EndSplineSet
EndChar

StartChar: ion-arrow-return-right
Encoding: 147 62054 146
Width: 384
LayerCount: 2
Fore
SplineSet
384 256 m 1
 256 160 l 1
 256 224 l 1
 64 224 l 1
 64 96 l 1
 312 96 l 2
 316 96 320 92 320 88 c 2
 320 40 l 2
 320 36 316 32 312 32 c 2
 8 32 l 2
 4 32 0 36 0 40 c 2
 0 280 l 2
 0 284 4 288 8 288 c 2
 256 288 l 1
 256 352 l 1
 384 256 l 1
EndSplineSet
EndChar

StartChar: ion-arrow-right-a
Encoding: 148 61705 147
Width: 384
LayerCount: 2
Fore
SplineSet
384 192 m 1
 192 0 l 1
 192 112 l 1
 0 112 l 1
 0 272 l 1
 192 272 l 1
 192 384 l 1
 384 192 l 1
EndSplineSet
EndChar

StartChar: ion-arrow-right-b
Encoding: 149 61706 148
Width: 192
LayerCount: 2
Fore
SplineSet
25 35 m 2
 23 33 19 32 16 32 c 0
 7 32 0 40 0 49 c 1
 0 49 l 1
 0 335 l 1
 0 335 l 1
 0 344 7 352 16 352 c 0
 19 352 22 351 24 349 c 2
 27 347 l 1
 183 211 l 2
 188 206 192 200 192 192 c 0
 192 184 188 178 183 173 c 2
 27 37 l 1
 25 35 l 2
EndSplineSet
EndChar

StartChar: ion-arrow-right-c
Encoding: 150 61707 149
Width: 352
LayerCount: 2
Fore
SplineSet
243 320 m 2
 343 215 l 2
 349 209 352 201 352 192 c 0
 352 183 349 176 343 170 c 2
 243 64 l 2
 231 52 212 52 200 64 c 0
 188 76 188 98 200 110 c 2
 248 160 l 1
 31 160 l 2
 14 160 0 174 0 192 c 0
 0 210 14 224 31 224 c 2
 248 224 l 1
 199 274 l 2
 187 286 187 308 199 320 c 0
 211 332 231 332 243 320 c 2
EndSplineSet
EndChar

StartChar: ion-arrow-shrink
Encoding: 151 62055 150
Width: 384
LayerCount: 2
Fore
SplineSet
384 356 m 1
 302 274 l 1
 352 224 l 1
 224 224 l 1
 224 352 l 1
 274 302 l 1
 356 384 l 1
 384 356 l 1
384 28 m 1
 356 0 l 1
 274 82 l 1
 224 32 l 1
 224 160 l 1
 352 160 l 1
 302 110 l 1
 384 28 l 1
0 28 m 1
 82 110 l 1
 32 160 l 1
 160 160 l 1
 160 32 l 1
 110 82 l 1
 28 0 l 1
 0 28 l 1
0 356 m 1
 28 384 l 1
 110 302 l 1
 160 352 l 1
 160 224 l 1
 32 224 l 1
 82 274 l 1
 0 356 l 1
EndSplineSet
EndChar

StartChar: ion-arrow-swap
Encoding: 152 62056 151
Width: 384
LayerCount: 2
Fore
SplineSet
0 120 m 2
 0 124 4 128 8 128 c 2
 256 128 l 1
 256 192 l 1
 384 96 l 1
 256 0 l 1
 256 64 l 1
 8 64 l 2
 4 64 0 68 0 72 c 2
 0 120 l 2
384 264 m 2
 384 260 380 256 376 256 c 2
 128 256 l 1
 128 192 l 1
 0 288 l 1
 128 384 l 1
 128 320 l 1
 376 320 l 2
 380 320 384 316 384 312 c 2
 384 264 l 2
EndSplineSet
EndChar

StartChar: ion-arrow-up-a
Encoding: 153 61708 152
Width: 384
LayerCount: 2
Fore
SplineSet
192 384 m 1
 384 192 l 1
 272 192 l 1
 272 0 l 1
 112 0 l 1
 112 192 l 1
 0 192 l 1
 192 384 l 1
EndSplineSet
EndChar

StartChar: ion-arrow-up-b
Encoding: 154 61709 153
Width: 320
LayerCount: 2
Fore
SplineSet
317 121 m 2
 319 119 320 115 320 112 c 0
 320 103 312 96 303 96 c 1
 303 96 l 1
 17 96 l 1
 17 96 l 1
 8 96 0 103 0 112 c 0
 0 115 1 118 3 120 c 2
 5 123 l 1
 141 279 l 2
 146 284 152 288 160 288 c 0
 168 288 174 284 179 279 c 2
 315 123 l 1
 317 121 l 2
EndSplineSet
EndChar

StartChar: ion-arrow-up-c
Encoding: 155 61710 154
Width: 274
LayerCount: 2
Fore
SplineSet
9 259 m 2
 114 359 l 2
 120 365 128 368 137 368 c 0
 146 368 153 365 159 359 c 2
 265 259 l 2
 277 247 277 228 265 216 c 0
 253 204 231 204 219 216 c 2
 169 264 l 1
 169 47 l 2
 169 30 155 16 137 16 c 0
 119 16 105 30 105 47 c 2
 105 264 l 1
 55 215 l 2
 43 203 21 203 9 215 c 0
 -3 227 -3 247 9 259 c 2
EndSplineSet
EndChar

StartChar: ion-asterisk
Encoding: 156 62228 155
Width: 448
LayerCount: 2
Fore
SplineSet
448 224 m 1
 448 160 l 1
 262 170 l 1
 366 0 l 1
 310 -32 l 1
 224 144 l 1
 138 -32 l 1
 82 0 l 1
 186 170 l 1
 0 160 l 1
 0 224 l 1
 187 217 l 1
 78 384 l 1
 138 416 l 1
 224 240 l 1
 310 416 l 1
 370 384 l 1
 261 217 l 1
 448 224 l 1
EndSplineSet
EndChar

StartChar: ion-at
Encoding: 157 61711 156
Width: 448
LayerCount: 2
Fore
SplineSet
422 41 m 1
 398 16 370 -2 337 -14 c 0
 304 -26 268 -32 232 -32 c 0
 197 -32 166 -26 137 -15 c 0
 108 -4 84 11 64 31 c 0
 44 51 28 74 17 102 c 0
 6 130 0 160 0 192 c 0
 0 224 6 254 18 281 c 0
 30 308 47 332 68 352 c 0
 89 372 114 387 142 399 c 0
 170 410 200 416 232 416 c 0
 260 416 287 412 313 404 c 0
 339 396 362 384 382 368 c 0
 402 352 418 332 430 308 c 0
 442 284 448 255 448 223 c 0
 448 199 445 177 438 159 c 0
 431 141 422 125 411 113 c 0
 400 101 387 91 373 85 c 0
 359 79 344 75 328 75 c 0
 312 75 299 79 289 87 c 0
 279 95 274 104 274 116 c 1
 271 116 l 1
 265 106 256 97 243 88 c 0
 230 79 215 75 197 75 c 0
 169 75 148 84 133 102 c 0
 118 120 110 144 110 173 c 0
 110 190 113 207 119 223 c 0
 125 239 133 254 143 267 c 0
 153 280 166 290 181 298 c 0
 196 306 212 310 230 310 c 0
 245 310 257 306 268 300 c 0
 278 294 286 285 289 276 c 1
 290 276 l 1
 295 300 l 1
 349 300 l 1
 325 187 l 2
 324 181 323 175 322 168 c 0
 321 161 320 155 320 149 c 0
 320 142 321 136 324 131 c 0
 327 126 331 124 339 124 c 0
 355 124 368 133 378 150 c 0
 388 167 394 190 394 218 c 0
 394 242 390 263 382 282 c 0
 374 301 362 316 348 329 c 0
 334 342 316 352 296 358 c 0
 276 364 255 367 231 367 c 0
 205 367 182 363 161 354 c 0
 140 345 122 332 107 316 c 0
 92 300 80 282 72 260 c 0
 64 239 59 216 59 191 c 0
 59 165 63 140 72 119 c 0
 81 98 93 80 109 65 c 0
 125 50 144 38 166 30 c 0
 188 22 212 18 238 18 c 0
 271 18 299 24 323 34 c 0
 347 44 368 59 388 77 c 1
 422 41 l 1
231 260 m 0
 221 260 213 258 206 252 c 0
 199 246 192 239 187 230 c 0
 182 221 179 212 176 202 c 0
 173 192 172 182 172 172 c 0
 172 167 172 162 173 156 c 0
 174 151 176 146 179 141 c 0
 182 136 186 133 191 130 c 0
 196 127 202 125 210 125 c 0
 221 125 230 128 238 133 c 0
 246 138 252 146 257 154 c 0
 262 162 266 170 268 180 c 0
 270 190 271 199 271 207 c 0
 271 213 271 220 270 226 c 0
 269 232 266 238 263 243 c 0
 260 248 256 252 251 255 c 0
 246 258 239 260 231 260 c 0
EndSplineSet
EndChar

StartChar: ion-backspace-outline
Encoding: 158 62398 157
Width: 512
LayerCount: 2
Fore
SplineSet
413 116 m 2
 415 114 416 112 416 110 c 0
 416 108 415 106 413 104 c 2
 392 82 l 2
 390 80 388 80 386 80 c 0
 384 80 382 80 380 82 c 2
 304 159 l 1
 228 82 l 2
 226 80 224 80 222 80 c 0
 220 80 218 80 216 82 c 2
 195 104 l 2
 193 106 192 108 192 110 c 0
 192 112 193 114 195 116 c 2
 271 192 l 1
 194 268 l 2
 191 271 191 277 194 280 c 2
 216 302 l 2
 218 304 220 304 222 304 c 0
 224 304 226 304 228 302 c 2
 304 226 l 1
 380 302 l 2
 382 304 384 304 386 304 c 0
 388 304 390 304 392 302 c 2
 414 280 l 2
 417 277 417 271 414 268 c 2
 337 192 l 1
 413 116 l 2
499 354 m 0
 508 345 512 334 512 321 c 2
 512 65 l 2
 512 38 492 16 466 16 c 2
 168 16 l 2
 155 16 144 19 134 25 c 0
 125 30 118 36 111 45 c 1
 111 45 l 1
 110 46 l 1
 0 192 l 1
 110 340 l 2
 124 359 144 368 168 368 c 2
 466 368 l 2
 479 368 490 363 499 354 c 0
480 65 m 2
 480 321 l 2
 480 330 475 336 466 336 c 2
 168 336 l 2
 157 336 146 333 136 320 c 2
 40 192 l 1
 136 64 l 2
 144 54 153 48 168 48 c 2
 466 48 l 2
 475 48 480 56 480 65 c 2
EndSplineSet
EndChar

StartChar: ion-backspace
Encoding: 159 62399 158
Width: 512
LayerCount: 2
Fore
SplineSet
499 354 m 0
 508 345 512 334 512 321 c 2
 512 65 l 2
 512 38 492 16 466 16 c 2
 168 16 l 2
 155 16 144 19 134 25 c 0
 125 30 118 36 111 45 c 1
 111 45 l 1
 110 46 l 1
 0 192 l 1
 110 340 l 2
 124 359 144 368 168 368 c 2
 466 368 l 2
 479 368 490 363 499 354 c 0
413 116 m 2
 337 192 l 1
 414 268 l 2
 417 271 417 277 414 280 c 2
 392 302 l 2
 390 304 388 304 386 304 c 0
 384 304 382 304 380 302 c 2
 304 226 l 1
 228 302 l 2
 226 304 224 304 222 304 c 0
 220 304 218 304 216 302 c 2
 194 280 l 2
 191 277 191 271 194 268 c 2
 271 192 l 1
 195 116 l 2
 193 114 192 112 192 110 c 0
 192 108 193 106 195 104 c 2
 216 82 l 2
 218 80 220 80 222 80 c 0
 224 80 226 80 228 82 c 2
 304 159 l 1
 380 82 l 2
 382 80 384 80 386 80 c 0
 388 80 390 80 392 82 c 2
 413 104 l 2
 415 106 416 108 416 110 c 0
 416 112 415 114 413 116 c 2
EndSplineSet
EndChar

StartChar: ion-bag
Encoding: 160 61712 159
Width: 448
LayerCount: 2
Fore
SplineSet
416 288 m 1
 448 -32 l 1
 0 -32 l 1
 32 288 l 1
 96 288 l 1
 96 292 l 2
 96 360 152 416 220 416 c 2
 228 416 l 2
 296 416 352 360 352 292 c 2
 352 288 l 1
 416 288 l 1
128 292 m 2
 128 288 l 1
 320 288 l 1
 320 292 l 2
 320 343 279 384 228 384 c 1
 228 384 l 1
 220 384 l 2
 169 384 128 343 128 292 c 2
36 0 m 1
 412 0 l 1
 387 256 l 1
 352 256 l 1
 352 220 l 1
 362 214 368 204 368 192 c 0
 368 174 354 160 336 160 c 0
 318 160 304 174 304 192 c 0
 304 204 310 214 320 220 c 1
 320 256 l 1
 128 256 l 1
 128 220 l 1
 138 214 144 204 144 192 c 0
 144 174 130 160 112 160 c 0
 94 160 80 174 80 192 c 0
 80 204 86 214 96 220 c 1
 96 256 l 1
 61 256 l 1
 36 0 l 1
EndSplineSet
EndChar

StartChar: ion-battery-charging
Encoding: 161 61713 160
Width: 448
LayerCount: 2
Fore
SplineSet
10 64 m 2
 4 64 0 68 0 74 c 2
 0 310 l 2
 0 316 4 320 10 320 c 2
 391 320 l 2
 397 320 401 316 401 310 c 2
 401 256 l 1
 438 256 l 2
 444 256 448 252 448 246 c 2
 448 138 l 2
 448 132 444 128 438 128 c 2
 401 128 l 1
 401 74 l 2
 401 68 397 64 391 64 c 2
 10 64 l 2
225 288 m 1
 125 177 l 1
 186 177 l 1
 159 96 l 1
 259 207 l 1
 198 207 l 1
 225 288 l 1
EndSplineSet
EndChar

StartChar: ion-battery-empty
Encoding: 162 61714 161
Width: 448
LayerCount: 2
Fore
SplineSet
438 256 m 2
 444 256 448 252 448 246 c 2
 448 138 l 2
 448 132 444 128 438 128 c 2
 401 128 l 1
 401 74 l 2
 401 68 397 64 391 64 c 2
 10 64 l 2
 4 64 0 68 0 74 c 2
 0 310 l 2
 0 316 4 320 10 320 c 2
 391 320 l 2
 397 320 401 316 401 310 c 2
 401 256 l 1
 438 256 l 2
416 160 m 1
 416 224 l 1
 401 224 l 1
 369 224 l 1
 369 256 l 1
 369 288 l 1
 32 288 l 1
 32 96 l 1
 369 96 l 1
 369 128 l 1
 369 160 l 1
 401 160 l 1
 416 160 l 1
EndSplineSet
EndChar

StartChar: ion-battery-full
Encoding: 163 61715 162
Width: 448
LayerCount: 2
Fore
SplineSet
438 256 m 2
 444 256 448 252 448 246 c 2
 448 138 l 2
 448 132 444 128 438 128 c 2
 401 128 l 1
 401 74 l 2
 401 68 397 64 391 64 c 2
 10 64 l 2
 4 64 0 68 0 74 c 2
 0 310 l 2
 0 316 4 320 10 320 c 2
 391 320 l 2
 397 320 401 316 401 310 c 2
 401 256 l 1
 438 256 l 2
EndSplineSet
EndChar

StartChar: ion-battery-half
Encoding: 164 61716 163
Width: 448
LayerCount: 2
Fore
SplineSet
438 256 m 2
 444 256 448 252 448 246 c 2
 448 138 l 2
 448 132 444 128 438 128 c 2
 401 128 l 1
 401 74 l 2
 401 68 397 64 391 64 c 2
 10 64 l 2
 4 64 0 68 0 74 c 2
 0 310 l 2
 0 316 4 320 10 320 c 2
 391 320 l 2
 397 320 401 316 401 310 c 2
 401 256 l 1
 438 256 l 2
416 160 m 1
 416 224 l 1
 401 224 l 1
 369 224 l 1
 369 256 l 1
 369 288 l 1
 288 288 l 1
 320 96 l 1
 369 96 l 1
 369 128 l 1
 369 160 l 1
 401 160 l 1
 416 160 l 1
EndSplineSet
EndChar

StartChar: ion-battery-low
Encoding: 165 61717 164
Width: 448
LayerCount: 2
Fore
SplineSet
10 64 m 2
 4 64 0 68 0 74 c 2
 0 310 l 2
 0 316 4 320 10 320 c 2
 391 320 l 2
 397 320 401 316 401 310 c 2
 401 256 l 1
 438 256 l 2
 444 256 448 252 448 246 c 2
 448 138 l 2
 448 132 444 128 438 128 c 2
 401 128 l 1
 401 74 l 2
 401 68 397 64 391 64 c 2
 10 64 l 2
369 288 m 1
 160 288 l 1
 192 96 l 1
 369 96 l 1
 369 128 l 1
 369 160 l 1
 401 160 l 1
 416 160 l 1
 416 224 l 1
 401 224 l 1
 369 224 l 1
 369 256 l 1
 369 288 l 1
EndSplineSet
EndChar

StartChar: ion-beaker
Encoding: 166 62057 165
Width: 384
LayerCount: 2
Fore
SplineSet
80 256 m 1
 320 256 l 1
 320 32 l 2
 320 23 313 16 304 16 c 2
 96 16 l 2
 87 16 80 23 80 32 c 2
 80 256 l 1
296 104 m 2
 296 152 l 2
 296 156 292 160 288 160 c 0
 284 160 280 156 280 152 c 2
 280 104 l 2
 280 100 284 96 288 96 c 0
 292 96 296 100 296 104 c 2
288 176 m 0
 292 176 296 180 296 184 c 0
 296 188 292 192 288 192 c 0
 284 192 280 188 280 184 c 0
 280 180 284 176 288 176 c 0
381 416 m 2
 384 416 384 414 384 413 c 0
 384 412 382 410 381 408 c 0
 380 406 368 388 368 368 c 2
 368 32 l 2
 368 -3 339 -32 304 -32 c 2
 96 -32 l 2
 61 -32 32 -3 32 32 c 2
 32 339 l 2
 32 371 30 372 0 376 c 1
 0 388 11 416 65 416 c 2
 381 416 l 2
336 368 m 2
 336 373 336 384 337 384 c 2
 64 384 l 2
 63 384 61 384 60 383 c 1
 65 376 64 351 64 339 c 2
 64 32 l 2
 64 14 78 0 96 0 c 2
 306 0 l 2
 323 0 336 14 336 32 c 2
 336 368 l 2
EndSplineSet
EndChar

StartChar: ion-beer
Encoding: 167 62058 166
Width: 448
LayerCount: 2
Fore
SplineSet
384 288 m 2
 419 288 448 259 448 224 c 2
 448 128 l 2
 448 93 419 64 384 64 c 2
 352 64 l 1
 352 -16 l 2
 352 -25 345 -32 336 -32 c 2
 80 -32 l 2
 71 -32 64 -25 64 -16 c 2
 64 207 l 1
 38 207 16 229 16 255 c 2
 16 309 l 1
 16 310 l 1
 6 321 0 336 0 352 c 0
 0 387 29 416 64 416 c 0
 82 416 98 408 110 396 c 1
 120 408 136 416 153 416 c 0
 167 416 180 410 190 402 c 1
 202 411 216 416 232 416 c 0
 249 416 266 410 278 400 c 1
 289 410 304 416 320 416 c 0
 355 416 384 387 384 352 c 0
 384 328 366 308 352 304 c 1
 352 288 l 1
 384 288 l 2
296 144 m 0
 300 144 304 147 304 152 c 1
 304 152 l 1
 304 200 l 2
 304 204 300 208 296 208 c 0
 292 208 288 204 288 200 c 2
 288 152 l 2
 288 149 290 146 292 145 c 0
 293 144 294 144 296 144 c 0
303 220 m 0
 304 222 304 224 304 226 c 0
 304 228 303 230 301 231 c 0
 299 232 297 232 295 232 c 0
 293 232 291 230 290 228 c 0
 289 226 288 224 288 222 c 0
 288 220 290 218 292 217 c 0
 294 216 296 216 298 216 c 0
 300 216 302 218 303 220 c 0
320 288 m 1
 320 320 l 1
 300 320 l 1
 297 312 293 304 287 297 c 0
 274 281 254 272 232 272 c 0
 206 272 184 285 171 305 c 1
 165 303 159 302 153 302 c 0
 141 302 130 306 121 312 c 0
 119 313 118 315 116 316 c 1
 115 314 114 313 113 311 c 0
 108 305 102 301 96 297 c 1
 96 265 l 1
 96 256 l 1
 176 256 l 1
 176 260 180 264 184 264 c 0
 188 264 192 260 192 256 c 1
 320 256 l 1
 320 288 l 1
351 343 m 1
 352 346 352 349 352 352 c 0
 352 370 338 384 320 384 c 0
 311 384 303 380 297 374 c 0
 295 372 291 369 281 368 c 1
 273 368 l 1
 267 369 261 371 259 373 c 0
 252 380 243 384 232 384 c 0
 223 384 214 380 207 375 c 1
 200 368 l 2
 200 367 200 367 199 366 c 0
 196 363 192 361 188 361 c 0
 183 361 180 364 177 367 c 0
 176 369 175 370 174 372 c 0
 173 374 171 376 169 378 c 0
 165 382 159 384 153 384 c 0
 143 384 135 375 128 368 c 0
 121 360 101 360 94 368 c 0
 87 376 76 384 64 384 c 0
 46 384 32 370 32 352 c 0
 32 350 33 347 33 345 c 0
 35 336 40 328 48 324 c 1
 48 290 l 1
 48 255 l 2
 48 246 55 239 64 239 c 1
 64 265 l 1
 64 288 l 1
 64 320 l 1
 74 320 82 324 88 331 c 0
 90 333 91 335 92 337 c 2
 92 337 98 347 104 348 c 0
 110 349 124 354 134 343 c 0
 138 338 145 334 153 334 c 0
 156 334 158 335 160 336 c 0
 163 337 167 338 169 340 c 1
 169 340 l 1
 172 342 175 344 179 344 c 0
 186 344 191 340 193 334 c 2
 193 334 194 333 194 332 c 0
 195 329 195 327 197 324 c 0
 204 312 217 304 232 304 c 0
 245 304 257 310 264 320 c 0
 269 327 272 335 272 344 c 0
 272 353 281 352 281 352 c 1
 288 352 l 1
 336 352 l 2
 342 352 349 349 351 343 c 1
416 128 m 2
 416 224 l 2
 416 242 402 256 384 256 c 2
 352 256 l 1
 352 96 l 1
 384 96 l 2
 402 96 416 110 416 128 c 2
128 280 m 0
 128 285 131 288 136 288 c 0
 141 288 144 285 144 280 c 0
 144 275 141 272 136 272 c 0
 131 272 128 275 128 280 c 0
288 280 m 0
 288 285 291 288 296 288 c 0
 301 288 304 285 304 280 c 0
 304 275 301 272 296 272 c 0
 291 272 288 275 288 280 c 0
EndSplineSet
EndChar

StartChar: ion-bluetooth
Encoding: 168 61718 167
Width: 256
LayerCount: 2
Fore
SplineSet
12 304 m 0
 28 320 30 317 31 316 c 2
 99 251 l 1
 99 251 l 1
 99 251 l 1
 101 249 109 241 109 248 c 2
 109 404 l 1
 109 404 l 1
 109 406 l 2
 109 412 115 416 121 416 c 0
 125 416 128 414 130 412 c 1
 130 412 l 1
 130 412 247 299 252 295 c 0
 257 291 257 285 253 281 c 2
 169 200 l 1
 169 200 165 196 165 192 c 0
 165 188 169 184 169 184 c 1
 253 103 l 2
 257 99 257 93 252 89 c 0
 247 85 130 -28 130 -28 c 1
 130 -28 l 1
 128 -30 125 -32 121 -32 c 0
 115 -32 109 -28 109 -22 c 2
 109 -20 l 1
 109 -20 l 1
 109 136 l 1
 109 136 101 135 99 133 c 1
 99 133 l 1
 99 132 l 1
 31 68 l 2
 30 67 28 64 12 80 c 0
 -4 96 0 97 1 98 c 0
 2 99 91 184 91 184 c 1
 91 184 95 187 95 192 c 1
 95 192 l 1
 95 197 91 200 91 200 c 1
 91 200 2 285 1 286 c 0
 0 287 -4 288 12 304 c 0
152 328 m 2
 152 249 l 2
 152 241 160 248 162 250 c 2
 192 280 l 1
 192 280 195 285 195 287 c 0
 195 289 194 292 192 294 c 2
 162 324 l 2
 160 326 152 335 152 328 c 2
152 135 m 2
 152 56 l 1
 152 56 160 58 162 60 c 2
 192 90 l 2
 194 92 195 95 195 97 c 0
 195 99 194 102 192 104 c 2
 162 134 l 2
 160 136 152 143 152 135 c 2
EndSplineSet
EndChar

StartChar: ion-bonfire
Encoding: 169 62229 168
Width: 384
LayerCount: 2
Fore
SplineSet
207 97 m 2
 222 8 l 2
 223 5 223 3 223 0 c 0
 223 -18 209 -32 191 -32 c 0
 173 -32 159 -18 159 0 c 0
 159 2 159 5 160 7 c 2
 175 99 l 1
 175 99 l 1
 177 106 183 112 191 112 c 0
 199 112 206 105 207 97 c 2
242 93 m 1
 242 93 l 1
 242 93 l 1
 242 93 l 1
329 58 m 0
 338 50 339 33 329 23 c 0
 319 13 302 14 294 23 c 0
 293 24 292 26 291 27 c 2
 242 93 l 2
 239 98 240 104 244 108 c 0
 249 113 254 113 260 109 c 2
 324 62 l 2
 326 61 327 59 329 58 c 0
309 113 m 1
 309 113 l 1
 309 113 l 1
 309 113 l 1
371 126 m 2
 380 125 384 119 384 107 c 0
 384 98 374 93 366 95 c 2
 309 113 l 1
 309 113 l 1
 309 113 l 1
 306 115 303 118 304 122 c 0
 305 126 308 129 312 128 c 2
 371 126 l 2
75 113 m 1
 75 113 l 1
 75 113 l 1
 75 113 l 1
75 113 m 1
 75 113 l 1
 17 95 l 2
 9 93 0 98 0 107 c 0
 0 119 3 125 12 126 c 2
 72 128 l 2
 76 129 79 126 80 122 c 0
 81 118 78 115 75 113 c 1
 75 113 l 1
124 109 m 2
 129 113 135 113 140 108 c 0
 144 104 145 98 142 93 c 2
 93 27 l 2
 92 26 91 24 90 23 c 0
 80 13 65 13 55 23 c 0
 45 33 45 48 55 58 c 0
 57 60 58 61 60 62 c 2
 124 109 l 2
288 320 m 0
 288 288 279 262 238 234 c 0
 201 208 144 188 128 128 c 1
 128 128 70 152 80 224 c 0
 90 296 204 330 192 416 c 1
 216 416 288 381 288 320 c 0
288 192 m 0
 272 142 244 128 208 128 c 0
 193 128 176 137 165 154 c 1
 177 169 193 180 212 191 c 0
 221 196 232 201 241 207 c 0
 262 221 279 238 288 256 c 1
 293 241 293 208 288 192 c 0
88 288 m 1
 82 292 79 302 80 315 c 0
 82 337 114 354 112 384 c 1
 126 386 143 381 154 360 c 1
 149 349 139 339 126 326 c 0
 113 313 100 304 88 288 c 1
EndSplineSet
EndChar

StartChar: ion-bookmark
Encoding: 170 62059 169
Width: 192
LayerCount: 2
Fore
SplineSet
184 384 m 2
 188 384 192 380 192 376 c 2
 192 320 l 1
 0 320 l 1
 0 376 l 2
 0 380 4 384 8 384 c 2
 184 384 l 2
0 0 m 1
 0 304 l 1
 192 304 l 1
 192 0 l 1
 96 96 l 1
 0 0 l 1
EndSplineSet
EndChar

StartChar: ion-bowtie
Encoding: 171 62400 170
Width: 448
LayerCount: 2
Fore
SplineSet
192 236 m 1
 192 236 200 241 212 243 c 0
 233 247 251 248 259 234 c 0
 269 217 278 181 276 149 c 0
 275 132 271 127 271 127 c 1
 271 127 256 117 224 120 c 0
 189 123 184 135 184 135 c 1
 184 135 189 147 192 178 c 0
 195 209 192 236 192 236 c 1
152 163 m 0
 135 159 114 153 114 153 c 1
 114 153 159 157 178 162 c 1
 174 141 168 128 168 128 c 1
 168 128 85 48 52 48 c 0
 24 48 0 116 0 192 c 0
 0 268 26 336 52 336 c 0
 87 336 158 279 180 239 c 1
 180 239 183 223 182 207 c 1
 172 212 158 217 138 221 c 0
 110 227 96 224 96 224 c 1
 96 224 114 220 153 207 c 0
 168 202 175 199 182 197 c 1
 182 194 181 190 181 187 c 0
 181 182 181 177 180 172 c 1
 175 170 165 166 152 163 c 0
396 336 m 0
 422 336 448 268 448 192 c 0
 448 116 424 48 396 48 c 0
 359 48 292 116 284 127 c 1
 284 127 288 132 289 149 c 1
 289 158 l 1
 305 151 359 145 359 145 c 1
 359 145 338 151 319 156 c 0
 306 160 294 164 289 166 c 1
 288 177 287 189 285 199 c 1
 302 210 354 233 354 233 c 1
 354 233 339 231 319 224 c 0
 305 219 290 213 282 210 c 1
 279 220 275 228 272 234 c 0
 272 235 271 238 271 238 c 1
 271 239 l 1
 293 279 360 336 396 336 c 0
EndSplineSet
EndChar

StartChar: ion-briefcase
Encoding: 172 62060 171
Width: 448
LayerCount: 2
Fore
SplineSet
240 176 m 1
 240 184 l 1
 448 184 l 1
 448 8 l 2
 448 4 444 0 440 0 c 2
 8 0 l 2
 4 0 0 4 0 8 c 2
 0 184 l 1
 208 184 l 1
 208 176 l 1
 240 176 l 1
440 304 m 2
 444 304 448 300 448 296 c 2
 448 200 l 1
 240 200 l 1
 240 208 l 1
 208 208 l 1
 208 200 l 1
 0 200 l 1
 0 296 l 2
 0 300 4 304 8 304 c 2
 128 304 l 1
 128 335 l 1
 129 363 150 384 179 384 c 2
 269 384 l 2
 299 384 319 363 320 335 c 1
 320 304 l 1
 440 304 l 2
288 332 m 1
 288 333 l 2
 288 343 279 352 269 352 c 2
 179 352 l 2
 169 352 160 343 160 333 c 2
 160 332 l 1
 160 331 l 1
 160 304 l 1
 288 304 l 1
 288 331 l 1
 288 332 l 1
EndSplineSet
EndChar

StartChar: ion-bug
Encoding: 173 62142 172
Width: 448
LayerCount: 2
Fore
SplineSet
343 321 m 1
 337 305 327 290 315 278 c 0
 291 254 258 241 224 241 c 0
 190 241 157 254 133 278 c 0
 121 290 111 305 105 321 c 1
 134 360 177 384 224 384 c 0
 271 384 314 360 343 321 c 1
95 305 m 1
 117 260 163 228 216 225 c 1
 216 0 l 1
 176 2 139 22 112 54 c 1
 105 48 102 45 99 39 c 1
 107 30 106 17 98 8 c 0
 89 -2 74 -3 64 6 c 0
 54 15 53 30 62 40 c 2
 65 43 l 1
 67 44 l 1
 71 57 80 69 94 80 c 1
 79 106 68 137 65 170 c 1
 58 170 53 168 48 167 c 1
 47 154 37 144 24 144 c 0
 11 144 0 155 0 168 c 0
 0 181 11 192 24 192 c 2
 27 192 l 1
 31 194 35 197 39 198 c 0
 46 200 53 202 64 202 c 1
 65 225 70 247 77 267 c 1
 71 271 66 274 62 278 c 0
 56 283 51 291 48 297 c 0
 47 297 45 298 44 299 c 0
 32 305 29 320 35 332 c 0
 41 344 56 347 68 341 c 0
 79 335 83 321 78 310 c 1
 80 307 81 303 82 302 c 0
 84 300 87 299 90 297 c 1
 92 300 93 302 95 305 c 1
424 192 m 2
 437 192 448 181 448 168 c 0
 448 155 437 144 424 144 c 0
 411 144 401 154 400 167 c 1
 395 168 390 170 383 170 c 1
 380 137 369 106 354 80 c 1
 368 69 377 57 381 44 c 1
 381 44 382 44 383 43 c 2
 386 40 l 2
 395 30 394 15 384 6 c 0
 374 -3 359 -2 350 8 c 0
 342 17 341 30 349 39 c 1
 346 45 343 48 336 54 c 1
 309 22 272 2 232 0 c 1
 232 225 l 1
 285 228 331 260 353 305 c 1
 355 302 356 300 358 297 c 1
 361 299 364 300 366 302 c 0
 367 303 368 307 370 310 c 1
 365 321 369 335 380 341 c 0
 392 347 407 344 413 332 c 0
 419 320 416 305 404 299 c 0
 403 298 401 297 400 297 c 0
 397 291 392 283 386 278 c 0
 382 274 377 271 371 267 c 1
 378 247 383 225 384 202 c 1
 395 202 402 200 409 198 c 0
 413 197 417 194 421 192 c 1
 424 192 l 2
EndSplineSet
EndChar

StartChar: ion-calculator
Encoding: 174 62061 173
Width: 320
LayerCount: 2
Fore
SplineSet
304 416 m 2
 313 416 320 409 320 400 c 2
 320 -16 l 2
 320 -25 313 -32 304 -32 c 2
 16 -32 l 2
 7 -32 0 -25 0 -16 c 2
 0 400 l 2
 0 409 7 416 16 416 c 2
 304 416 l 2
48 240 m 1
 48 208 l 1
 80 208 l 1
 80 240 l 1
 48 240 l 1
48 176 m 1
 48 144 l 1
 80 144 l 1
 80 176 l 1
 48 176 l 1
48 112 m 1
 48 80 l 1
 80 80 l 1
 80 112 l 1
 48 112 l 1
144 16 m 1
 144 48 l 1
 48 48 l 1
 48 16 l 1
 144 16 l 1
144 80 m 1
 144 112 l 1
 112 112 l 1
 112 80 l 1
 144 80 l 1
144 144 m 1
 144 176 l 1
 112 176 l 1
 112 144 l 1
 144 144 l 1
144 208 m 1
 144 240 l 1
 112 240 l 1
 112 208 l 1
 144 208 l 1
208 16 m 1
 208 48 l 1
 176 48 l 1
 176 16 l 1
 208 16 l 1
208 80 m 1
 208 112 l 1
 176 112 l 1
 176 80 l 1
 208 80 l 1
208 144 m 1
 208 176 l 1
 176 176 l 1
 176 144 l 1
 208 144 l 1
208 208 m 1
 208 240 l 1
 176 240 l 1
 176 208 l 1
 208 208 l 1
272 16 m 1
 272 112 l 1
 240 112 l 1
 240 16 l 1
 272 16 l 1
272 144 m 1
 272 176 l 1
 240 176 l 1
 240 144 l 1
 272 144 l 1
272 208 m 1
 272 240 l 1
 240 240 l 1
 240 208 l 1
 272 208 l 1
272 288 m 1
 272 368 l 1
 48 368 l 1
 48 288 l 1
 272 288 l 1
EndSplineSet
EndChar

StartChar: ion-calendar
Encoding: 175 61719 174
Width: 448
LayerCount: 2
Fore
SplineSet
112 320 m 0
 94 320 80 334 80 352 c 2
 80 384 l 2
 80 402 94 416 112 416 c 0
 130 416 144 402 144 384 c 2
 144 352 l 2
 144 334 130 320 112 320 c 0
336 320 m 0
 318 320 304 334 304 352 c 2
 304 384 l 2
 304 402 318 416 336 416 c 0
 354 416 368 402 368 384 c 2
 368 352 l 2
 368 334 354 320 336 320 c 0
440 384 m 2
 444 384 448 380 448 376 c 2
 448 -24 l 2
 448 -28 444 -32 440 -32 c 2
 8 -32 l 2
 4 -32 0 -28 0 -24 c 2
 0 376 l 2
 0 380 4 384 8 384 c 2
 64 384 l 1
 64 343 l 2
 64 321 88 304 112 304 c 0
 136 304 160 321 160 343 c 2
 160 384 l 1
 288 384 l 1
 288 343 l 2
 288 321 313 304 337 304 c 0
 361 304 384 321 384 343 c 2
 384 384 l 1
 440 384 l 2
400 16 m 1
 400 272 l 1
 48 272 l 1
 48 16 l 1
 400 16 l 1
EndSplineSet
EndChar

StartChar: ion-camera
Encoding: 176 61720 175
Width: 416
LayerCount: 2
Fore
SplineSet
382 301 m 2
 400 301 416 287 416 268 c 2
 416 66 l 2
 416 47 400 32 382 32 c 2
 34 32 l 2
 15 32 0 47 0 66 c 2
 0 268 l 2
 0 287 15 301 34 301 c 2
 103 301 l 1
 142 341 l 1
 142 341 l 1
 148 348 157 352 167 352 c 2
 251 352 l 2
 260 352 268 348 274 342 c 1
 274 342 l 1
 274 342 l 1
 274 342 l 1
 315 301 l 1
 382 301 l 2
208 82 m 0
 259 82 300 124 300 175 c 0
 300 226 259 268 208 268 c 0
 157 268 116 226 116 175 c 0
 116 124 157 82 208 82 c 0
376 248 m 0
 384 248 390 254 390 262 c 0
 390 270 384 276 376 276 c 0
 368 276 362 270 362 262 c 0
 362 254 368 248 376 248 c 0
208 245 m 0
 246 245 278 214 278 175 c 0
 278 136 246 105 208 105 c 0
 169 105 138 136 138 175 c 0
 138 214 169 245 208 245 c 0
EndSplineSet
EndChar

StartChar: ion-card
Encoding: 177 61721 176
Width: 448
LayerCount: 2
Fore
SplineSet
420 352 m 2
 436 352 448 340 448 324 c 1
 448 324 l 1
 448 60 l 1
 448 60 l 1
 448 44 436 32 420 32 c 2
 28 32 l 2
 12 32 0 44 0 60 c 1
 0 60 l 1
 0 60 l 1
 0 324 l 1
 0 324 l 1
 0 324 l 1
 0 340 12 352 28 352 c 2
 420 352 l 2
45 320 m 2
 38 320 33 315 32 308 c 1
 32 288 l 1
 416 288 l 1
 416 308 l 1
 415 315 410 320 403 320 c 2
 45 320 l 2
403 64 m 2
 410 64 415 69 416 76 c 1
 416 192 l 1
 32 192 l 1
 32 76 l 1
 33 69 38 64 45 64 c 2
 403 64 l 2
64 128 m 1
 64 144 l 1
 256 144 l 1
 256 128 l 1
 64 128 l 1
64 96 m 1
 64 112 l 1
 160 112 l 1
 160 96 l 1
 64 96 l 1
320 96 m 1
 320 144 l 1
 384 144 l 1
 384 96 l 1
 320 96 l 1
EndSplineSet
EndChar

StartChar: ion-cash
Encoding: 178 62230 177
Width: 512
LayerCount: 2
Fore
SplineSet
0 352 m 1
 512 352 l 1
 512 96 l 1
 0 96 l 1
 0 352 l 1
193 128 m 1
 173 151 160 186 160 224 c 0
 160 262 173 297 193 320 c 1
 96 320 l 1
 96 285 67 256 32 256 c 1
 32 176 l 1
 59 176 80 155 80 128 c 1
 193 128 l 1
298 187 m 0
 301 191 302 196 302 202 c 0
 302 205 302 207 301 210 c 0
 300 213 299 216 297 218 c 0
 295 220 293 222 290 224 c 0
 287 226 284 228 280 229 c 0
 279 229 276 230 273 231 c 0
 270 232 268 231 265 232 c 1
 265 263 l 1
 267 262 270 261 272 260 c 0
 276 257 278 253 279 247 c 1
 299 247 l 1
 299 252 297 256 295 260 c 0
 293 264 290 268 286 271 c 0
 282 274 277 276 272 277 c 0
 270 278 267 279 265 279 c 1
 265 288 l 1
 247 288 l 1
 247 279 l 1
 245 279 243 278 241 277 c 0
 236 276 231 275 227 272 c 0
 223 269 220 266 218 262 c 0
 216 258 214 253 214 248 c 0
 214 245 214 243 215 240 c 0
 216 237 217 235 219 233 c 0
 221 231 224 228 227 226 c 0
 230 224 234 222 239 221 c 0
 242 220 245 221 247 220 c 1
 247 185 l 1
 244 186 241 187 238 189 c 0
 235 191 233 193 232 196 c 0
 231 199 230 202 230 205 c 1
 210 205 l 1
 210 200 212 194 214 189 c 0
 217 184 220 181 224 178 c 0
 228 175 233 172 239 171 c 0
 242 170 244 169 247 169 c 1
 247 160 l 1
 265 160 l 1
 265 169 l 1
 268 169 271 170 274 171 c 0
 279 172 284 173 288 176 c 0
 292 179 295 183 298 187 c 0
480 176 m 1
 480 256 l 1
 445 256 416 285 416 320 c 1
 319 320 l 1
 339 297 352 262 352 224 c 0
 352 186 339 151 319 128 c 1
 432 128 l 1
 432 155 454 176 480 176 c 1
64 224 m 0
 64 245 75 256 96 256 c 0
 117 256 128 245 128 224 c 0
 128 203 117 192 96 192 c 0
 75 192 64 203 64 224 c 0
384 224 m 0
 384 245 395 256 416 256 c 0
 437 256 448 245 448 224 c 0
 448 203 437 192 416 192 c 0
 395 192 384 203 384 224 c 0
273 213 m 0
 275 212 277 211 279 209 c 0
 281 207 282 204 282 200 c 0
 282 198 282 196 281 194 c 0
 280 192 279 190 277 189 c 0
 275 188 272 186 269 185 c 0
 268 185 267 184 265 184 c 1
 265 215 l 1
 268 214 271 214 273 213 c 0
236 257 m 0
 237 259 239 260 241 261 c 0
 243 262 245 263 247 263 c 1
 247 237 l 1
 243 238 240 240 238 242 c 0
 236 244 234 246 234 250 c 0
 234 253 235 255 236 257 c 0
0 32 m 1
 0 64 l 1
 512 64 l 1
 512 32 l 1
 0 32 l 1
EndSplineSet
EndChar

StartChar: ion-chatbox-working
Encoding: 179 61722 178
Width: 416
LayerCount: 2
Fore
SplineSet
76 48 m 2
 34 48 0 79 0 119 c 2
 0 328 l 2
 0 368 34 400 76 400 c 2
 340 400 l 2
 382 400 416 368 416 328 c 2
 416 119 l 2
 416 79 382 48 340 48 c 2
 336 48 l 1
 336 -16 l 1
 336 -16 257 38 250 43 c 0
 243 48 243 48 229 48 c 2
 76 48 l 2
304 256 m 0
 286 256 272 242 272 224 c 0
 272 206 286 192 304 192 c 0
 322 192 336 206 336 224 c 0
 336 242 322 256 304 256 c 0
208 256 m 0
 190 256 176 242 176 224 c 0
 176 206 190 192 208 192 c 0
 226 192 240 206 240 224 c 0
 240 242 226 256 208 256 c 0
112 256 m 0
 94 256 80 242 80 224 c 0
 80 206 94 192 112 192 c 0
 130 192 144 206 144 224 c 0
 144 242 130 256 112 256 c 0
EndSplineSet
EndChar

StartChar: ion-chatbox
Encoding: 180 61723 179
Width: 416
LayerCount: 2
Fore
SplineSet
76 48 m 2
 34 48 0 79 0 119 c 2
 0 328 l 2
 0 368 34 400 76 400 c 2
 340 400 l 2
 382 400 416 368 416 328 c 2
 416 119 l 2
 416 79 382 48 340 48 c 2
 336 48 l 1
 336 -16 l 1
 336 -16 257 38 250 43 c 0
 243 48 243 48 229 48 c 2
 76 48 l 2
EndSplineSet
EndChar

StartChar: ion-chatboxes
Encoding: 181 61724 180
Width: 416
LayerCount: 2
Fore
SplineSet
246 82 m 2
 272 64 l 1
 268 43 243 32 220 32 c 2
 130 32 l 2
 122 32 119 30 117 29 c 2
 64 -16 l 1
 64 32 l 1
 48 32 l 2
 22 32 0 48 0 73 c 2
 0 202 l 2
 0 227 20 247 46 247 c 2
 48 247 l 1
 48 146 l 2
 48 113 77 87 112 87 c 2
 229 87 l 2
 239 87 243 84 246 82 c 2
353 400 m 2
 388 400 416 373 416 340 c 2
 416 172 l 2
 416 139 388 112 353 112 c 2
 336 112 l 1
 336 48 l 1
 261 108 l 2
 259 110 254 112 244 112 c 2
 143 112 l 2
 108 112 80 139 80 172 c 2
 80 270 l 1
 80 340 l 2
 80 373 101 400 136 400 c 2
 353 400 l 2
EndSplineSet
EndChar

StartChar: ion-chatbubble-working
Encoding: 182 61725 181
Width: 416
LayerCount: 2
Fore
SplineSet
208 -1 m 0
 93 -1 0 88 0 199 c 0
 0 310 93 400 208 400 c 0
 323 400 416 310 416 199 c 0
 416 159 404 122 383 91 c 0
 382 90 381 88 380 87 c 1
 380 87 l 1
 378 83 376 77 376 72 c 1
 398 -16 l 1
 314 15 l 2
 310 17 306 17 302 17 c 0
 298 17 295 16 291 15 c 1
 291 15 l 1
 290 15 290 14 289 14 c 0
 264 4 237 -1 208 -1 c 0
304 224 m 0
 286 224 272 210 272 192 c 0
 272 174 286 160 304 160 c 0
 322 160 336 174 336 192 c 0
 336 210 322 224 304 224 c 0
208 224 m 0
 190 224 176 210 176 192 c 0
 176 174 190 160 208 160 c 0
 226 160 240 174 240 192 c 0
 240 210 226 224 208 224 c 0
112 224 m 0
 94 224 80 210 80 192 c 0
 80 174 94 160 112 160 c 0
 130 160 144 174 144 192 c 0
 144 210 130 224 112 224 c 0
EndSplineSet
EndChar

StartChar: ion-chatbubble
Encoding: 183 61726 182
Width: 416
LayerCount: 2
Fore
SplineSet
208 -1 m 0
 93 -1 0 88 0 199 c 0
 0 310 93 400 208 400 c 0
 323 400 416 310 416 199 c 0
 416 159 404 122 383 91 c 0
 382 90 381 88 380 87 c 1
 380 87 l 1
 378 83 376 77 376 72 c 1
 398 -16 l 1
 314 15 l 2
 310 17 306 17 302 17 c 0
 298 17 295 16 291 15 c 1
 291 15 l 1
 290 15 290 14 289 14 c 0
 264 4 237 -1 208 -1 c 0
EndSplineSet
EndChar

StartChar: ion-chatbubbles
Encoding: 184 61727 183
Width: 416
LayerCount: 2
Fore
SplineSet
25 57 m 1
 24 58 25 59 24 60 c 0
 9 82 0 109 0 137 c 0
 0 179 19 217 49 243 c 1
 47 232 45 221 45 209 c 0
 45 117 123 41 219 41 c 0
 234 41 249 43 263 47 c 1
 236 15 194 -6 148 -6 c 0
 128 -6 108 -1 90 6 c 1
 89 6 l 1
 89 6 l 1
 87 7 84 8 81 8 c 0
 78 8 75 7 72 6 c 2
 16 -16 l 1
 28 47 l 2
 28 51 27 54 25 57 c 1
 25 57 l 1
242 400 m 0
 338 400 416 324 416 232 c 0
 416 199 405 168 388 142 c 0
 387 141 387 140 386 139 c 1
 386 139 l 1
 384 135 383 131 383 127 c 2
 400 53 l 1
 331 79 l 2
 328 80 325 81 321 81 c 0
 318 81 315 80 312 79 c 1
 312 79 l 1
 310 78 l 2
 302 75 294 73 286 71 c 0
 272 67 257 65 242 65 c 0
 146 65 69 140 69 232 c 0
 69 244 70 256 72 267 c 0
 88 343 158 400 242 400 c 0
EndSplineSet
EndChar

StartChar: ion-checkmark-circled
Encoding: 185 61728 184
Width: 448
LayerCount: 2
Fore
SplineSet
224 416 m 0
 348 416 448 316 448 192 c 0
 448 68 348 -32 224 -32 c 0
 100 -32 0 68 0 192 c 0
 0 316 100 416 224 416 c 0
339 267 m 2
 340 268 340 269 340 270 c 0
 340 271 340 273 339 274 c 2
 308 298 l 2
 307 299 305 299 304 299 c 0
 303 299 302 299 301 298 c 2
 190 155 l 1
 190 155 146 197 145 198 c 0
 144 199 141 201 139 201 c 0
 137 201 136 199 135 198 c 2
 110 173 l 1
 109 172 l 2
 108 171 108 169 108 168 c 0
 108 167 108 166 109 165 c 2
 111 164 l 1
 111 164 189 89 190 88 c 0
 191 87 193 85 195 85 c 0
 197 85 199 87 200 88 c 2
 339 267 l 2
EndSplineSet
EndChar

StartChar: ion-checkmark-round
Encoding: 186 61729 185
Width: 416
LayerCount: 2
Fore
SplineSet
400 376 m 0
 417 363 422 337 409 319 c 2
 202 17 l 2
 189 -1 165 -5 148 8 c 0
 131 21 11 155 11 155 c 2
 -4 171 -4 197 12 213 c 0
 28 229 52 228 67 211 c 2
 166 104 l 1
 346 367 l 2
 359 385 383 389 400 376 c 0
EndSplineSet
EndChar

StartChar: ion-checkmark
Encoding: 187 61730 186
Width: 416
LayerCount: 2
Fore
SplineSet
414 338 m 2
 415 336 416 334 416 332 c 0
 416 330 415 328 414 326 c 2
 165 6 l 2
 163 4 160 0 156 0 c 0
 152 0 148 3 146 5 c 0
 144 7 5 141 5 141 c 1
 2 144 l 2
 1 146 0 148 0 150 c 0
 0 152 1 153 2 155 c 2
 4 157 l 2
 18 172 46 201 48 203 c 0
 50 205 52 209 56 209 c 0
 60 209 64 205 66 203 c 0
 68 201 146 125 146 125 c 1
 346 382 l 2
 348 384 350 384 352 384 c 0
 354 384 357 383 359 382 c 2
 414 338 l 2
EndSplineSet
EndChar

StartChar: ion-chevron-down
Encoding: 188 61731 187
Width: 448
LayerCount: 2
Fore
SplineSet
224 150 m 1
 224 150 l 1
 224 150 l 1
 398 317 l 2
 402 321 410 321 414 317 c 2
 445 287 l 2
 449 283 449 275 445 271 c 2
 232 67 l 2
 230 65 227 64 224 64 c 0
 221 64 218 65 216 67 c 2
 3 271 l 2
 -1 275 -1 283 3 287 c 2
 34 317 l 2
 38 321 46 321 50 317 c 2
 224 150 l 1
EndSplineSet
EndChar

StartChar: ion-chevron-left
Encoding: 189 61732 188
Width: 256
LayerCount: 2
Fore
SplineSet
86 192 m 1
 253 18 l 2
 257 14 257 6 253 2 c 2
 223 -29 l 2
 219 -33 211 -33 207 -29 c 2
 3 184 l 2
 1 186 0 189 0 192 c 0
 0 195 1 198 3 200 c 2
 207 413 l 2
 211 417 219 416 223 412 c 2
 253 382 l 2
 257 378 257 370 253 366 c 2
 86 192 l 1
 86 192 l 1
 86 192 l 1
EndSplineSet
EndChar

StartChar: ion-chevron-right
Encoding: 190 61733 189
Width: 256
LayerCount: 2
Fore
SplineSet
170 192 m 1
 170 192 l 1
 170 192 l 1
 3 366 l 2
 -1 370 -1 378 3 382 c 2
 33 412 l 2
 37 416 45 417 49 413 c 2
 253 200 l 2
 255 198 256 195 256 192 c 0
 256 189 255 186 253 184 c 2
 49 -29 l 2
 45 -33 37 -33 33 -29 c 2
 3 2 l 2
 -1 6 -1 14 3 18 c 2
 170 192 l 1
EndSplineSet
EndChar

StartChar: ion-chevron-up
Encoding: 191 61734 190
Width: 448
LayerCount: 2
Fore
SplineSet
224 234 m 1
 50 67 l 2
 46 63 38 63 34 67 c 2
 3 97 l 2
 -1 101 -1 109 3 113 c 2
 216 317 l 2
 218 319 221 320 224 320 c 0
 227 320 230 319 232 317 c 2
 445 113 l 2
 449 109 449 101 445 97 c 2
 414 67 l 2
 410 63 402 63 398 67 c 2
 224 234 l 1
 224 234 l 1
 224 234 l 1
EndSplineSet
EndChar

StartChar: ion-clipboard
Encoding: 192 61735 191
Width: 352
LayerCount: 2
Fore
SplineSet
80 288 m 1
 82 308 90 323 108 328 c 1
 109 329 l 1
 121 332 130 336 130 349 c 2
 130 370 l 2
 130 396 151 416 176 416 c 0
 201 416 222 396 222 370 c 2
 222 349 l 2
 222 336 231 331 243 328 c 1
 245 328 l 1
 263 323 270 308 272 288 c 1
 80 288 l 1
176 384 m 0
 168 384 163 378 163 370 c 0
 163 362 168 356 176 356 c 0
 184 356 190 362 190 370 c 0
 190 378 184 384 176 384 c 0
325 384 m 2
 340 384 352 372 352 356 c 2
 352 -4 l 2
 352 -20 340 -32 325 -32 c 2
 176 -32 l 1
 28 -32 l 2
 13 -32 0 -20 0 -4 c 2
 0 356 l 2
 0 372 13 384 28 384 c 2
 101 384 l 1
 101 371 l 2
 101 360 92 352 82 352 c 2
 45 352 l 2
 38 352 33 346 33 339 c 2
 33 12 l 2
 33 6 38 0 44 0 c 2
 309 0 l 2
 315 0 320 6 320 12 c 2
 320 339 l 2
 320 346 315 352 308 352 c 2
 271 352 l 2
 261 352 251 360 251 371 c 2
 251 384 l 1
 325 384 l 2
64 224 m 1
 64 256 l 1
 176 256 l 1
 176 224 l 1
 64 224 l 1
64 32 m 1
 64 64 l 1
 224 64 l 1
 224 32 l 1
 64 32 l 1
64 96 m 1
 64 128 l 1
 193 128 l 1
 193 96 l 1
 64 96 l 1
64 160 m 1
 64 192 l 1
 272 192 l 1
 272 160 l 1
 64 160 l 1
EndSplineSet
EndChar

StartChar: ion-clock
Encoding: 193 62062 192
Width: 448
LayerCount: 2
Fore
SplineSet
224 416 m 0
 348 416 448 316 448 192 c 0
 448 68 348 -32 224 -32 c 0
 100 -32 0 68 0 192 c 0
 0 316 100 416 224 416 c 0
360 56 m 0
 370 66 379 77 386 89 c 1
 359 105 l 1
 367 119 l 1
 394 103 l 1
 407 128 415 155 416 184 c 1
 384 184 l 1
 384 200 l 1
 416 200 l 1
 415 229 407 256 394 281 c 1
 367 265 l 1
 359 279 l 1
 386 295 l 1
 379 307 370 318 360 328 c 0
 350 338 339 347 327 354 c 1
 311 327 l 1
 297 335 l 1
 313 362 l 1
 288 375 261 383 232 384 c 1
 232 352 l 1
 216 352 l 1
 216 384 l 1
 187 383 160 375 135 362 c 1
 151 335 l 1
 137 327 l 1
 121 354 l 1
 109 347 98 338 88 328 c 0
 78 318 69 307 62 295 c 1
 89 279 l 1
 81 265 l 1
 54 281 l 1
 41 256 33 229 32 200 c 1
 64 200 l 1
 64 184 l 1
 32 184 l 1
 33 155 41 128 54 103 c 1
 81 119 l 1
 89 105 l 1
 62 89 l 1
 69 77 78 66 88 56 c 0
 98 46 109 37 121 30 c 1
 137 57 l 1
 151 49 l 1
 135 22 l 1
 160 9 187 1 216 0 c 1
 216 32 l 1
 232 32 l 1
 232 0 l 1
 261 1 288 9 313 22 c 1
 297 49 l 1
 311 57 l 1
 327 30 l 1
 339 37 350 46 360 56 c 0
368 207 m 1
 368 175 l 1
 251 175 l 1
 245 166 235 160 224 160 c 0
 206 160 192 174 192 192 c 0
 192 204 198 214 208 220 c 1
 208 288 l 1
 240 288 l 1
 240 220 l 1
 245 217 249 212 252 207 c 1
 368 207 l 1
EndSplineSet
EndChar

StartChar: ion-close-circled
Encoding: 194 61736 193
Width: 448
LayerCount: 2
Fore
SplineSet
224 415 m 0
 348 415 448 315 448 191 c 0
 448 67 348 -33 224 -33 c 0
 100 -33 0 67 0 191 c 0
 0 315 100 415 224 415 c 0
332 116 m 2
 257 191 l 1
 333 266 l 2
 336 269 336 275 333 278 c 2
 311 299 l 2
 309 301 307 302 305 302 c 0
 303 302 302 301 300 299 c 2
 224 225 l 1
 148 299 l 2
 146 301 145 302 143 302 c 0
 141 302 139 301 137 299 c 2
 116 278 l 2
 113 275 113 269 116 266 c 2
 192 191 l 1
 116 115 l 2
 114 114 114 112 114 110 c 0
 114 108 114 106 116 104 c 2
 137 82 l 2
 139 80 141 80 143 80 c 0
 145 80 147 80 149 82 c 2
 224 158 l 1
 300 83 l 2
 302 81 303 80 305 80 c 0
 307 80 309 81 311 83 c 2
 332 104 l 2
 334 105 335 108 335 110 c 0
 335 112 334 114 332 116 c 2
EndSplineSet
EndChar

StartChar: ion-close-round
Encoding: 195 61737 194
Width: 384
LayerCount: 2
Fore
SplineSet
374 61 m 2
 388 47 388 24 374 10 c 0
 360 -4 337 -4 323 10 c 2
 192 141 l 1
 61 10 l 2
 47 -4 25 -4 11 10 c 0
 -3 24 -3 47 11 61 c 2
 141 192 l 1
 11 323 l 2
 -3 337 -3 360 11 374 c 0
 25 388 47 388 61 374 c 2
 192 243 l 1
 323 374 l 2
 337 388 360 388 374 374 c 0
 388 360 388 337 374 323 c 2
 243 192 l 1
 374 61 l 2
EndSplineSet
EndChar

StartChar: ion-close
Encoding: 196 61738 195
Width: 384
LayerCount: 2
Fore
SplineSet
380 61 m 2
 383 58 384 55 384 51 c 0
 384 47 383 44 380 41 c 2
 342 4 l 2
 339 1 337 0 333 0 c 0
 329 0 326 1 323 4 c 2
 192 135 l 1
 61 4 l 2
 58 1 56 0 52 0 c 0
 48 0 45 1 42 4 c 2
 4 41 l 2
 1 44 0 47 0 51 c 0
 0 55 1 58 4 61 c 2
 136 192 l 1
 4 322 l 2
 -1 327 -1 337 4 342 c 2
 41 380 l 2
 44 382 47 384 51 384 c 0
 55 384 58 383 61 380 c 2
 192 250 l 1
 323 380 l 2
 326 382 329 384 333 384 c 0
 337 384 340 383 343 380 c 2
 380 342 l 2
 385 337 385 328 380 323 c 2
 248 193 l 1
 380 61 l 2
EndSplineSet
EndChar

StartChar: ion-closed-captioning
Encoding: 197 62231 196
Width: 512
LayerCount: 2
Fore
SplineSet
0 384 m 1
 512 384 l 1
 512 0 l 1
 0 0 l 1
 0 384 l 1
464 192 m 0
 464 219 464 236 460 272 c 0
 456 308 437 328 401 332 c 0
 365 336 310 336 263 336 c 2
 256 336 l 1
 249 336 l 2
 202 336 147 336 111 332 c 0
 75 328 56 308 52 272 c 0
 48 236 48 219 48 192 c 0
 48 165 50 145 52 112 c 0
 54 79 71 56 111 52 c 0
 151 48 207 48 256 48 c 0
 305 48 361 48 401 52 c 0
 441 56 458 79 460 112 c 0
 462 145 464 165 464 192 c 0
372 164 m 1
 372 168 l 1
 425 168 l 1
 425 141 418 120 406 106 c 0
 394 92 374 85 345 85 c 0
 331 85 319 87 309 90 c 0
 299 93 291 99 284 107 c 0
 277 115 272 126 269 140 c 0
 266 154 264 170 264 191 c 0
 264 212 267 230 271 244 c 0
 275 258 280 269 288 277 c 0
 296 285 305 291 315 294 c 0
 325 297 337 299 349 299 c 0
 374 299 393 292 406 278 c 0
 419 264 425 241 425 216 c 1
 373 216 l 1
 373 217 l 2
 373 237 361 250 346 250 c 0
 331 250 321 239 318 220 c 1
 318 220 316 209 316 191 c 0
 316 173 318 163 318 163 c 2
 319 146 330 134 345 134 c 0
 360 134 372 144 372 163 c 2
 372 164 l 1
195 164 m 1
 195 168 l 1
 248 168 l 1
 248 141 241 120 229 106 c 0
 217 92 197 85 168 85 c 0
 154 85 142 87 132 90 c 0
 122 93 114 99 107 107 c 0
 100 115 95 126 92 140 c 0
 89 154 87 170 87 191 c 0
 87 212 90 230 94 244 c 0
 98 258 103 269 111 277 c 0
 119 285 128 291 138 294 c 0
 148 297 160 299 172 299 c 0
 197 299 216 292 229 278 c 0
 242 264 248 241 248 216 c 1
 196 216 l 1
 196 217 l 2
 196 237 184 250 169 250 c 0
 154 250 144 239 141 220 c 1
 141 220 139 209 139 191 c 0
 139 173 141 163 141 163 c 2
 142 146 153 134 168 134 c 0
 183 134 195 144 195 163 c 2
 195 164 l 1
EndSplineSet
EndChar

StartChar: ion-cloud
Encoding: 198 61739 197
Width: 448
LayerCount: 2
Fore
SplineSet
366 215 m 1
 411 215 448 177 448 131 c 0
 448 85 411 48 366 48 c 1
 366 48 l 1
 90 48 l 2
 41 48 0 89 0 139 c 0
 0 179 26 213 61 225 c 1
 66 254 90 276 120 276 c 0
 130 276 138 273 146 269 c 1
 165 309 205 336 251 336 c 0
 315 336 366 283 366 218 c 2
 366 215 l 1
EndSplineSet
EndChar

StartChar: ion-code-download
Encoding: 199 62063 198
Width: 448
LayerCount: 2
Fore
SplineSet
299 164 m 2
 236 101 l 1
 236 101 l 1
 235 100 l 1
 235 100 l 1
 233 99 l 1
 233 99 l 1
 232 98 l 1
 232 98 l 1
 230 97 l 1
 230 97 l 1
 229 97 l 1
 229 97 l 1
 228 97 l 2
 227 97 225 96 224 96 c 0
 223 96 221 97 220 97 c 2
 219 97 l 1
 219 97 l 1
 218 97 l 1
 218 97 l 1
 216 98 l 1
 216 98 l 1
 215 99 l 1
 215 99 l 1
 214 100 213 100 212 101 c 1
 212 101 l 1
 149 164 l 2
 143 170 143 181 149 187 c 0
 155 193 167 193 173 187 c 2
 208 153 l 1
 208 271 l 2
 208 280 215 288 224 288 c 0
 233 288 240 280 240 271 c 2
 240 153 l 1
 275 187 l 2
 281 193 293 193 299 187 c 0
 305 181 305 170 299 164 c 2
136 56 m 0
 130 56 124 58 119 63 c 2
 7 175 l 2
 -2 184 -2 200 7 209 c 2
 119 321 l 2
 128 330 144 330 153 321 c 0
 162 312 162 296 153 287 c 2
 58 192 l 1
 153 97 l 2
 162 88 162 72 153 63 c 0
 148 58 142 56 136 56 c 0
312 56 m 0
 306 56 300 58 295 63 c 0
 286 72 286 88 295 97 c 2
 390 192 l 1
 295 287 l 2
 286 296 286 312 295 321 c 0
 304 330 320 330 329 321 c 2
 441 209 l 2
 450 200 450 184 441 175 c 2
 329 63 l 2
 324 58 318 56 312 56 c 0
EndSplineSet
EndChar

StartChar: ion-code-working
Encoding: 200 62064 199
Width: 448
LayerCount: 2
Fore
SplineSet
128 192 m 0
 128 208 136 216 152 216 c 0
 168 216 176 208 176 192 c 0
 176 176 168 168 152 168 c 0
 136 168 128 176 128 192 c 0
200 192 m 0
 200 208 208 216 224 216 c 0
 240 216 248 208 248 192 c 0
 248 176 240 168 224 168 c 0
 208 168 200 176 200 192 c 0
272 192 m 0
 272 208 280 216 296 216 c 0
 312 216 320 208 320 192 c 0
 320 176 312 168 296 168 c 0
 280 168 272 176 272 192 c 0
136 56 m 0
 129 56 124 58 119 63 c 2
 7 175 l 2
 2 180 0 185 0 192 c 0
 0 199 2 204 7 209 c 2
 119 321 l 2
 124 326 129 328 136 328 c 0
 143 328 148 326 153 321 c 0
 158 316 160 311 160 304 c 0
 160 297 158 292 153 287 c 2
 58 192 l 1
 153 97 l 2
 158 92 160 87 160 80 c 0
 160 73 158 68 153 63 c 0
 148 58 143 56 136 56 c 0
312 56 m 0
 305 56 300 58 295 63 c 0
 290 68 288 73 288 80 c 0
 288 87 290 92 295 97 c 2
 390 192 l 1
 295 287 l 2
 290 292 288 297 288 304 c 0
 288 311 290 316 295 321 c 0
 300 326 305 328 312 328 c 0
 319 328 324 326 329 321 c 2
 441 209 l 2
 446 204 448 199 448 192 c 0
 448 185 446 180 441 175 c 2
 329 63 l 2
 324 58 319 56 312 56 c 0
EndSplineSet
EndChar

StartChar: ion-code
Encoding: 201 62065 200
Width: 448
LayerCount: 2
Fore
SplineSet
136 56 m 0
 130 56 124 58 119 63 c 2
 7 175 l 2
 -2 184 -2 200 7 209 c 2
 119 321 l 2
 128 330 144 330 153 321 c 0
 162 312 162 296 153 287 c 2
 58 192 l 1
 153 97 l 2
 162 88 162 72 153 63 c 0
 148 58 142 56 136 56 c 0
312 56 m 0
 306 56 300 58 295 63 c 0
 286 72 286 88 295 97 c 2
 390 192 l 1
 295 287 l 2
 286 296 286 312 295 321 c 0
 304 330 320 330 329 321 c 2
 441 209 l 2
 450 200 450 184 441 175 c 2
 329 63 l 2
 324 58 318 56 312 56 c 0
EndSplineSet
EndChar

StartChar: ion-coffee
Encoding: 202 62066 201
Width: 384
LayerCount: 2
Fore
SplineSet
319 191 m 1
 356 184 384 151 384 112 c 0
 384 92 376 73 363 58 c 0
 348 41 326 32 302 32 c 0
 294 32 285 33 277 35 c 0
 271 36 267 38 262 40 c 1
 251 25 239 15 230 7 c 1
 230 7 l 1
 225 2 218 0 211 0 c 2
 109 0 l 2
 102 0 95 2 90 7 c 1
 90 7 l 1
 73 22 49 43 28 93 c 0
 7 143 0 184 0 204 c 0
 0 224 3 224 16 224 c 2
 117 224 l 1
 112 241 80 243 80 270 c 0
 80 287 95 302 108 307 c 1
 106 299 105 293 105 286 c 0
 105 267 144 256 144 233 c 0
 144 230 144 227 143 224 c 1
 199 224 l 1
 200 229 201 234 201 238 c 0
 201 274 145 274 145 322 c 0
 145 350 166 377 192 384 c 1
 188 370 183 361 183 349 c 0
 183 317 240 299 240 261 c 0
 240 248 235 236 228 224 c 1
 304 224 l 2
 317 224 320 224 320 204 c 0
 320 200 320 196 319 191 c 1
302 64 m 0
 335 64 352 89 352 112 c 0
 352 135 335 155 313 159 c 1
 309 140 302 117 292 93 c 0
 288 84 284 76 280 68 c 1
 286 65 293 64 302 64 c 0
EndSplineSet
EndChar

StartChar: ion-compass
Encoding: 203 62067 202
Width: 448
LayerCount: 2
Fore
SplineSet
224 416 m 0
 348 416 448 316 448 192 c 0
 448 68 348 -32 224 -32 c 0
 100 -32 0 68 0 192 c 0
 0 231 10 268 27 300 c 1
 11 312 0 330 0 352 c 0
 0 387 29 416 64 416 c 0
 86 416 104 405 116 389 c 1
 148 406 185 416 224 416 c 0
32 352 m 0
 32 342 37 332 45 326 c 1
 58 343 73 358 90 371 c 1
 84 379 74 384 64 384 c 0
 46 384 32 370 32 352 c 0
360 56 m 0
 396 92 416 141 416 192 c 0
 416 243 396 292 360 328 c 0
 324 364 275 384 224 384 c 0
 173 384 124 364 88 328 c 0
 52 292 32 243 32 192 c 0
 32 141 52 92 88 56 c 0
 124 20 173 0 224 0 c 0
 275 0 324 20 360 56 c 0
320 320 m 1
 320 320 266 190 248 168 c 0
 230 146 128 64 128 64 c 1
 128 64 182 196 200 216 c 0
 218 236 320 320 320 320 c 1
EndSplineSet
EndChar

StartChar: ion-compose
Encoding: 204 61740 203
Width: 384
LayerCount: 2
Fore
SplineSet
379 348 m 2
 386 341 386 330 379 323 c 2
 347 292 l 1
 292 347 l 1
 323 379 l 2
 330 386 341 386 348 379 c 2
 379 348 l 2
282 338 m 1
 337 283 l 1
 160 110 l 1
 96 96 l 1
 110 160 l 1
 282 338 l 1
320 192 m 1
 352 224 l 1
 352 23 l 2
 352 10 342 0 329 0 c 2
 23 0 l 2
 10 0 0 10 0 23 c 2
 0 329 l 2
 0 342 10 352 23 352 c 2
 224 352 l 1
 192 320 l 1
 43 320 l 2
 37 320 32 315 32 310 c 2
 32 42 l 1
 32 42 36 32 42 32 c 2
 311 32 l 1
 311 32 320 37 320 42 c 2
 320 192 l 1
EndSplineSet
EndChar

StartChar: ion-connection-bars
Encoding: 205 62068 204
Width: 352
LayerCount: 2
Fore
SplineSet
0 32 m 1
 0 96 l 1
 64 96 l 1
 64 32 l 1
 0 32 l 1
96 32 m 1
 96 160 l 1
 160 160 l 1
 160 32 l 1
 96 32 l 1
192 32 m 1
 192 256 l 1
 256 256 l 1
 256 32 l 1
 192 32 l 1
288 32 m 1
 288 352 l 1
 352 352 l 1
 352 32 l 1
 288 32 l 1
EndSplineSet
EndChar

StartChar: ion-contrast
Encoding: 206 62069 205
Width: 448
LayerCount: 2
Fore
SplineSet
224 416 m 0
 348 416 448 316 448 192 c 0
 448 68 348 -32 224 -32 c 0
 100 -32 0 68 0 192 c 0
 0 316 100 416 224 416 c 0
360 56 m 0
 396 92 416 141 416 192 c 0
 416 243 396 292 360 328 c 0
 324 364 275 384 224 384 c 1
 224 0 l 1
 275 0 324 20 360 56 c 0
EndSplineSet
EndChar

StartChar: ion-crop
Encoding: 207 62401 206
Width: 448
LayerCount: 2
Fore
SplineSet
320 -32 m 1
 320 16 l 1
 384 16 l 1
 384 -32 l 1
 320 -32 l 1
384 96 m 1
 448 96 l 1
 448 32 l 1
 64 32 l 1
 64 288 l 1
 0 288 l 1
 0 352 l 1
 64 352 l 1
 64 416 l 1
 128 416 l 1
 128 96 l 1
 320 96 l 1
 320 288 l 1
 144 288 l 1
 144 352 l 1
 384 352 l 1
 384 96 l 1
EndSplineSet
EndChar

StartChar: ion-cube
Encoding: 208 62232 207
Width: 448
LayerCount: 2
Fore
SplineSet
435 280 m 0
 442 280 448 274 448 268 c 2
 448 85 l 2
 448 76 442 68 434 63 c 1
 434 62 l 1
 259 -30 l 1
 259 -31 l 1
 257 -32 255 -32 253 -32 c 0
 246 -32 240 -26 240 -20 c 2
 240 165 l 2
 240 174 245 182 253 187 c 1
 253 187 l 1
 256 189 l 1
 428 278 l 1
 430 279 l 2
 432 280 433 280 435 280 c 0
422 329 m 1
 422 329 430 326 430 320 c 0
 430 313 422 309 422 309 c 1
 239 212 l 1
 237 211 l 2
 233 209 229 208 224 208 c 0
 219 208 215 209 211 211 c 2
 209 212 l 1
 26 308 l 1
 26 308 18 313 18 320 c 0
 18 326 26 329 26 329 c 1
 207 411 l 1
 207 411 218 416 224 416 c 0
 230 416 241 411 241 411 c 1
 422 329 l 1
195 187 m 2
 203 182 208 174 208 165 c 2
 208 -20 l 2
 208 -26 202 -32 195 -32 c 0
 193 -32 191 -31 189 -30 c 1
 189 -30 l 1
 14 62 l 1
 14 63 l 1
 6 68 0 76 0 85 c 2
 0 268 l 2
 0 274 6 280 13 280 c 0
 15 280 17 280 18 279 c 2
 20 278 l 1
 191 189 l 1
 195 187 l 2
EndSplineSet
EndChar

StartChar: ion-disc
Encoding: 209 61741 208
Width: 448
LayerCount: 2
Fore
SplineSet
224 289 m 0
 278 289 321 246 321 192 c 0
 321 138 278 95 224 95 c 0
 170 95 127 138 127 192 c 0
 127 246 170 289 224 289 c 0
224 148 m 0
 248 148 268 168 268 192 c 0
 268 216 248 236 224 236 c 0
 200 236 180 216 180 192 c 0
 180 168 200 148 224 148 c 0
224 416 m 0
 348 416 448 316 448 192 c 0
 448 68 348 -32 224 -32 c 0
 100 -32 0 68 0 192 c 0
 0 316 100 416 224 416 c 0
224 69 m 0
 292 69 347 124 347 192 c 0
 347 260 292 315 224 315 c 0
 156 315 101 260 101 192 c 0
 101 124 156 69 224 69 c 0
EndSplineSet
EndChar

StartChar: ion-document-text
Encoding: 210 61742 209
Width: 288
LayerCount: 2
Fore
SplineSet
286 279 m 0
 287 276 288 273 288 269 c 2
 288 24 l 2
 288 11 278 0 266 0 c 2
 23 0 l 2
 11 0 0 11 0 24 c 2
 0 360 l 2
 0 373 11 384 23 384 c 2
 183 384 l 2
 186 384 189 384 192 382 c 0
 194 381 197 379 199 377 c 2
 283 285 l 2
 285 283 285 281 286 279 c 0
48 269 m 2
 48 259 l 2
 48 258 49 256 51 256 c 2
 122 256 l 2
 124 256 125 258 125 259 c 2
 125 269 l 2
 125 271 124 272 122 272 c 2
 51 272 l 2
 49 272 48 271 48 269 c 2
48 141 m 2
 48 131 l 2
 48 130 49 128 51 128 c 2
 174 128 l 2
 176 128 176 130 176 131 c 2
 176 141 l 2
 176 143 176 144 174 144 c 2
 51 144 l 2
 49 144 48 143 48 141 c 2
208 67 m 2
 208 77 l 2
 208 79 208 80 206 80 c 2
 51 80 l 2
 49 80 48 79 48 77 c 2
 48 67 l 2
 48 66 49 64 51 64 c 2
 206 64 l 2
 208 64 208 66 208 67 c 2
240 195 m 2
 240 205 l 2
 240 207 240 208 238 208 c 2
 51 208 l 2
 49 208 48 207 48 205 c 2
 48 195 l 2
 48 194 49 192 51 192 c 2
 238 192 l 2
 240 192 240 194 240 195 c 2
193 270 m 2
 253 270 l 1
 182 348 l 1
 182 282 l 2
 182 276 187 270 193 270 c 2
EndSplineSet
EndChar

StartChar: ion-document
Encoding: 211 61743 210
Width: 288
LayerCount: 2
Fore
SplineSet
287 279 m 0
 288 276 288 274 288 270 c 2
 288 26 l 2
 288 13 279 0 267 0 c 2
 24 0 l 2
 12 0 0 13 0 26 c 2
 0 361 l 2
 0 374 12 384 24 384 c 2
 184 384 l 2
 187 384 190 384 193 382 c 0
 195 381 198 380 200 378 c 2
 283 286 l 2
 285 284 286 282 287 279 c 0
193 337 m 1
 193 274 l 1
 251 274 l 1
 193 337 l 1
32 32 m 1
 256 32 l 1
 256 242 l 1
 189 242 l 2
 174 242 161 255 161 270 c 2
 161 352 l 1
 32 352 l 1
 32 32 l 1
EndSplineSet
EndChar

StartChar: ion-drag
Encoding: 212 61744 211
Width: 512
LayerCount: 2
Fore
SplineSet
0 272 m 1
 0 304 l 1
 512 304 l 1
 512 272 l 1
 0 272 l 1
0 176 m 1
 0 208 l 1
 512 208 l 1
 512 176 l 1
 0 176 l 1
0 80 m 1
 0 112 l 1
 512 112 l 1
 512 80 l 1
 0 80 l 1
EndSplineSet
EndChar

StartChar: ion-earth
Encoding: 213 62070 212
Width: 448
LayerCount: 2
Fore
SplineSet
325 322 m 0
 327 318 332 310 328 307 c 0
 325 305 318 305 315 312 c 0
 312 319 315 323 310 321 c 0
 305 319 303 324 304 325 c 0
 305 327 307 328 309 329 c 1
 309 331 305 337 311 336 c 0
 315 335 323 326 325 322 c 0
344 277 m 1
 344 277 l 1
 344 277 l 1
403 251 m 1
 403 251 401 251 403 251 c 1
 403 251 l 1
224 416 m 0
 348 416 448 316 448 192 c 0
 448 68 348 -32 224 -32 c 0
 100 -32 0 68 0 192 c 0
 0 316 100 416 224 416 c 0
141 19 m 2
 149 15 l 2
 152 14 155 13 159 12 c 0
 173 7 187 4 202 2 c 0
 230 -1 258 1 285 10 c 0
 300 15 315 21 328 30 c 0
 334 34 334 46 338 54 c 0
 346 70 336 87 350 101 c 1
 362 115 354 120 354 135 c 0
 354 145 362 153 358 164 c 0
 357 168 351 161 349 165 c 0
 344 172 328 166 321 167 c 0
 308 169 297 181 288 190 c 0
 283 195 288 210 289 216 c 0
 293 231 289 249 308 254 c 0
 313 255 313 263 318 265 c 0
 323 266 328 268 333 269 c 0
 342 270 350 267 359 267 c 0
 369 267 373 262 381 256 c 0
 388 250 394 253 403 251 c 1
 410 251 403 256 401 259 c 1
 398 261 395 261 393 261 c 0
 377 265 370 283 357 291 c 0
 351 294 348 293 346 291 c 0
 345 290 347 279 347 279 c 1
 346 276 337 275 334 274 c 0
 325 272 305 291 319 296 c 0
 323 297 346 301 343 311 c 1
 340 317 345 324 338 325 c 0
 330 326 331 332 323 333 c 0
 318 334 318 344 318 347 c 0
 318 356 320 353 327 354 c 1
 310 365 290 373 270 378 c 1
 269 375 265 366 262 366 c 0
 257 365 256 366 253 363 c 0
 244 353 237 335 228 356 c 0
 224 367 233 375 230 384 c 1
 224 384 l 1
 221 384 l 1
 227 372 216 366 213 365 c 1
 205 365 203 370 196 369 c 0
 192 368 189 373 185 371 c 0
 181 369 172 363 171 359 c 0
 168 347 177 346 185 353 c 0
 191 359 202 365 210 359 c 0
 216 354 215 350 215 345 c 0
 215 340 214 327 206 329 c 0
 202 330 199 335 195 332 c 0
 187 325 177 326 166 323 c 0
 156 321 150 317 141 314 c 0
 133 311 130 310 129 302 c 0
 129 300 129 288 126 287 c 0
 121 285 118 309 104 307 c 0
 92 306 74 294 79 279 c 0
 81 274 107 276 89 265 c 0
 87 264 91 248 91 245 c 0
 92 237 104 227 112 235 c 0
 118 241 118 240 126 237 c 1
 141 229 159 222 171 210 c 0
 177 204 180 186 188 182 c 0
 197 177 207 177 214 168 c 0
 220 161 212 149 206 145 c 0
 202 143 194 121 190 116 c 0
 188 112 178 110 174 109 c 0
 171 109 167 100 165 98 c 0
 158 91 157 85 148 79 c 0
 130 67 126 56 130 35 c 0
 132 27 135 22 141 19 c 2
100 46 m 1
 102 44 l 2
 109 38 117 33 125 28 c 1
 104 49 102 77 104 106 c 1
 107 130 l 2
 108 133 103 137 103 141 c 0
 103 151 103 146 95 154 c 0
 91 158 85 165 83 171 c 0
 76 187 84 201 93 214 c 0
 102 228 86 234 83 246 c 0
 82 252 76 252 77 258 c 0
 78 265 73 263 68 267 c 0
 56 275 67 287 61 293 c 1
 18 223 25 131 77 69 c 0
 78 68 77 68 78 67 c 1
 79 67 l 1
 82 63 85 59 88 56 c 0
 91 53 95 50 98 47 c 1
 100 46 l 1
EndSplineSet
EndChar

StartChar: ion-easel
Encoding: 214 62402 213
Width: 448
LayerCount: 2
Fore
SplineSet
48 112 m 1
 48 304 l 1
 400 304 l 1
 400 112 l 1
 48 112 l 1
432 352 m 2
 441 352 448 345 448 336 c 2
 448 80 l 2
 448 71 441 64 432 64 c 2
 16 64 l 2
 7 64 0 71 0 80 c 2
 0 336 l 2
 0 345 7 352 16 352 c 2
 432 352 l 2
416 96 m 1
 416 320 l 1
 32 320 l 1
 32 96 l 1
 416 96 l 1
48 -32 m 1
 77 48 l 1
 108 48 l 1
 80 -32 l 1
 48 -32 l 1
239 416 m 1
 256 368 l 1
 192 368 l 1
 209 416 l 1
 239 416 l 1
340 48 m 1
 371 48 l 1
 400 -32 l 1
 368 -32 l 1
 340 48 l 1
208 0 m 1
 208 48 l 1
 240 48 l 1
 240 0 l 1
 208 0 l 1
EndSplineSet
EndChar

StartChar: ion-edit
Encoding: 215 62143 214
Width: 448
LayerCount: 2
Fore
SplineSet
381 259 m 1
 131 8 l 1
 40 99 l 1
 291 349 l 1
 381 259 l 1
440 360 m 2
 452 348 451 328 438 315 c 2
 393 270 l 1
 302 361 l 1
 347 406 l 2
 360 419 380 420 392 408 c 2
 440 360 l 2
32 85 m 1
 117 0 l 1
 0 -32 l 1
 32 85 l 1
EndSplineSet
EndChar

StartChar: ion-egg
Encoding: 216 62071 215
Width: 320
LayerCount: 2
Fore
SplineSet
160 416 m 0
 224 416 320 283 320 159 c 0
 320 35 256 -32 160 -32 c 0
 64 -32 0 35 0 159 c 0
 0 283 96 416 160 416 c 0
EndSplineSet
EndChar

StartChar: ion-eject
Encoding: 217 61745 216
Width: 320
LayerCount: 2
Fore
SplineSet
303 128 m 1
 17 128 l 1
 17 128 l 1
 7 128 0 135 0 144 c 0
 0 147 1 149 3 152 c 2
 141 343 l 1
 146 348 152 352 160 352 c 0
 168 352 174 348 179 343 c 1
 317 153 l 2
 319 150 320 147 320 144 c 0
 320 135 313 128 303 128 c 1
 303 128 l 1
308 96 m 2
 315 96 320 91 320 84 c 2
 320 44 l 2
 320 37 315 32 308 32 c 2
 12 32 l 2
 5 32 0 37 0 44 c 2
 0 84 l 2
 0 91 5 96 12 96 c 2
 308 96 l 2
EndSplineSet
EndChar

StartChar: ion-email-unread
Encoding: 218 62403 217
Width: 480
LayerCount: 2
Fore
SplineSet
352 288 m 0
 352 331 373 352 416 352 c 0
 459 352 480 331 480 288 c 0
 480 245 459 224 416 224 c 0
 373 224 352 245 352 288 c 0
209 288 m 1
 336 288 l 1
 336 271 341 255 351 241 c 1
 345 238 337 233 329 229 c 0
 321 225 313 221 306 217 c 0
 299 213 292 209 284 205 c 0
 276 201 269 197 263 194 c 0
 257 191 252 188 247 185 c 0
 242 182 238 180 235 178 c 0
 232 176 231 175 230 175 c 0
 224 172 217 171 209 171 c 0
 201 171 194 172 188 175 c 0
 187 176 173 183 146 198 c 0
 119 213 92 227 65 242 c 0
 38 257 22 265 19 267 c 0
 12 271 7 275 6 278 c 0
 5 282 5 284 7 286 c 0
 9 288 13 288 18 288 c 2
 209 288 l 1
277 175 m 1
 295 186 322 205 360 231 c 1
 376 216 394 208 416 208 c 1
 416 53 l 2
 416 51 415 49 414 46 c 0
 413 43 411 41 409 39 c 0
 407 37 405 35 402 34 c 0
 399 33 396 32 394 32 c 2
 209 32 l 1
 24 32 l 2
 19 32 13 34 8 39 c 0
 3 44 0 48 0 53 c 2
 0 258 l 2
 0 264 3 266 9 263 c 0
 11 262 20 256 35 246 c 0
 50 236 67 224 88 210 c 0
 109 196 127 184 141 175 c 1
 58 82 l 2
 56 80 56 78 57 77 c 0
 59 76 61 76 63 78 c 2
 161 161 l 1
 177 151 186 145 188 144 c 0
 194 141 201 140 209 140 c 0
 217 140 224 141 230 144 c 0
 232 145 241 151 257 161 c 1
 355 78 l 2
 357 76 360 76 361 77 c 0
 362 78 361 80 359 82 c 2
 277 175 l 1
EndSplineSet
EndChar

StartChar: ion-email
Encoding: 219 61746 218
Width: 416
LayerCount: 2
Fore
SplineSet
19 299 m 0
 15 301 8 306 6 310 c 0
 3 318 7 320 18 320 c 2
 209 320 l 1
 400 320 l 2
 411 320 415 318 412 310 c 0
 410 306 403 301 399 299 c 0
 388 293 236 210 230 207 c 0
 224 204 218 203 209 203 c 0
 200 203 194 204 188 207 c 0
 182 210 30 293 19 299 c 0
408 295 m 0
 417 299 416 294 416 290 c 2
 416 85 l 2
 416 76 404 64 394 64 c 2
 209 64 l 1
 24 64 l 2
 14 64 0 76 0 85 c 2
 0 290 l 1
 0 290 0 299 9 295 c 0
 17 291 92 239 141 207 c 1
 58 114 l 2
 56 112 56 110 57 109 c 0
 58 108 61 108 63 110 c 2
 161 193 l 1
 176 183 186 177 188 176 c 0
 196 172 202 172 209 172 c 0
 216 172 222 172 230 176 c 0
 232 177 242 183 257 193 c 1
 355 110 l 2
 357 108 360 108 361 109 c 0
 362 110 361 112 359 114 c 2
 277 207 l 1
 326 239 400 291 408 295 c 0
EndSplineSet
EndChar

StartChar: ion-erlenmeyer-flask-bubbles
Encoding: 220 62404 219
Width: 384
LayerCount: 2
Fore
SplineSet
382 21 m 2
 384 17 385 11 382 7 c 0
 379 3 374 0 369 0 c 2
 192 0 l 1
 14 0 l 2
 9 0 5 3 2 7 c 0
 -1 11 0 17 2 21 c 2
 120 220 l 1
 120 370 l 2
 120 378 126 384 134 384 c 0
 142 384 149 378 149 370 c 2
 149 290 l 1
 153 293 159 295 165 295 c 0
 180 295 192 283 192 268 c 0
 192 253 180 242 165 242 c 0
 159 242 153 244 149 247 c 1
 149 216 l 2
 149 214 148 212 147 210 c 2
 112 151 l 1
 184 151 l 1
 169 157 158 171 158 188 c 0
 158 211 177 230 201 230 c 0
 216 230 228 222 236 211 c 1
 235 213 235 214 235 216 c 2
 235 370 l 2
 235 378 241 384 249 384 c 0
 257 384 264 378 264 370 c 2
 264 220 l 1
 382 21 l 2
218 151 m 1
 271 151 l 1
 240 205 l 2
 242 200 243 194 243 188 c 0
 243 171 233 157 218 151 c 1
201 319 m 0
 189 319 179 328 179 340 c 0
 179 352 189 361 201 361 c 0
 213 361 223 352 223 340 c 0
 223 328 213 319 201 319 c 0
EndSplineSet
EndChar

StartChar: ion-erlenmeyer-flask
Encoding: 221 62405 220
Width: 384
LayerCount: 2
Fore
SplineSet
375 52 m 2
 381 43 384 32 384 20 c 0
 384 -8 368 -32 321 -32 c 2
 63 -32 l 2
 16 -32 0 -8 0 20 c 0
 0 32 3 43 9 52 c 2
 58 125 l 1
 107 202 l 2
 120 222 128 246 128 272 c 2
 128 364 l 1
 128 364 114 398 112 407 c 0
 110 415 113 416 129 416 c 2
 255 416 l 2
 271 416 273 415 271 407 c 0
 269 398 256 385 256 365 c 2
 256 272 l 2
 256 246 262 222 275 202 c 2
 375 52 l 2
345 7 m 0
 348 10 352 15 352 21 c 0
 352 26 350 31 348 35 c 2
 247 185 l 1
 231 211 224 241 224 272 c 2
 224 384 l 1
 160 384 l 1
 160 272 l 2
 160 240 151 210 135 185 c 2
 36 35 l 2
 34 31 32 26 32 21 c 0
 32 15 35 10 38 7 c 0
 42 3 50 0 63 0 c 2
 321 0 l 2
 334 0 341 3 345 7 c 0
325 37 m 1
 326 35 328 31 328 29 c 0
 328 22 322 14 314 14 c 2
 70 14 l 2
 63 14 56 20 56 28 c 0
 56 31 57 34 59 36 c 2
 140 160 l 1
 243 160 l 1
 325 36 l 1
 325 37 l 1
238 106 m 0
 240 105 242 104 244 104 c 0
 246 104 247 104 249 106 c 0
 250 108 252 110 252 112 c 0
 252 114 251 116 249 118 c 0
 248 120 246 120 244 120 c 0
 242 120 240 120 238 118 c 0
 237 116 236 114 236 112 c 0
 236 110 236 108 238 106 c 0
285 47 m 0
 289 49 289 54 287 58 c 2
 264 94 l 2
 263 96 260 98 257 98 c 0
 255 98 254 98 253 97 c 0
 249 95 249 90 251 86 c 2
 274 50 l 2
 275 48 279 46 281 46 c 0
 282 46 284 46 285 47 c 0
EndSplineSet
EndChar

StartChar: ion-eye-disabled
Encoding: 222 62214 221
Width: 448
LayerCount: 2
Fore
SplineSet
344 290 m 1
 385 263 420 224 448 190 c 1
 397 136 324 55 224 55 c 0
 188 55 159 63 132 77 c 1
 55 0 l 1
 32 23 l 1
 103 94 l 1
 67 119 35 155 0 192 c 1
 78 277 142 329 224 329 c 0
 258 329 288 320 316 306 c 1
 393 384 l 1
 416 361 l 1
 344 290 l 1
134 192 m 0
 134 173 140 156 150 141 c 1
 177 168 l 1
 173 175 172 183 172 192 c 0
 172 221 195 245 224 245 c 2
 232 245 l 1
 227 239 224 232 224 224 c 0
 224 221 224 219 225 216 c 1
 276 266 l 1
 261 277 243 283 224 283 c 0
 175 283 134 242 134 192 c 0
224 101 m 0
 273 101 314 142 314 192 c 0
 314 211 308 229 298 244 c 1
 248 193 l 1
 251 192 253 192 256 192 c 0
 264 192 270 195 276 199 c 1
 276 192 l 2
 276 163 253 139 224 139 c 0
 215 139 207 141 200 145 c 1
 172 118 l 1
 187 107 205 101 224 101 c 0
EndSplineSet
EndChar

StartChar: ion-eye
Encoding: 223 61747 222
Width: 448
LayerCount: 2
Fore
SplineSet
224 320 m 0
 323 320 396 250 448 191 c 1
 397 141 324 64 224 64 c 0
 124 64 67 124 0 192 c 1
 78 271 142 320 224 320 c 0
224 101 m 0
 273 101 314 142 314 192 c 0
 314 242 273 283 224 283 c 0
 175 283 134 242 134 192 c 0
 134 142 175 101 224 101 c 0
224 224 m 0
 224 206 238 192 256 192 c 0
 264 192 270 195 276 199 c 1
 276 192 l 2
 276 163 253 139 224 139 c 0
 195 139 172 163 172 192 c 0
 172 221 195 245 224 245 c 2
 232 245 l 1
 227 239 224 232 224 224 c 0
EndSplineSet
EndChar

StartChar: ion-female
Encoding: 224 62072 223
Width: 256
LayerCount: 2
Fore
SplineSet
160 164 m 1
 160 96 l 1
 224 96 l 1
 224 32 l 1
 160 32 l 1
 160 -32 l 1
 96 -32 l 1
 96 32 l 1
 32 32 l 1
 32 96 l 1
 96 96 l 1
 96 164 l 1
 41 178 0 228 0 288 c 0
 0 359 57 416 128 416 c 0
 199 416 256 359 256 288 c 0
 256 228 215 178 160 164 c 1
128 208 m 0
 172 208 208 244 208 288 c 0
 208 332 172 368 128 368 c 0
 84 368 48 332 48 288 c 0
 48 244 84 208 128 208 c 0
EndSplineSet
EndChar

StartChar: ion-filing
Encoding: 225 61748 224
Width: 384
LayerCount: 2
Fore
SplineSet
317 319 m 2
 329 319 336 319 336 299 c 2
 336 271 l 1
 48 271 l 1
 48 299 l 2
 48 319 56 319 68 319 c 2
 317 319 l 2
269 352 m 2
 282 352 288 351 288 333 c 1
 96 333 l 1
 96 351 103 352 116 352 c 2
 269 352 l 2
368 278 m 2
 381 270 385 261 383 237 c 2
 366 53 l 1
 362 32 350 32 342 32 c 2
 42 32 l 2
 34 32 22 32 18 53 c 1
 1 238 l 2
 -2 264 2 269 16 278 c 2
 31 288 l 1
 31 256 l 1
 352 256 l 1
 352 288 l 1
 368 278 l 2
EndSplineSet
EndChar

StartChar: ion-film-marker
Encoding: 226 61749 225
Width: 416
LayerCount: 2
Fore
SplineSet
400 240 m 2
 409 240 416 233 416 225 c 2
 416 15 l 2
 416 7 409 0 400 0 c 2
 16 0 l 2
 7 0 0 7 0 15 c 2
 0 225 l 2
 0 233 6 239 13 240 c 1
 11 242 10 244 9 247 c 2
 0 292 l 2
 -2 300 5 308 13 310 c 2
 383 384 l 2
 391 386 399 380 401 372 c 2
 410 326 l 2
 412 318 406 310 398 308 c 2
 56 240 l 1
 400 240 l 2
257 46 m 1
 237 104 l 1
 288 140 l 1
 226 140 l 1
 206 198 l 1
 187 140 l 1
 124 140 l 1
 175 104 l 1
 156 46 l 1
 206 82 l 1
 257 46 l 1
EndSplineSet
EndChar

StartChar: ion-fireball
Encoding: 227 62233 226
Width: 320
LayerCount: 2
Fore
SplineSet
297 210 m 1
 311 186 320 158 320 128 c 0
 320 95 310 65 294 40 c 1
 294 40 l 1
 294 40 l 1
 265 -3 216 -32 160 -32 c 0
 143 -32 128 -31 114 -25 c 0
 100 -19 89 -12 81 0 c 0
 70 16 64 28 60 52 c 1
 54 27 62 4 69 -8 c 1
 26 18 0 63 0 117 c 2
 0 121 l 1
 5 199 65 230 90 272 c 0
 98 286 103 302 100 320 c 1
 111 311 115 295 115 281 c 0
 115 265 112 252 112 252 c 1
 116 260 119 270 121 283 c 0
 127 318 123 368 84 415 c 1
 83 416 l 1
 83 416 90 416 101 413 c 1
 196 397 270 322 285 227 c 0
 287 215 288 204 288 192 c 0
 288 176 286 160 283 145 c 1
 293 168 296 188 297 200 c 1
 297 210 l 1
EndSplineSet
EndChar

StartChar: ion-flag
Encoding: 228 62073 227
Width: 384
LayerCount: 2
Fore
SplineSet
362 266 m 1
 362 266 374 268 384 272 c 1
 384 256 377 240 375 236 c 0
 347 186 276 113 194 152 c 0
 129 183 102 182 77 176 c 0
 76 176 75 175 74 175 c 0
 71 174 59 170 48 174 c 1
 48 371 l 2
 48 387 62 402 81 406 c 0
 120 413 187 411 229 332 c 0
 268 258 326 260 362 266 c 1
24 416 m 2
 28 416 32 412 32 408 c 2
 32 -24 l 2
 32 -28 28 -32 24 -32 c 2
 8 -32 l 2
 4 -32 0 -28 0 -24 c 2
 0 408 l 2
 0 412 4 416 8 416 c 2
 24 416 l 2
EndSplineSet
EndChar

StartChar: ion-flame
Encoding: 229 62234 228
Width: 256
LayerCount: 2
Fore
SplineSet
1 128 m 0
 -10 237 73 352 160 416 c 1
 134 271 257 274 256 128 c 0
 255 8 151 -32 128 -32 c 0
 105 -32 14 -6 1 128 c 0
88 80 m 0
 88 36 128 0 128 0 c 1
 128 0 169 36 169 80 c 0
 169 124 128 160 128 160 c 1
 128 160 88 124 88 80 c 0
EndSplineSet
EndChar

StartChar: ion-flash-off
Encoding: 230 61750 229
Width: 448
LayerCount: 2
Fore
SplineSet
115 -4 m 1
 46 34 0 108 0 192 c 0
 0 316 100 416 224 416 c 0
 248 416 271 412 292 405 c 0
 294 404 295 404 297 403 c 0
 309 399 321 394 332 388 c 1
 332 388 l 1
 401 350 448 276 448 192 c 0
 448 68 348 -32 224 -32 c 0
 200 -32 177 -28 156 -21 c 0
 154 -20 153 -20 151 -19 c 0
 139 -15 127 -11 116 -5 c 1
 115 -4 l 1
86 291 m 1
 66 263 54 229 54 192 c 0
 54 127 90 71 144 42 c 0
 150 39 157 35 163 33 c 0
 165 32 166 32 168 31 c 0
 177 28 187 26 197 24 c 0
 206 22 215 22 224 22 c 0
 261 22 295 34 323 54 c 1
 271 107 l 1
 307 147 l 1
 362 93 l 1
 382 121 394 155 394 192 c 0
 394 258 357 315 303 343 c 0
 297 346 291 349 285 351 c 0
 283 352 282 352 280 353 c 0
 271 356 261 358 251 360 c 0
 242 362 233 362 224 362 c 0
 187 362 152 350 124 330 c 1
 177 278 l 1
 141 237 l 1
 86 291 l 1
178 58 m 1
 216 171 l 1
 131 171 l 1
 270 326 l 1
 232 213 l 1
 317 213 l 1
 178 58 l 1
EndSplineSet
EndChar

StartChar: ion-flash
Encoding: 231 61751 230
Width: 320
LayerCount: 2
Fore
SplineSet
0 160 m 1
 224 416 l 1
 173 224 l 1
 320 224 l 1
 96 -32 l 1
 147 160 l 1
 0 160 l 1
EndSplineSet
EndChar

StartChar: ion-folder
Encoding: 232 61753 231
Width: 384
LayerCount: 2
Fore
SplineSet
366 256 m 2
 384 256 385 249 384 238 c 2
 372 52 l 2
 371 41 369 32 351 32 c 2
 34 32 l 2
 16 32 14 41 13 52 c 2
 0 236 l 2
 -1 247 0 256 18 256 c 2
 366 256 l 2
362 305 m 2
 364 272 l 1
 20 272 l 1
 20 278 24 318 26 335 c 0
 28 353 34 352 51 352 c 2
 126 352 l 2
 154 352 149 352 163 337 c 0
 179 319 182 320 204 320 c 2
 347 320 l 2
 358 320 362 317 362 305 c 2
EndSplineSet
EndChar

StartChar: ion-fork-repo
Encoding: 233 62144 232
Width: 320
LayerCount: 2
Fore
SplineSet
320 368 m 1
 320 304 l 1
 272 304 l 1
 272 256 l 1
 208 256 l 1
 208 304 l 1
 160 304 l 1
 160 368 l 1
 208 368 l 1
 208 416 l 1
 272 416 l 1
 272 368 l 1
 320 368 l 1
208 208 m 1
 272 208 l 1
 272 203 l 1
 272 203 l 1
 272 160 265 133 234 108 c 0
 211 89 183 88 159 86 c 0
 150 85 141 84 133 83 c 0
 127 82 120 78 113 73 c 1
 122 62 128 48 128 32 c 0
 128 -3 99 -32 64 -32 c 0
 29 -32 0 -3 0 32 c 0
 0 56 13 76 32 87 c 1
 32 297 l 1
 13 308 0 328 0 352 c 0
 0 387 29 416 64 416 c 0
 99 416 128 387 128 352 c 0
 128 328 115 308 96 297 c 1
 96 137 l 1
 104 141 114 144 123 146 c 0
 134 148 144 148 154 149 c 0
 171 150 187 152 194 158 c 0
 204 166 208 169 208 208 c 1
64 384 m 0
 46 384 32 370 32 352 c 0
 32 334 46 320 64 320 c 0
 82 320 96 334 96 352 c 0
 96 370 82 384 64 384 c 0
64 0 m 0
 82 0 96 14 96 32 c 0
 96 50 82 64 64 64 c 0
 46 64 32 50 32 32 c 0
 32 14 46 0 64 0 c 0
EndSplineSet
EndChar

StartChar: ion-fork
Encoding: 234 62074 233
Width: 128
LayerCount: 2
Fore
SplineSet
78 299 m 1
 78 299 l 1
 78 299 l 1
 78 299 l 1
128 282 m 0
 128 256 113 234 91 224 c 0
 79 218 80 213 80 213 c 1
 80 213 96 13 96 0 c 0
 96 -13 93 -18 87 -24 c 0
 81 -30 72 -32 64 -32 c 1
 64 -32 l 1
 64 -32 l 1
 56 -32 48 -30 42 -24 c 0
 36 -18 32 -11 32 0 c 0
 32 11 48 213 48 213 c 1
 48 213 48 219 37 224 c 0
 15 234 0 256 0 282 c 0
 0 325 15 375 24 416 c 1
 32 416 l 1
 32 299 l 2
 32 293 35 288 41 288 c 0
 47 288 50 292 51 298 c 1
 51 299 l 1
 60 416 l 1
 68 416 l 1
 78 299 l 1
 78 298 l 1
 79 292 81 288 87 288 c 0
 93 288 96 293 96 299 c 2
 96 416 l 1
 104 416 l 1
 104 416 l 1
 113 376 128 325 128 282 c 0
EndSplineSet
EndChar

StartChar: ion-forward
Encoding: 235 61754 234
Width: 384
LayerCount: 2
Fore
SplineSet
224 150 m 1
 122 150 53 141 0 48 c 1
 0 48 37 256 224 256 c 1
 224 336 l 1
 384 192 l 1
 224 58 l 1
 224 150 l 1
EndSplineSet
EndChar

StartChar: ion-funnel
Encoding: 236 62235 235
Width: 448
LayerCount: 2
Fore
SplineSet
224 416 m 0
 348 416 448 380 448 336 c 0
 448 328 445 321 439 314 c 1
 439 314 l 1
 404 271 288 135 288 96 c 2
 288 92 l 1
 288 9 l 1
 288 9 l 1
 288 -14 259 -32 224 -32 c 0
 189 -32 160 -14 160 9 c 1
 160 9 l 1
 160 96 l 2
 160 135 43 273 11 312 c 1
 11 312 l 1
 4 320 0 328 0 336 c 0
 0 380 100 416 224 416 c 0
224 288 m 0
 316 288 400 310 400 336 c 0
 400 362 317 384 224 384 c 0
 131 384 48 362 48 336 c 0
 48 310 132 288 224 288 c 0
EndSplineSet
EndChar

StartChar: ion-gear-a
Encoding: 237 61757 236
Width: 384
LayerCount: 2
Fore
SplineSet
347 192 m 0
 347 168 362 149 384 136 c 1
 380 123 374 110 368 98 c 1
 343 104 323 95 306 78 c 0
 289 61 284 41 290 16 c 1
 278 10 265 4 252 0 c 1
 239 22 216 37 192 37 c 0
 168 37 145 22 132 0 c 1
 119 4 105 10 93 16 c 1
 99 41 95 61 78 78 c 0
 61 95 41 99 16 93 c 1
 10 105 4 119 0 132 c 1
 22 145 37 168 37 192 c 0
 37 216 22 235 0 248 c 1
 4 261 9 274 16 286 c 1
 41 280 61 289 78 306 c 0
 95 323 99 343 93 368 c 1
 105 374 119 380 132 384 c 1
 145 362 168 347 192 347 c 0
 216 347 239 362 252 384 c 1
 265 380 279 374 291 368 c 1
 285 343 289 323 306 306 c 0
 323 289 343 280 368 286 c 1
 374 274 380 261 384 248 c 1
 362 235 347 216 347 192 c 0
192 94 m 0
 246 94 290 138 290 192 c 0
 290 246 246 290 192 290 c 0
 138 290 94 246 94 192 c 0
 94 138 138 94 192 94 c 0
EndSplineSet
EndChar

StartChar: ion-gear-b
Encoding: 238 61758 237
Width: 384
LayerCount: 2
Fore
SplineSet
384 154 m 1
 340 154 l 1
 336 140 330 127 323 115 c 1
 355 83 l 1
 301 29 l 1
 268 61 l 1
 256 54 244 50 230 46 c 1
 230 0 l 1
 154 0 l 1
 154 46 l 1
 141 50 128 54 116 61 c 1
 83 29 l 1
 29 83 l 1
 61 115 l 1
 54 127 48 140 44 154 c 1
 0 154 l 1
 0 230 l 1
 43 230 l 1
 47 244 52 259 59 271 c 1
 29 301 l 1
 83 355 l 1
 112 326 l 1
 125 334 139 339 154 343 c 1
 154 384 l 1
 230 384 l 1
 230 343 l 1
 245 339 259 334 272 326 c 1
 301 355 l 1
 355 301 l 1
 325 271 l 1
 332 259 338 244 341 230 c 1
 384 230 l 1
 384 154 l 1
192 138 m 0
 222 138 246 162 246 192 c 0
 246 222 222 246 192 246 c 0
 162 246 138 222 138 192 c 0
 138 162 162 138 192 138 c 0
EndSplineSet
EndChar

StartChar: ion-grid
Encoding: 239 61759 238
Width: 320
LayerCount: 2
Fore
SplineSet
64 295 m 2
 64 291 61 288 57 288 c 2
 7 288 l 2
 3 288 0 291 0 295 c 2
 0 345 l 2
 0 349 3 352 7 352 c 2
 57 352 l 2
 61 352 64 349 64 345 c 2
 64 295 l 2
192 295 m 2
 192 291 189 288 185 288 c 2
 135 288 l 2
 131 288 128 291 128 295 c 2
 128 345 l 2
 128 349 131 352 135 352 c 2
 185 352 l 2
 189 352 192 349 192 345 c 2
 192 295 l 2
320 295 m 2
 320 291 317 288 313 288 c 2
 263 288 l 2
 259 288 256 291 256 295 c 2
 256 345 l 2
 256 349 259 352 263 352 c 2
 313 352 l 2
 317 352 320 349 320 345 c 2
 320 295 l 2
64 167 m 2
 64 163 61 160 57 160 c 2
 7 160 l 2
 3 160 0 163 0 167 c 2
 0 217 l 2
 0 221 3 224 7 224 c 2
 57 224 l 2
 61 224 64 221 64 217 c 2
 64 167 l 2
192 167 m 2
 192 163 189 160 185 160 c 2
 135 160 l 2
 131 160 128 163 128 167 c 2
 128 217 l 2
 128 221 131 224 135 224 c 2
 185 224 l 2
 189 224 192 221 192 217 c 2
 192 167 l 2
320 167 m 2
 320 163 317 160 313 160 c 2
 263 160 l 2
 259 160 256 163 256 167 c 2
 256 217 l 2
 256 221 259 224 263 224 c 2
 313 224 l 2
 317 224 320 221 320 217 c 2
 320 167 l 2
64 39 m 2
 64 35 61 32 57 32 c 2
 7 32 l 2
 3 32 0 35 0 39 c 2
 0 89 l 2
 0 93 3 96 7 96 c 2
 57 96 l 2
 61 96 64 93 64 89 c 2
 64 39 l 2
192 39 m 2
 192 35 189 32 185 32 c 2
 135 32 l 2
 131 32 128 35 128 39 c 2
 128 89 l 2
 128 93 131 96 135 96 c 2
 185 96 l 2
 189 96 192 93 192 89 c 2
 192 39 l 2
320 39 m 2
 320 35 317 32 313 32 c 2
 263 32 l 2
 259 32 256 35 256 39 c 2
 256 89 l 2
 256 93 259 96 263 96 c 2
 313 96 l 2
 317 96 320 93 320 89 c 2
 320 39 l 2
EndSplineSet
EndChar

StartChar: ion-hammer
Encoding: 240 62075 239
Width: 320
LayerCount: 2
Fore
SplineSet
314 416 m 2
 317 416 320 413 320 410 c 2
 320 326 l 2
 320 323 317 320 314 320 c 2
 262 320 l 2
 259 320 256 323 256 326 c 2
 256 340 l 1
 250 345 240 349 234 347 c 0
 227 345 211 334 204 322 c 0
 197 310 198 294 198 256 c 1
 206 254 l 2
 211 253 213 248 213 245 c 2
 213 175 l 2
 213 80 224 -26 224 -26 c 2
 224 -29 221 -32 218 -32 c 2
 134 -32 l 2
 131 -32 128 -29 128 -26 c 2
 128 -26 139 80 139 175 c 2
 139 245 l 2
 139 248 142 253 146 254 c 2
 153 256 l 1
 153 299 148 314 131 330 c 0
 113 346 90 349 68 347 c 0
 46 345 17 312 10 302 c 0
 3 292 0 304 0 313 c 0
 1 329 22 373 72 394 c 0
 122 415 163 416 174 416 c 0
 185 416 201 415 212 413 c 0
 223 411 228 395 238 395 c 0
 245 395 252 400 256 404 c 1
 256 410 l 2
 256 413 259 416 262 416 c 2
 314 416 l 2
EndSplineSet
EndChar

StartChar: ion-happy-outline
Encoding: 241 62406 240
Width: 448
LayerCount: 2
Fore
SplineSet
355 158 m 0
 363 154 366 145 362 137 c 0
 338 91 284 64 224 64 c 0
 162 64 106 93 85 138 c 0
 81 146 85 155 93 159 c 0
 95 160 98 160 100 160 c 0
 106 160 111 157 114 151 c 0
 130 117 174 96 224 96 c 0
 273 96 316 117 334 152 c 0
 337 157 342 160 348 160 c 0
 351 160 353 159 355 158 c 0
381 217 m 0
 386 210 385 200 377 195 c 0
 374 193 371 192 367 192 c 0
 362 192 356 194 353 198 c 0
 350 202 346 208 336 208 c 0
 326 208 322 202 319 198 c 0
 316 194 310 192 305 192 c 0
 301 192 298 193 295 195 c 0
 287 201 286 210 292 217 c 0
 303 231 315 240 336 240 c 0
 357 240 371 231 381 217 c 0
157 217 m 0
 162 210 161 200 153 195 c 0
 150 193 147 192 143 192 c 0
 138 192 132 194 129 198 c 0
 126 202 122 208 112 208 c 0
 102 208 98 202 95 198 c 0
 92 194 86 192 81 192 c 0
 77 192 74 193 71 195 c 0
 63 201 62 210 68 217 c 0
 79 231 91 240 112 240 c 0
 133 240 147 231 157 217 c 0
224 416 m 0
 348 416 448 316 448 192 c 0
 448 68 348 -32 224 -32 c 0
 100 -32 0 68 0 192 c 0
 0 316 100 416 224 416 c 0
360 56 m 0
 396 92 416 141 416 192 c 0
 416 243 396 292 360 328 c 0
 324 364 275 384 224 384 c 0
 173 384 124 364 88 328 c 0
 52 292 32 243 32 192 c 0
 32 141 52 92 88 56 c 0
 124 20 173 0 224 0 c 0
 275 0 324 20 360 56 c 0
EndSplineSet
EndChar

StartChar: ion-happy
Encoding: 242 62236 241
Width: 448
LayerCount: 2
Fore
SplineSet
224 416 m 0
 348 416 448 316 448 192 c 0
 448 68 348 -32 224 -32 c 0
 100 -32 0 68 0 192 c 0
 0 316 100 416 224 416 c 0
71 195 m 0
 74 193 77 192 81 192 c 0
 86 192 92 194 95 198 c 0
 98 202 102 208 112 208 c 0
 122 208 126 202 129 198 c 0
 132 194 138 192 143 192 c 0
 147 192 150 193 153 195 c 0
 161 200 162 210 157 217 c 0
 147 231 133 240 112 240 c 0
 91 240 79 231 68 217 c 0
 62 210 63 201 71 195 c 0
362 137 m 0
 366 145 363 154 355 158 c 0
 353 159 351 160 348 160 c 0
 342 160 337 157 334 152 c 0
 316 117 273 96 224 96 c 0
 174 96 130 117 114 151 c 0
 111 157 106 160 100 160 c 0
 98 160 95 160 93 159 c 0
 85 155 81 146 85 138 c 0
 106 93 162 64 224 64 c 0
 284 64 338 91 362 137 c 0
377 195 m 0
 385 200 386 210 381 217 c 0
 371 231 357 240 336 240 c 0
 315 240 303 231 292 217 c 0
 286 210 287 201 295 195 c 0
 298 193 301 192 305 192 c 0
 310 192 316 194 319 198 c 0
 322 202 326 208 336 208 c 0
 346 208 350 202 353 198 c 0
 356 194 362 192 367 192 c 0
 371 192 374 193 377 195 c 0
EndSplineSet
EndChar

StartChar: ion-headphone
Encoding: 243 61760 242
Width: 384
LayerCount: 2
Fore
SplineSet
383 210 m 0
 386 159 380 80 370 48 c 0
 350 -19 330 -32 298 -32 c 0
 266 -32 240 -5 240 27 c 2
 240 133 l 2
 240 166 263 192 293 192 c 0
 311 192 327 183 337 168 c 1
 337 168 348 175 350 190 c 0
 352 205 354 224 345 254 c 0
 336 284 324 273 309 292 c 0
 307 295 304 299 301 302 c 2
 291 312 l 2
 289 314 288 315 286 316 c 0
 275 325 265 333 252 339 c 0
 233 348 213 352 192 352 c 0
 171 352 150 348 131 339 c 0
 118 333 109 325 98 316 c 0
 96 315 95 314 93 312 c 2
 83 302 l 1
 83 302 77 295 75 292 c 0
 60 273 48 284 39 254 c 0
 30 223 32 205 34 190 c 0
 36 175 47 168 47 168 c 1
 57 183 73 192 91 192 c 0
 121 192 144 165 144 133 c 2
 144 27 l 2
 144 -5 118 -32 86 -32 c 0
 54 -32 34 -19 14 48 c 0
 4 80 -2 159 1 210 c 0
 4 270 23 318 57 355 c 1
 57 355 l 1
 65 363 72 371 81 378 c 0
 90 385 100 391 110 396 c 0
 135 409 163 416 192 416 c 0
 221 416 249 409 274 396 c 0
 284 391 293 385 302 378 c 0
 311 371 319 363 327 355 c 1
 327 355 l 1
 361 318 380 270 383 210 c 0
EndSplineSet
EndChar

StartChar: ion-heart-broken
Encoding: 244 62237 243
Width: 416
LayerCount: 2
Fore
SplineSet
181 160 m 1
 181 124 179 89 185 53 c 0
 187 43 187 33 187 22 c 1
 34 181 l 2
 -11 228 -11 305 34 352 c 0
 74 393 137 395 178 355 c 1
 176 340 175 324 175 309 c 1
 157 295 135 288 119 270 c 1
 130 277 l 2
 147 288 145 285 165 291 c 0
 168 292 173 294 176 296 c 1
 176 295 175 291 175 290 c 0
 176 270 186 251 190 230 c 0
 190 225 191 220 189 215 c 0
 181 198 182 178 181 160 c 1
274 147 m 0
 282 129 297 118 312 108 c 1
 208 0 l 1
 191 18 l 1
 191 31 187 44 187 56 c 0
 185 104 197 150 208 198 c 1
 208 198 l 1
 209 197 210 197 211 197 c 0
 241 191 263 173 274 147 c 0
382 352 m 0
 428 305 428 228 382 181 c 2
 314 111 l 1
 286 135 272 165 249 192 c 0
 237 205 223 215 208 224 c 1
 205 237 200 250 197 263 c 0
 194 275 211 284 213 294 c 0
 216 306 216 320 216 333 c 1
 235 352 l 1
 275 394 342 394 382 352 c 0
EndSplineSet
EndChar

StartChar: ion-heart
Encoding: 245 61761 244
Width: 416
LayerCount: 2
Fore
SplineSet
382 352 m 0
 428 305 428 228 382 181 c 2
 208 0 l 1
 34 181 l 2
 -12 228 -12 305 34 352 c 0
 74 394 141 394 181 352 c 2
 208 324 l 1
 236 352 l 1
 276 394 342 394 382 352 c 0
EndSplineSet
EndChar

StartChar: ion-help-buoy
Encoding: 246 62076 245
Width: 448
LayerCount: 2
Fore
SplineSet
224 416 m 0
 348 416 448 316 448 192 c 0
 448 68 348 -32 224 -32 c 0
 100 -32 0 68 0 192 c 0
 0 316 100 416 224 416 c 0
402 264 m 1
 392 288 379 309 360 328 c 0
 341 347 319 360 295 370 c 1
 276 309 l 1
 290 303 303 294 314 283 c 0
 325 272 335 259 341 245 c 1
 402 264 l 1
224 96 m 0
 277 96 320 139 320 192 c 0
 320 245 277 288 224 288 c 0
 171 288 128 245 128 192 c 0
 128 139 171 96 224 96 c 0
88 328 m 0
 69 309 56 287 46 263 c 1
 107 244 l 1
 113 258 122 271 133 282 c 0
 144 293 157 303 171 309 c 1
 152 370 l 1
 128 360 107 347 88 328 c 0
46 120 m 1
 56 96 69 75 88 56 c 0
 107 37 129 24 153 14 c 1
 172 75 l 1
 158 81 145 90 134 101 c 0
 123 112 113 125 107 139 c 1
 46 120 l 1
360 56 m 0
 379 75 392 97 402 121 c 1
 341 140 l 1
 335 126 326 113 315 102 c 0
 304 91 291 81 277 75 c 1
 296 14 l 1
 320 24 341 37 360 56 c 0
EndSplineSet
EndChar

StartChar: ion-help-circled
Encoding: 247 61762 246
Width: 448
LayerCount: 2
Fore
SplineSet
224 416 m 0
 348 416 448 316 448 192 c 0
 448 68 348 -32 224 -32 c 0
 100 -32 0 68 0 192 c 0
 0 316 100 416 224 416 c 0
244 89 m 0
 245 107 232 120 215 120 c 0
 199 120 185 109 185 91 c 0
 185 73 197 61 213 61 c 0
 230 61 244 71 244 89 c 0
293 217 m 0
 300 227 305 239 305 253 c 0
 305 276 296 293 280 305 c 0
 263 318 243 323 218 323 c 0
 199 323 184 319 171 310 c 0
 152 297 143 276 143 242 c 1
 192 242 l 1
 192 251 191 261 196 269 c 0
 201 277 209 284 222 284 c 0
 235 284 241 281 247 273 c 0
 252 266 255 258 255 250 c 0
 255 243 251 236 247 230 c 0
 245 226 241 223 237 220 c 2
 237 220 211 205 202 190 c 0
 195 179 193 166 192 149 c 0
 192 148 192 145 196 145 c 2
 235 145 l 1
 235 145 240 148 240 149 c 0
 240 155 241 164 242 168 c 0
 244 175 248 180 254 185 c 2
 268 194 l 1
 280 203 289 211 293 217 c 0
EndSplineSet
EndChar

StartChar: ion-help
Encoding: 248 61763 247
Width: 256
LayerCount: 2
Fore
SplineSet
217 371 m 0
 242 352 256 325 256 288 c 0
 256 266 248 246 237 231 c 0
 230 222 216 210 197 195 c 1
 176 181 l 1
 166 173 159 163 156 153 c 0
 154 147 153 134 153 124 c 0
 153 122 152 118 146 118 c 2
 84 118 l 2
 77 118 77 121 77 123 c 0
 78 149 81 172 92 189 c 0
 107 212 149 237 149 237 c 2
 155 242 160 246 164 252 c 0
 171 262 176 273 176 284 c 0
 176 297 173 310 165 320 c 0
 155 332 144 338 124 338 c 0
 104 338 92 327 84 314 c 0
 76 301 77 285 77 271 c 1
 0 271 l 1
 0 325 14 359 44 379 c 0
 64 393 89 399 119 399 c 0
 158 399 189 392 217 371 c 0
114 78 m 0
 141 77 161 58 160 30 c 0
 159 2 138 -16 111 -15 c 0
 85 -14 65 4 66 32 c 0
 67 60 88 79 114 78 c 0
EndSplineSet
EndChar

StartChar: ion-home
Encoding: 249 61764 248
Width: 384
LayerCount: 2
Fore
SplineSet
384 160 m 1
 336 160 l 1
 336 0 l 1
 240 0 l 1
 240 128 l 1
 144 128 l 1
 144 0 l 1
 48 0 l 1
 48 160 l 1
 0 160 l 1
 192 384 l 1
 384 160 l 1
EndSplineSet
EndChar

StartChar: ion-icecream
Encoding: 250 62077 249
Width: 320
LayerCount: 2
Fore
SplineSet
32 192 m 1
 288 192 l 1
 160 -32 l 1
 32 192 l 1
307 275 m 0
 315 270 320 262 320 252 c 0
 320 236 306 224 290 224 c 2
 286 224 l 1
 34 224 l 1
 30 224 l 2
 14 224 0 237 0 252 c 0
 0 262 6 270 14 275 c 0
 15 275 15 277 16 277 c 0
 20 280 23 284 24 289 c 1
 24 290 l 1
 22 296 22 302 22 308 c 0
 22 350 56 384 98 384 c 0
 106 384 114 382 121 380 c 1
 118 368 117 349 117 349 c 2
 119 364 128 378 128 378 c 1
 146 401 174 416 205 416 c 0
 258 416 301 373 301 320 c 0
 301 309 299 299 296 290 c 1
 296 289 l 2
 296 285 300 280 304 277 c 0
 305 277 306 275 307 275 c 0
EndSplineSet
EndChar

StartChar: ion-image
Encoding: 251 61767 250
Width: 448
LayerCount: 2
Fore
SplineSet
336 224 m 0
 310 224 288 246 288 272 c 0
 288 298 310 320 336 320 c 0
 362 320 384 298 384 272 c 0
 384 246 362 224 336 224 c 0
420 384 m 2
 436 384 448 372 448 356 c 2
 448 28 l 2
 448 12 436 0 420 0 c 2
 28 0 l 2
 12 0 0 12 0 28 c 2
 0 356 l 2
 0 372 12 384 28 384 c 2
 420 384 l 2
317 186 m 2
 416 80 l 1
 416 340 l 2
 416 347 410 352 403 352 c 2
 45 352 l 2
 38 352 33 347 32 340 c 1
 32 80 l 1
 158 232 l 2
 162 236 168 240 175 240 c 0
 182 240 188 238 192 233 c 2
 246 174 l 1
 250 170 l 2
 253 168 257 166 261 166 c 0
 265 166 269 168 273 171 c 2
 291 187 l 2
 295 190 299 192 304 192 c 0
 309 192 314 190 317 186 c 2
EndSplineSet
EndChar

StartChar: ion-images
Encoding: 252 61768 251
Width: 448
LayerCount: 2
Fore
SplineSet
426 308 m 2
 439 307 449 296 448 284 c 2
 434 21 l 2
 433 8 422 -1 409 0 c 2
 79 16 l 2
 66 17 56 26 57 39 c 2
 59 85 l 1
 44 84 l 2
 32 83 22 91 21 102 c 2
 0 338 l 2
 -1 349 7 359 19 360 c 2
 315 384 l 2
 327 385 337 377 338 366 c 2
 343 312 l 1
 426 308 l 2
71 302 m 2
 72 314 82 324 95 324 c 2
 314 313 l 1
 312 344 l 1
 311 344 l 1
 311 345 l 1
 310 350 306 353 301 353 c 2
 40 331 l 2
 35 331 30 327 30 322 c 1
 30 322 l 1
 30 321 l 1
 46 143 l 1
 64 168 l 1
 71 302 l 2
405 66 m 1
 415 264 l 1
 415 265 l 1
 415 265 l 1
 415 271 410 275 404 275 c 2
 346 278 l 1
 317 280 l 1
 113 289 l 2
 107 289 102 285 101 280 c 1
 101 280 l 1
 101 279 l 1
 98 216 l 1
 91 88 l 1
 91 81 l 1
 97 88 l 1
 199 197 l 2
 203 201 207 203 213 203 c 0
 219 203 224 200 227 196 c 2
 270 147 l 1
 273 144 l 2
 275 142 279 140 283 140 c 0
 287 140 288 141 292 143 c 2
 309 155 l 2
 313 158 316 159 320 159 c 0
 324 159 329 157 331 154 c 2
 358 121 l 1
 405 66 l 1
341 186 m 0
 321 186 306 201 306 221 c 0
 306 241 322 256 341 256 c 0
 361 256 376 240 376 221 c 0
 376 202 360 186 341 186 c 0
EndSplineSet
EndChar

StartChar: ion-information-circled
Encoding: 253 61769 252
Width: 448
LayerCount: 2
Fore
SplineSet
448 195 m 0
 450 71 351 -30 227 -32 c 0
 103 -34 2 65 0 189 c 0
 -2 313 97 414 221 416 c 0
 345 418 446 319 448 195 c 0
224 336 m 0
 206 336 192 322 192 304 c 0
 192 286 206 272 224 272 c 0
 242 272 256 286 256 304 c 0
 256 322 242 336 224 336 c 0
268 53 m 1
 268 64 l 1
 246 64 l 1
 246 236 l 1
 180 236 l 1
 180 224 l 1
 202 224 l 1
 202 64 l 1
 180 64 l 1
 180 53 l 1
 268 53 l 1
EndSplineSet
EndChar

StartChar: ion-information
Encoding: 254 61770 253
Width: 128
LayerCount: 2
Fore
SplineSet
96 0 m 1
 128 0 l 1
 128 -16 l 1
 0 -16 l 1
 0 0 l 1
 32 0 l 1
 32 240 l 1
 0 240 l 1
 0 256 l 1
 96 256 l 1
 96 0 l 1
64 304 m 0
 37 304 16 325 16 352 c 0
 16 379 37 400 64 400 c 0
 91 400 112 379 112 352 c 0
 112 325 91 304 64 304 c 0
EndSplineSet
EndChar

StartChar: ion-ionic
Encoding: 255 61771 254
Width: 416
LayerCount: 2
Fore
SplineSet
376 315 m 1
 401 281 416 238 416 192 c 0
 416 77 323 -16 208 -16 c 0
 93 -16 0 77 0 192 c 0
 0 307 93 400 208 400 c 0
 254 400 297 385 331 360 c 1
 336 363 342 365 349 365 c 0
 367 365 381 351 381 333 c 0
 381 326 379 320 376 315 c 1
344 56 m 0
 362 74 375 94 385 117 c 0
 395 141 400 166 400 192 c 0
 400 218 395 243 385 267 c 0
 379 280 372 293 364 305 c 1
 360 303 354 301 349 301 c 0
 331 301 317 315 317 333 c 0
 317 338 319 344 321 348 c 1
 309 356 296 363 283 369 c 0
 259 379 234 384 208 384 c 0
 182 384 157 379 133 369 c 0
 110 359 90 346 72 328 c 0
 54 310 41 290 31 267 c 0
 21 243 16 218 16 192 c 0
 16 166 21 141 31 117 c 0
 41 94 54 74 72 56 c 0
 90 38 110 25 133 15 c 0
 157 5 182 0 208 0 c 0
 234 0 259 5 283 15 c 0
 306 25 326 38 344 56 c 0
112 192 m 0
 112 256 144 288 208 288 c 0
 272 288 304 256 304 192 c 0
 304 128 272 96 208 96 c 0
 144 96 112 128 112 192 c 0
EndSplineSet
EndChar

StartChar: ion-ios-alarm-outline
Encoding: 256 62407 255
Width: 404
LayerCount: 2
Fore
SplineSet
384 256 m 1
 330 308 l 1
 321 299 l 1
 356 267 378 220 378 169 c 0
 378 125 362 86 335 55 c 1
 371 10 l 1
 359 0 l 1
 324 43 l 1
 292 13 249 -6 202 -6 c 1
 202 -6 l 1
 202 -6 l 1
 155 -6 112 13 80 43 c 1
 45 0 l 1
 33 10 l 1
 69 55 l 1
 42 86 26 126 26 170 c 0
 26 221 48 267 83 299 c 1
 74 308 l 1
 20 256 l 1
 8 270 0 288 0 308 c 0
 0 352 35 388 80 390 c 1
 85 390 l 2
 105 390 124 383 139 372 c 1
 85 320 l 1
 96 309 l 1
 122 328 152 341 186 344 c 1
 186 344 l 1
 186 352 194 360 202 360 c 0
 210 360 217 352 217 344 c 1
 217 344 l 1
 251 341 282 328 308 309 c 1
 319 320 l 1
 265 372 l 1
 280 383 299 390 319 390 c 2
 324 390 l 1
 369 388 404 352 404 308 c 0
 404 288 396 270 384 256 c 1
22 280 m 1
 113 369 l 1
 104 374 94 376 81 375 c 0
 44 373 16 343 16 308 c 0
 16 298 18 289 22 280 c 1
362 172 m 0
 362 260 290 330 202 330 c 0
 114 330 42 260 42 172 c 0
 42 84 114 14 202 14 c 0
 290 14 362 84 362 172 c 0
291 369 m 1
 382 280 l 1
 386 289 388 298 388 308 c 0
 388 343 360 373 323 375 c 0
 310 376 300 374 291 369 c 1
202 288 m 1
 218 288 l 1
 218 144 l 1
 106 144 l 1
 106 160 l 1
 202 160 l 1
 202 288 l 1
EndSplineSet
EndChar

StartChar: ion-ios-alarm
Encoding: 257 62408 256
Width: 404
LayerCount: 2
Fore
SplineSet
385 256 m 1
 330 308 l 1
 321 299 l 1
 356 267 378 220 378 169 c 0
 378 125 362 86 335 55 c 1
 372 10 l 1
 359 0 l 1
 324 43 l 1
 292 13 249 -6 202 -6 c 1
 202 -6 l 1
 202 -6 l 1
 155 -6 112 13 80 43 c 1
 45 0 l 1
 33 10 l 1
 69 55 l 1
 42 86 26 125 26 169 c 0
 26 220 48 267 83 299 c 1
 74 308 l 1
 20 256 l 1
 8 270 0 288 0 308 c 0
 0 352 35 388 80 390 c 1
 85 390 l 2
 105 390 124 383 139 372 c 1
 85 319 l 1
 96 309 l 1
 122 328 152 341 186 344 c 1
 186 344 l 1
 186 352 194 360 202 360 c 0
 210 360 217 352 217 344 c 1
 217 344 l 1
 251 341 282 328 308 309 c 1
 319 320 l 1
 265 372 l 1
 280 383 299 390 319 390 c 2
 324 390 l 1
 369 388 404 352 404 308 c 0
 404 288 397 270 385 256 c 1
218 144 m 1
 218 288 l 1
 202 288 l 1
 202 160 l 1
 106 160 l 1
 106 144 l 1
 218 144 l 1
EndSplineSet
EndChar

StartChar: ion-ios-albums-outline
Encoding: 258 62409 257
Width: 448
LayerCount: 2
Fore
SplineSet
432 304 m 1
 16 304 l 1
 16 16 l 1
 432 16 l 1
 432 304 l 1
448 320 m 1
 448 320 l 1
 448 0 l 1
 0 0 l 1
 0 320 l 1
 448 320 l 1
40 336 m 1
 40 352 l 1
 408 352 l 1
 408 336 l 1
 40 336 l 1
72 368 m 1
 72 384 l 1
 376 384 l 1
 376 368 l 1
 72 368 l 1
EndSplineSet
EndChar

StartChar: ion-ios-albums
Encoding: 259 62410 258
Width: 448
LayerCount: 2
Fore
SplineSet
448 320 m 1
 448 320 l 1
 448 0 l 1
 0 0 l 1
 0 320 l 1
 448 320 l 1
40 336 m 1
 40 352 l 1
 408 352 l 1
 408 336 l 1
 40 336 l 1
72 368 m 1
 72 384 l 1
 376 384 l 1
 376 368 l 1
 72 368 l 1
EndSplineSet
EndChar

StartChar: ion-ios-americanfootball-outline
Encoding: 260 62411 259
Width: 416
LayerCount: 2
Fore
SplineSet
331 315 m 0
 443 203 412 -12 412 -12 c 1
 412 -12 386 -16 347 -16 c 0
 274 -16 158 -4 85 69 c 0
 -27 181 4 396 4 396 c 1
 4 396 30 400 69 400 c 0
 142 400 258 388 331 315 c 0
17 383 m 1
 15 364 12 323 17 276 c 0
 18 268 19 260 20 253 c 1
 147 380 l 1
 122 383 96 385 69 385 c 1
 69 385 l 1
 69 385 l 1
 47 385 28 384 17 383 c 1
96 80 m 0
 126 50 168 27 220 14 c 0
 230 11 240 9 251 7 c 1
 393 149 l 1
 389 171 383 193 376 212 c 0
 362 249 344 280 320 304 c 0
 290 334 248 357 196 370 c 0
 186 373 176 375 165 377 c 1
 23 235 l 1
 27 213 33 191 40 172 c 0
 54 135 72 104 96 80 c 0
399 1 m 1
 401 20 404 61 399 108 c 0
 398 116 397 124 396 131 c 1
 269 4 l 1
 294 1 320 -1 347 -1 c 0
 369 -1 388 0 399 1 c 1
259 130 m 1
 231 101 l 1
 219 113 l 1
 248 141 l 1
 225 164 l 1
 197 135 l 1
 185 147 l 1
 214 175 l 1
 191 198 l 1
 163 169 l 1
 151 181 l 1
 180 209 l 1
 157 232 l 1
 129 203 l 1
 117 215 l 1
 146 243 l 1
 124 266 l 1
 95 237 l 1
 84 249 l 1
 151 316 l 1
 163 305 l 1
 134 276 l 1
 157 254 l 1
 185 283 l 1
 197 271 l 1
 168 243 l 1
 191 220 l 1
 219 249 l 1
 231 237 l 1
 202 209 l 1
 225 186 l 1
 253 215 l 1
 265 203 l 1
 236 175 l 1
 258 152 l 1
 287 181 l 1
 299 169 l 1
 270 141 l 1
 292 118 l 1
 321 147 l 1
 332 135 l 1
 265 68 l 1
 253 79 l 1
 282 108 l 1
 259 130 l 1
EndSplineSet
EndChar

StartChar: ion-ios-americanfootball
Encoding: 261 62412 260
Width: 416
LayerCount: 2
Fore
SplineSet
331 315 m 0
 443 203 412 -12 412 -12 c 1
 412 -12 386 -16 347 -16 c 0
 274 -16 158 -4 85 69 c 0
 -27 181 4 396 4 396 c 1
 4 396 30 400 69 400 c 0
 142 400 258 388 331 315 c 0
20 253 m 1
 23 235 l 1
 165 377 l 1
 147 380 l 1
 20 253 l 1
219 113 m 1
 231 101 l 1
 259 130 l 1
 282 108 l 1
 253 79 l 1
 265 68 l 1
 332 135 l 1
 321 147 l 1
 292 118 l 1
 270 141 l 1
 299 169 l 1
 287 181 l 1
 259 152 l 1
 236 175 l 1
 265 203 l 1
 253 215 l 1
 225 186 l 1
 202 209 l 1
 231 237 l 1
 219 249 l 1
 191 220 l 1
 168 243 l 1
 197 271 l 1
 185 283 l 1
 157 254 l 1
 134 276 l 1
 163 305 l 1
 151 316 l 1
 84 249 l 1
 95 237 l 1
 124 266 l 1
 146 243 l 1
 117 215 l 1
 129 203 l 1
 157 232 l 1
 180 209 l 1
 151 181 l 1
 163 169 l 1
 191 198 l 1
 214 175 l 1
 185 147 l 1
 197 135 l 1
 225 164 l 1
 248 141 l 1
 219 113 l 1
269 4 m 1
 396 131 l 1
 393 149 l 1
 251 7 l 1
 269 4 l 1
EndSplineSet
EndChar

StartChar: ion-ios-analytics-outline
Encoding: 262 62413 261
Width: 448
LayerCount: 2
Fore
SplineSet
224 400 m 0
 196 400 169 395 143 384 c 0
 118 374 96 358 77 339 c 0
 58 320 42 298 32 273 c 0
 21 247 16 220 16 192 c 0
 16 164 21 137 32 111 c 0
 42 86 58 64 77 45 c 0
 96 26 118 10 143 0 c 0
 169 -11 196 -16 224 -16 c 0
 252 -16 279 -11 305 0 c 0
 330 10 352 26 371 45 c 0
 390 64 406 86 416 111 c 0
 427 137 432 164 432 192 c 0
 432 220 427 247 416 273 c 0
 406 298 390 320 371 339 c 0
 352 358 330 374 305 384 c 0
 279 395 252 400 224 400 c 0
224 416 m 1
 224 416 l 1
 348 416 448 316 448 192 c 0
 448 68 348 -32 224 -32 c 0
 100 -32 0 68 0 192 c 0
 0 316 100 416 224 416 c 1
76 128 m 0
 51 128 35 146 34 147 c 0
 31 150 32 156 35 159 c 0
 38 162 43 161 46 158 c 0
 47 157 61 141 82 144 c 0
 94 146 109 170 120 186 c 0
 124 192 129 198 132 202 c 0
 149 223 166 225 177 223 c 0
 201 220 222 195 231 173 c 0
 238 155 249 145 263 144 c 0
 278 143 294 155 306 174 c 0
 307 176 309 178 310 181 c 0
 319 198 334 224 362 224 c 0
 393 224 414 189 415 188 c 0
 417 184 416 179 412 177 c 0
 408 175 403 176 401 180 c 2
 401 180 396 188 389 195 c 0
 383 201 373 208 362 208 c 0
 344 208 333 189 324 173 c 0
 323 170 321 168 320 166 c 0
 305 141 284 126 262 128 c 0
 242 129 226 143 216 167 c 0
 206 191 188 206 175 208 c 0
 164 209 154 204 144 192 c 0
 141 188 138 183 134 177 c 0
 120 157 103 132 84 129 c 0
 81 129 79 128 76 128 c 0
EndSplineSet
EndChar

StartChar: ion-ios-analytics
Encoding: 263 62414 262
Width: 448
LayerCount: 2
Fore
SplineSet
224 416 m 0
 348 416 448 316 448 192 c 0
 448 179 447 167 445 155 c 0
 444 149 443 143 442 138 c 0
 418 40 329 -32 224 -32 c 0
 102 -32 3 66 0 187 c 1
 0 192 l 2
 0 201 1 209 2 218 c 0
 15 329 109 416 224 416 c 0
431 168 m 1
 432 176 432 184 432 192 c 0
 432 220 427 247 416 273 c 0
 406 298 390 320 371 339 c 0
 352 358 330 374 305 384 c 0
 279 395 252 400 224 400 c 0
 196 400 169 395 143 384 c 0
 118 374 96 358 77 339 c 0
 58 320 42 298 32 273 c 0
 21 247 16 220 16 192 c 1
 16 192 l 1
 30 171 45 158 45 158 c 1
 46 158 l 1
 46 157 l 1
 47 156 61 141 82 144 c 0
 94 146 109 170 120 186 c 0
 124 192 129 198 132 202 c 0
 149 223 166 225 177 223 c 0
 201 220 222 196 231 173 c 0
 238 155 249 145 263 144 c 0
 278 143 294 153 306 173 c 0
 307 175 309 177 310 180 c 0
 319 197 334 224 362 224 c 0
 393 224 414 189 415 188 c 0
 418 184 424 176 431 168 c 1
EndSplineSet
EndChar

StartChar: ion-ios-arrow-back
Encoding: 264 62415 263
Width: 192
LayerCount: 2
Fore
SplineSet
192 320 m 1
 65 192 l 1
 192 64 l 1
 160 32 l 1
 0 192 l 1
 0 192 l 1
 0 192 l 1
 160 352 l 1
 192 320 l 1
EndSplineSet
EndChar

StartChar: ion-ios-arrow-down
Encoding: 265 62416 264
Width: 320
LayerCount: 2
Fore
SplineSet
301 288 m 1
 320 267 l 1
 160 96 l 1
 0 267 l 1
 19 288 l 1
 160 138 l 1
 301 288 l 1
EndSplineSet
EndChar

StartChar: ion-ios-arrow-forward
Encoding: 266 62417 265
Width: 192
LayerCount: 2
Fore
SplineSet
0 320 m 1
 32 352 l 1
 192 192 l 1
 192 192 l 1
 192 192 l 1
 32 32 l 1
 0 64 l 1
 127 192 l 1
 0 320 l 1
EndSplineSet
EndChar

StartChar: ion-ios-arrow-left
Encoding: 267 62418 266
Width: 192
LayerCount: 2
Fore
SplineSet
192 333 m 1
 42 192 l 1
 192 51 l 1
 171 32 l 1
 0 192 l 1
 171 352 l 1
 192 333 l 1
EndSplineSet
EndChar

StartChar: ion-ios-arrow-right
Encoding: 268 62419 267
Width: 192
LayerCount: 2
Fore
SplineSet
0 333 m 1
 21 352 l 1
 192 192 l 1
 21 32 l 1
 0 51 l 1
 150 192 l 1
 0 333 l 1
EndSplineSet
EndChar

StartChar: ion-ios-arrow-thin-down
Encoding: 269 62420 268
Width: 192
LayerCount: 2
Fore
SplineSet
190 126 m 0
 192 124 192 122 192 120 c 0
 192 118 192 116 190 114 c 2
 190 114 103 35 102 34 c 0
 101 33 99 32 96 32 c 0
 93 32 91 33 90 34 c 0
 89 35 2 114 2 114 c 2
 -1 117 -1 123 2 126 c 0
 5 129 11 129 14 126 c 2
 88 59 l 1
 88 344 l 2
 88 348 92 352 96 352 c 0
 100 352 104 348 104 344 c 2
 104 59 l 1
 178 126 l 2
 181 129 187 129 190 126 c 0
EndSplineSet
EndChar

StartChar: ion-ios-arrow-thin-left
Encoding: 270 62421 269
Width: 320
LayerCount: 2
Fore
SplineSet
94 98 m 0
 92 96 90 96 88 96 c 0
 86 96 84 96 82 98 c 2
 82 98 3 185 2 186 c 0
 1 187 0 189 0 192 c 0
 0 195 1 197 2 198 c 0
 3 199 82 286 82 286 c 2
 85 289 91 289 94 286 c 0
 97 283 97 277 94 274 c 2
 27 200 l 1
 312 200 l 2
 316 200 320 196 320 192 c 0
 320 188 316 184 312 184 c 2
 27 184 l 1
 94 110 l 2
 97 107 97 101 94 98 c 0
EndSplineSet
EndChar

StartChar: ion-ios-arrow-thin-right
Encoding: 271 62422 270
Width: 320
LayerCount: 2
Fore
SplineSet
226 98 m 0
 223 101 223 107 226 110 c 2
 293 184 l 1
 8 184 l 2
 4 184 0 188 0 192 c 0
 0 196 4 200 8 200 c 2
 293 200 l 1
 226 274 l 2
 223 277 223 283 226 286 c 0
 229 289 235 289 238 286 c 2
 238 286 317 199 318 198 c 0
 319 197 320 195 320 192 c 0
 320 189 319 187 318 186 c 0
 317 185 238 98 238 98 c 2
 236 96 234 96 232 96 c 0
 230 96 228 96 226 98 c 0
EndSplineSet
EndChar

StartChar: ion-ios-arrow-thin-up
Encoding: 272 62423 271
Width: 192
LayerCount: 2
Fore
SplineSet
190 258 m 0
 187 255 181 255 178 258 c 2
 104 325 l 1
 104 40 l 2
 104 36 100 32 96 32 c 0
 92 32 88 36 88 40 c 2
 88 325 l 1
 14 258 l 2
 11 255 5 255 2 258 c 0
 -1 261 -1 267 2 270 c 2
 2 270 89 349 90 350 c 0
 91 351 93 352 96 352 c 0
 99 352 101 351 102 350 c 0
 103 349 190 270 190 270 c 2
 192 268 192 266 192 264 c 0
 192 262 192 260 190 258 c 0
EndSplineSet
EndChar

StartChar: ion-ios-arrow-up
Encoding: 273 62424 272
Width: 320
LayerCount: 2
Fore
SplineSet
301 96 m 1
 160 246 l 1
 19 96 l 1
 0 117 l 1
 160 288 l 1
 320 117 l 1
 301 96 l 1
EndSplineSet
EndChar

StartChar: ion-ios-at-outline
Encoding: 274 62425 273
Width: 255
LayerCount: 2
Fore
SplineSet
236 127 m 1
 236 128 l 1
 255 128 l 1
 252 122 l 2
 249 116 239 103 230 95 c 0
 221 87 212 81 202 75 c 0
 192 69 181 65 170 62 c 0
 159 59 147 57 136 57 c 0
 120 57 103 60 87 65 c 0
 71 70 57 78 44 89 c 0
 32 100 18 118 10 135 c 0
 3 151 0 168 0 193 c 0
 0 211 4 231 11 248 c 0
 18 264 28 278 40 290 c 0
 52 302 67 311 83 318 c 0
 98 324 116 327 136 327 c 0
 152 327 168 324 182 319 c 0
 197 314 210 307 221 297 c 0
 232 287 238 276 245 262 c 0
 251 249 253 236 253 218 c 0
 253 204 251 190 246 178 c 0
 241 166 237 158 229 148 c 0
 221 139 216 133 206 127 c 0
 195 121 186 118 177 118 c 0
 169 118 162 120 157 125 c 0
 154 127 152 131 151 134 c 1
 145 128 140 124 134 122 c 0
 124 119 116 118 108 118 c 0
 100 118 93 119 87 122 c 0
 81 125 75 129 70 134 c 0
 65 139 62 145 59 152 c 0
 56 159 54 166 54 174 c 0
 54 186 57 198 61 210 c 1
 61 212 l 1
 65 223 66 228 74 238 c 0
 82 249 91 257 102 264 c 0
 113 271 126 275 140 275 c 0
 152 275 161 272 171 266 c 0
 178 262 183 256 187 250 c 1
 193 267 l 1
 211 267 l 1
 173 165 l 2
 171 160 169 155 168 151 c 0
 167 147 167 144 167 141 c 0
 167 139 168 137 170 136 c 0
 172 135 174 134 178 134 c 0
 184 134 189 136 198 141 c 0
 206 145 210 150 217 158 c 0
 223 166 227 172 231 183 c 0
 235 194 237 206 237 218 c 0
 237 233 235 243 230 254 c 0
 224 267 220 276 211 284 c 0
 202 292 191 299 178 304 c 0
 165 309 151 311 136 311 c 0
 117 311 101 308 88 302 c 0
 73 296 61 288 51 278 c 0
 40 268 32 255 26 241 c 0
 20 226 16 209 16 193 c 0
 16 171 18 157 24 144 c 0
 30 129 41 113 52 103 c 0
 63 93 76 85 90 80 c 0
 104 75 120 73 136 73 c 0
 146 73 156 74 166 77 c 0
 176 80 184 83 193 88 c 0
 202 93 210 99 217 106 c 0
 224 113 231 119 236 127 c 1
147 154 m 0
 151 159 155 166 158 174 c 2
 179 231 l 1
 177 236 175 241 172 244 c 0
 169 248 166 250 162 252 c 0
 161 252 161 253 160 253 c 0
 157 255 155 256 151 257 c 0
 146 258 142 259 138 259 c 0
 128 259 119 256 110 250 c 0
 101 244 93 237 87 228 c 0
 82 220 80 217 77 208 c 0
 77 207 76 205 76 204 c 0
 72 193 71 184 71 174 c 0
 71 168 72 163 74 158 c 0
 76 153 79 149 82 145 c 0
 85 141 89 139 94 137 c 0
 99 135 103 134 109 134 c 0
 113 134 118 135 123 136 c 0
 127 137 131 138 135 141 c 0
 139 144 143 148 147 154 c 0
EndSplineSet
EndChar

StartChar: ion-ios-at
Encoding: 275 62426 274
Width: 256
LayerCount: 2
Fore
SplineSet
228 128 m 1
 228 128 l 1
 256 128 l 1
 255 127 254 124 253 122 c 0
 249 116 239 103 230 95 c 0
 221 87 212 81 202 75 c 0
 192 69 182 65 170 62 c 0
 159 59 147 57 136 57 c 0
 120 57 103 60 87 65 c 0
 71 70 57 78 44 89 c 0
 32 99 18 117 10 135 c 0
 3 151 0 168 0 193 c 0
 0 212 4 232 11 248 c 0
 18 264 28 278 40 290 c 0
 52 302 68 311 84 318 c 0
 99 324 116 327 136 327 c 0
 152 327 167 324 182 319 c 0
 197 314 210 307 221 297 c 0
 232 287 239 275 246 261 c 0
 252 247 254 235 254 217 c 0
 254 203 252 189 247 177 c 0
 243 166 238 157 230 147 c 0
 223 138 216 131 206 125 c 0
 194 119 185 116 176 116 c 0
 167 116 160 118 154 124 c 0
 152 125 151 127 150 129 c 1
 146 125 141 123 136 121 c 0
 126 118 118 116 109 116 c 0
 101 116 93 118 86 121 c 0
 79 124 74 128 69 133 c 0
 64 138 60 145 57 152 c 0
 54 159 53 166 53 174 c 0
 53 186 55 199 59 211 c 1
 60 212 l 1
 64 222 65 229 73 239 c 0
 81 250 90 259 101 266 c 0
 113 273 125 276 139 276 c 0
 151 276 161 273 172 267 c 0
 177 264 180 261 184 257 c 1
 189 269 l 1
 214 269 l 1
 175 165 l 2
 173 160 172 156 171 152 c 0
 170 149 170 145 170 143 c 0
 170 141 170 140 171 140 c 2
 171 140 172 139 176 139 c 0
 181 139 187 141 195 146 c 0
 202 150 205 154 211 162 c 0
 217 170 220 175 224 185 c 0
 228 195 230 205 230 217 c 0
 230 231 229 241 224 251 c 0
 219 263 214 272 206 279 c 0
 197 287 187 293 175 297 c 0
 163 301 149 304 135 304 c 0
 117 304 103 301 91 296 c 0
 77 290 66 283 56 273 c 0
 46 263 38 251 32 238 c 0
 26 224 23 208 23 193 c 0
 23 172 26 159 31 147 c 0
 37 133 47 117 57 108 c 0
 67 99 79 92 92 87 c 0
 106 82 120 80 135 80 c 0
 145 80 155 82 164 84 c 0
 173 86 182 90 190 95 c 0
 198 100 218 115 228 128 c 1
144 157 m 0
 148 162 151 169 154 176 c 2
 174 231 l 1
 173 235 171 238 169 240 c 0
 166 243 163 246 160 248 c 1
 159 248 l 1
 158 248 l 1
 158 249 l 1
 155 251 153 251 150 252 c 0
 146 253 142 253 138 253 c 0
 129 253 121 251 113 246 c 0
 103 240 96 232 92 225 c 0
 87 217 86 214 83 206 c 0
 83 205 82 204 82 203 c 0
 79 193 76 184 76 175 c 0
 76 170 77 165 79 161 c 0
 81 157 83 153 86 150 c 0
 89 147 93 144 97 142 c 0
 101 140 105 140 110 140 c 0
 114 140 118 140 122 141 c 1
 122 141 l 1
 126 142 129 143 133 146 c 0
 136 148 140 151 144 157 c 0
EndSplineSet
EndChar

StartChar: ion-ios-barcode-outline
Encoding: 276 62427 275
Width: 416
LayerCount: 2
Fore
SplineSet
0 64 m 1
 0 320 l 1
 80 320 l 1
 80 304 l 1
 16 304 l 1
 16 80 l 1
 80 80 l 1
 80 64 l 1
 0 64 l 1
336 320 m 1
 416 320 l 1
 416 64 l 1
 336 64 l 1
 336 80 l 1
 400 80 l 1
 400 304 l 1
 336 304 l 1
 336 320 l 1
64 128 m 1
 64 256 l 1
 80 256 l 1
 80 128 l 1
 64 128 l 1
336 128 m 1
 336 256 l 1
 352 256 l 1
 352 128 l 1
 336 128 l 1
272 96 m 1
 272 288 l 1
 288 288 l 1
 288 96 l 1
 272 96 l 1
128 96 m 1
 128 288 l 1
 144 288 l 1
 144 96 l 1
 128 96 l 1
199 112 m 1
 199 272 l 1
 215 272 l 1
 215 112 l 1
 199 112 l 1
EndSplineSet
EndChar

StartChar: ion-ios-barcode
Encoding: 277 62428 276
Width: 416
LayerCount: 2
Fore
SplineSet
0 320 m 1
 416 320 l 1
 416 64 l 1
 0 64 l 1
 0 320 l 1
80 128 m 1
 80 256 l 1
 64 256 l 1
 64 128 l 1
 80 128 l 1
144 96 m 1
 144 288 l 1
 128 288 l 1
 128 96 l 1
 144 96 l 1
215 112 m 1
 215 272 l 1
 199 272 l 1
 199 112 l 1
 215 112 l 1
288 96 m 1
 288 288 l 1
 272 288 l 1
 272 96 l 1
 288 96 l 1
352 128 m 1
 352 256 l 1
 336 256 l 1
 336 128 l 1
 352 128 l 1
EndSplineSet
EndChar

StartChar: ion-ios-baseball-outline
Encoding: 278 62429 277
Width: 416
LayerCount: 2
Fore
SplineSet
415 169 m 1
 415 168 l 1
 415 168 l 1
 404 71 325 -6 228 -15 c 1
 228 -15 l 1
 226 -15 l 2
 224 -15 223 -16 221 -16 c 2
 220 -16 l 1
 217 -16 l 1
 216 -16 l 1
 208 -16 l 2
 93 -16 0 77 0 192 c 2
 0 200 l 1
 0 201 l 1
 0 204 l 1
 0 205 l 2
 0 207 1 208 1 210 c 2
 1 212 l 1
 1 212 l 1
 10 309 87 388 184 399 c 1
 184 399 l 1
 184 399 l 1
 192 400 200 400 208 400 c 0
 323 400 416 307 416 192 c 0
 416 185 416 178 415 172 c 1
 415 172 l 1
 415 169 l 1
399 192 m 0
 399 297 313 383 208 383 c 0
 205 383 203 382 200 382 c 1
 200 371 202 361 204 351 c 1
 224 357 l 1
 229 342 l 1
 208 335 l 1
 210 328 212 321 215 314 c 0
 217 309 220 303 223 298 c 1
 240 310 l 1
 249 297 l 1
 230 284 l 1
 237 272 246 261 256 251 c 1
 270 266 l 1
 282 254 l 1
 267 239 l 1
 278 229 289 221 301 214 c 1
 313 232 l 1
 327 223 l 1
 315 206 l 1
 320 204 325 201 330 199 c 0
 337 196 344 194 352 192 c 1
 359 212 l 1
 374 207 l 1
 368 188 l 1
 378 186 388 184 398 184 c 1
 398 187 399 189 399 192 c 0
17 192 m 2
 17 87 103 1 208 1 c 2
 212 1 l 1
 211 10 211 18 209 27 c 1
 187 20 l 1
 182 36 l 1
 205 43 l 1
 203 51 200 59 197 67 c 0
 195 72 193 76 191 81 c 1
 171 68 l 1
 162 81 l 1
 183 95 l 1
 176 107 167 119 157 130 c 1
 140 113 l 1
 129 124 l 1
 146 141 l 1
 136 151 124 159 112 166 c 1
 98 145 l 1
 84 154 l 1
 98 174 l 1
 93 176 88 179 83 181 c 0
 76 184 68 187 60 189 c 1
 52 165 l 1
 37 170 l 1
 44 193 l 1
 35 195 26 195 17 196 c 1
 17 192 l 2
228 2 m 1
 316 11 386 80 397 168 c 1
 386 169 374 171 363 173 c 1
 354 146 l 1
 339 151 l 1
 347 176 l 1
 333 180 319 186 306 193 c 1
 291 170 l 1
 278 179 l 1
 292 200 l 1
 279 208 266 217 255 228 c 1
 236 209 l 1
 225 220 l 1
 244 239 l 1
 234 250 225 262 217 275 c 1
 196 261 l 1
 187 274 l 1
 209 289 l 1
 202 302 197 316 193 330 c 1
 168 322 l 1
 163 338 l 1
 189 346 l 1
 187 358 185 369 184 381 c 1
 96 370 27 300 18 212 c 1
 28 211 39 210 49 208 c 1
 57 231 l 1
 72 226 l 1
 65 204 l 1
 79 200 93 195 107 188 c 1
 120 207 l 1
 134 198 l 1
 121 180 l 1
 134 172 146 163 157 152 c 1
 174 169 l 1
 185 158 l 1
 168 141 l 1
 179 129 188 117 196 104 c 1
 215 117 l 1
 224 103 l 1
 204 90 l 1
 211 76 216 62 220 48 c 1
 243 55 l 1
 248 40 l 1
 224 32 l 1
 226 22 227 12 228 2 c 1
EndSplineSet
EndChar

StartChar: ion-ios-baseball
Encoding: 279 62430 278
Width: 416
LayerCount: 2
Fore
SplineSet
208 400 m 0
 323 400 416 307 416 192 c 0
 416 184 416 176 415 168 c 1
 415 168 l 1
 415 168 l 1
 403 64 315 -16 208 -16 c 0
 93 -16 0 77 0 192 c 0
 0 299 80 387 184 399 c 1
 184 399 l 1
 184 399 l 1
 192 400 200 400 208 400 c 0
212 1 m 1
 217 1 223 1 228 2 c 1
 227 12 226 22 224 32 c 1
 248 40 l 1
 243 55 l 1
 220 48 l 1
 216 62 211 76 204 90 c 1
 224 103 l 1
 215 117 l 1
 196 104 l 1
 188 117 179 129 168 141 c 1
 185 158 l 1
 174 169 l 1
 157 152 l 1
 146 163 134 172 121 180 c 1
 134 198 l 1
 120 207 l 1
 107 188 l 1
 93 195 79 200 65 204 c 1
 72 226 l 1
 57 231 l 1
 49 208 l 1
 39 210 28 211 18 212 c 1
 17 207 17 201 17 196 c 1
 26 195 35 195 44 193 c 1
 37 170 l 1
 52 165 l 1
 60 189 l 1
 68 187 76 184 83 181 c 0
 88 179 93 176 98 174 c 1
 84 154 l 1
 98 145 l 1
 112 166 l 1
 124 159 136 151 146 141 c 1
 129 124 l 1
 140 113 l 1
 157 130 l 1
 167 119 176 107 183 95 c 1
 162 81 l 1
 171 68 l 1
 191 81 l 1
 193 76 195 72 197 67 c 0
 200 59 203 51 205 43 c 1
 182 36 l 1
 187 20 l 1
 209 27 l 1
 211 19 211 10 212 1 c 1
363 173 m 1
 374 171 386 169 397 168 c 1
 398 173 398 179 398 184 c 1
 388 185 378 186 368 188 c 1
 374 207 l 1
 359 212 l 1
 352 192 l 1
 344 194 337 196 330 199 c 0
 325 201 320 204 315 206 c 1
 327 223 l 1
 313 232 l 1
 301 214 l 1
 289 221 278 229 267 239 c 1
 282 254 l 1
 270 266 l 1
 255 251 l 1
 245 261 237 272 230 284 c 1
 249 297 l 1
 240 310 l 1
 223 298 l 1
 220 303 217 309 215 314 c 0
 212 321 210 328 208 335 c 1
 229 342 l 1
 224 357 l 1
 204 351 l 1
 202 361 201 371 200 382 c 1
 195 382 189 382 184 381 c 1
 185 369 187 358 189 346 c 1
 163 338 l 1
 168 322 l 1
 193 330 l 1
 197 316 202 302 209 289 c 1
 187 274 l 1
 196 261 l 1
 217 275 l 1
 225 262 234 250 244 239 c 1
 225 220 l 1
 236 209 l 1
 255 228 l 1
 266 217 279 208 292 200 c 1
 278 179 l 1
 291 170 l 1
 306 193 l 1
 319 186 333 180 347 176 c 1
 339 151 l 1
 354 146 l 1
 363 173 l 1
EndSplineSet
EndChar

StartChar: ion-ios-basketball-outline
Encoding: 280 62431 279
Width: 416
LayerCount: 2
Fore
SplineSet
208 400 m 0
 323 400 416 307 416 192 c 0
 416 77 323 -16 208 -16 c 0
 93 -16 0 77 0 192 c 0
 0 307 93 400 208 400 c 0
399 192 m 1
 399 247 375 297 337 332 c 1
 323 298 306 267 285 237 c 1
 300 225 316 216 334 208 c 0
 355 199 377 194 399 192 c 1
 399 192 l 1
325 343 m 0
 293 368 252 383 208 383 c 1
 208 383 l 1
 210 361 214 339 223 318 c 0
 233 293 249 271 268 252 c 0
 270 251 270 249 272 248 c 1
 292 277 310 308 324 341 c 0
 324 342 325 342 325 343 c 0
192 382 m 1
 141 378 96 353 64 317 c 1
 128 289 185 248 233 198 c 1
 244 210 254 222 263 235 c 1
 223 272 196 324 192 382 c 1
233 174 m 1
 218 158 202 144 185 130 c 1
 213 95 230 51 232 3 c 1
 265 7 295 20 320 38 c 1
 298 88 269 133 233 174 c 1
214 178 m 2
 222 186 l 1
 212 196 l 2
 166 242 113 278 54 304 c 1
 36 279 23 249 19 216 c 1
 81 213 135 185 174 142 c 1
 188 153 201 165 214 178 c 2
18 200 m 1
 18 197 17 195 17 192 c 0
 17 147 33 105 60 72 c 1
 96 88 131 108 162 132 c 1
 155 139 l 2
 136 158 114 174 89 184 c 0
 67 193 43 199 18 200 c 1
71 59 m 1
 106 23 154 1 208 1 c 0
 211 1 213 2 216 2 c 1
 215 27 210 50 200 73 c 0
 193 90 183 106 172 120 c 1
 141 96 107 75 71 59 c 1
333 48 m 1
 370 80 394 125 398 176 c 1
 352 179 309 197 275 224 c 1
 265 211 255 198 244 186 c 1
 280 145 311 99 333 48 c 1
EndSplineSet
EndChar

StartChar: ion-ios-basketball
Encoding: 281 62432 280
Width: 416
LayerCount: 2
Fore
SplineSet
208 400 m 0
 323 400 416 307 416 192 c 0
 416 77 323 -16 208 -16 c 0
 93 -16 0 77 0 192 c 0
 0 307 93 400 208 400 c 0
333 48 m 1
 311 99 280 145 244 186 c 1
 255 198 265 211 275 224 c 1
 309 197 352 179 398 176 c 1
 398 181 399 187 399 192 c 1
 377 194 355 199 334 208 c 0
 316 216 300 225 285 237 c 1
 306 267 323 298 337 332 c 1
 333 336 329 340 325 343 c 1
 325 342 324 342 324 341 c 0
 310 308 292 277 272 248 c 1
 270 249 270 250 268 252 c 0
 249 271 233 293 223 318 c 0
 214 339 210 361 208 383 c 1
 203 383 197 382 192 382 c 1
 196 324 223 272 263 235 c 1
 254 222 244 210 233 198 c 1
 185 248 128 289 64 317 c 1
 60 313 57 308 54 304 c 1
 113 278 166 242 212 196 c 2
 222 186 l 1
 214 178 l 2
 201 165 188 153 174 142 c 1
 135 185 81 213 19 216 c 1
 18 211 18 205 18 200 c 1
 43 199 67 193 89 184 c 0
 114 174 136 158 155 139 c 2
 162 132 l 1
 131 108 96 88 60 72 c 1
 64 68 67 63 71 59 c 1
 107 75 141 96 172 120 c 1
 183 106 193 90 200 73 c 0
 210 50 215 27 216 2 c 1
 221 2 227 2 232 3 c 1
 230 51 213 95 185 130 c 1
 202 144 218 158 233 174 c 1
 269 133 298 88 320 38 c 1
 324 41 329 44 333 48 c 1
EndSplineSet
EndChar

StartChar: ion-ios-bell-outline
Encoding: 282 62433 281
Width: 384
LayerCount: 2
Fore
SplineSet
318 222 m 0
 318 108 346 96 384 64 c 1
 0 64 l 1
 38 96 66 108 66 222 c 0
 66 320 119 352 168 360 c 1
 168 362 l 2
 168 374 179 384 192 384 c 0
 205 384 216 374 216 362 c 2
 216 360 l 1
 265 353 318 320 318 222 c 0
43 80 m 1
 341 80 l 1
 316 105 301 138 301 222 c 0
 301 268 288 302 264 323 c 0
 241 342 212 346 192 346 c 0
 172 346 143 342 120 323 c 0
 95 302 83 268 83 222 c 0
 83 171 78 137 66 112 c 0
 60 99 52 89 43 80 c 1
192 0 m 0
 165 0 143 20 140 43 c 1
 244 43 l 1
 241 20 219 0 192 0 c 0
EndSplineSet
EndChar

StartChar: ion-ios-bell
Encoding: 283 62434 282
Width: 384
LayerCount: 2
Fore
SplineSet
318 222 m 0
 318 108 346 96 384 64 c 1
 0 64 l 1
 38 96 66 108 66 222 c 0
 66 320 119 352 168 360 c 1
 168 362 l 2
 168 374 179 384 192 384 c 0
 205 384 216 374 216 362 c 2
 216 360 l 1
 265 353 318 320 318 222 c 0
192 0 m 0
 165 0 143 20 140 43 c 1
 244 43 l 1
 241 20 219 0 192 0 c 0
EndSplineSet
EndChar

StartChar: ion-ios-body-outline
Encoding: 284 62435 283
Width: 384
LayerCount: 2
Fore
SplineSet
192 400 m 0
 174 400 160 386 160 368 c 0
 160 350 174 336 192 336 c 0
 210 336 224 350 224 368 c 0
 224 386 210 400 192 400 c 0
192 416 m 1
 192 416 l 1
 219 416 240 395 240 368 c 0
 240 341 219 320 192 320 c 0
 165 320 144 341 144 368 c 0
 144 395 165 416 192 416 c 1
360 304 m 2
 373 304 384 293 384 280 c 0
 384 267 373 256 360 256 c 2
 260 256 l 2
 255 256 246 251 242 241 c 0
 237 229 240 208 243 190 c 2
 247 169 l 1
 247 168 l 1
 247 168 l 1
 279 -4 l 2
 281 -17 273 -30 260 -32 c 1
 255 -32 l 2
 244 -32 233 -24 231 -12 c 2
 210 108 l 1
 210 108 l 1
 210 108 205 139 193 139 c 2
 191 139 l 2
 179 139 172 108 172 108 c 1
 172 108 l 1
 151 -12 l 2
 149 -24 140 -32 129 -32 c 2
 124 -32 l 1
 111 -30 103 -17 105 -4 c 2
 137 168 l 1
 137 169 l 1
 141 190 l 2
 144 208 147 229 142 241 c 0
 138 251 130 256 124 256 c 2
 24 256 l 2
 11 256 0 267 0 280 c 0
 0 293 11 304 24 304 c 2
 360 304 l 2
24 272 m 2
 20 272 16 276 16 280 c 0
 16 284 20 288 24 288 c 2
 360 288 l 2
 364 288 368 284 368 280 c 0
 368 276 364 272 360 272 c 2
 258 272 l 2
 242 272 232 257 228 248 c 0
 223 235 222 216 227 187 c 1
 227 187 l 1
 227 187 l 1
 230 168 l 1
 231 165 l 1
 263 -7 l 2
 263 -10 263 -12 262 -13 c 0
 261 -14 260 -15 257 -16 c 1
 255 -16 l 2
 251 -16 248 -14 247 -10 c 2
 226 110 l 1
 226 110 l 1
 226 112 224 120 221 129 c 0
 219 135 216 140 213 144 c 0
 206 153 199 155 193 155 c 2
 191 155 l 2
 186 155 178 153 171 144 c 0
 168 140 165 135 163 129 c 0
 159 120 157 112 157 111 c 2
 157 110 l 1
 136 -10 l 2
 135 -14 133 -16 129 -16 c 2
 127 -16 l 2
 124 -16 123 -14 122 -13 c 0
 121 -12 120 -10 121 -7 c 2
 153 165 l 1
 153 165 l 1
 153 166 l 1
 157 187 l 1
 157 187 l 1
 157 187 l 1
 162 216 162 235 157 248 c 0
 153 257 143 272 125 272 c 2
 24 272 l 2
EndSplineSet
EndChar

StartChar: ion-ios-body
Encoding: 285 62436 284
Width: 384
LayerCount: 2
Fore
SplineSet
144 368 m 0
 144 400 160 416 192 416 c 0
 224 416 240 400 240 368 c 0
 240 336 224 320 192 320 c 0
 160 320 144 336 144 368 c 0
360 304 m 2
 367 304 372 302 377 297 c 0
 382 292 384 287 384 280 c 0
 384 273 382 268 377 263 c 0
 372 258 367 256 360 256 c 2
 262 256 l 1
 254 254 247 250 244 242 c 0
 240 233 241 215 245 190 c 2
 249 169 l 1
 249 168 l 1
 249 168 l 1
 279 -4 l 2
 280 -11 279 -17 275 -22 c 0
 271 -27 267 -31 260 -32 c 0
 253 -33 247 -32 242 -28 c 0
 237 -24 233 -19 232 -12 c 2
 211 108 l 1
 211 107 l 1
 209 116 l 2
 208 121 206 127 203 132 c 0
 200 137 197 140 193 140 c 2
 191 140 l 2
 183 140 177 129 173 107 c 1
 173 108 l 1
 152 -12 l 2
 151 -19 147 -24 142 -28 c 0
 137 -32 131 -33 124 -32 c 0
 117 -31 113 -27 109 -22 c 0
 105 -17 104 -11 105 -4 c 2
 135 168 l 1
 135 168 l 1
 135 169 l 1
 139 190 l 2
 143 215 144 233 140 242 c 0
 137 250 130 254 122 256 c 1
 24 256 l 2
 17 256 12 258 7 263 c 0
 2 268 0 273 0 280 c 0
 0 287 2 292 7 297 c 0
 12 302 17 304 24 304 c 2
 360 304 l 2
EndSplineSet
EndChar

StartChar: ion-ios-bolt-outline
Encoding: 286 62437 285
Width: 226
LayerCount: 2
Fore
SplineSet
131 316 m 1
 31 176 l 1
 96 176 l 1
 115 176 l 1
 112 157 l 1
 95 68 l 1
 195 208 l 1
 130 208 l 1
 111 208 l 1
 114 227 l 1
 131 316 l 1
160 384 m 1
 160 384 l 1
 130 224 l 1
 226 224 l 1
 66 0 l 1
 96 160 l 1
 0 160 l 1
 160 384 l 1
EndSplineSet
EndChar

StartChar: ion-ios-bolt
Encoding: 287 62438 286
Width: 226
LayerCount: 2
Fore
SplineSet
160 384 m 1
 160 384 l 1
 130 224 l 1
 226 224 l 1
 66 0 l 1
 96 160 l 1
 0 160 l 1
 160 384 l 1
EndSplineSet
EndChar

StartChar: ion-ios-book-outline
Encoding: 288 62439 287
Width: 384
LayerCount: 2
Fore
SplineSet
284 384 m 0
 339 384 384 358 384 305 c 2
 384 304 l 1
 384 300 l 1
 384 39 l 1
 384 22 l 1
 378 22 l 1
 367 22 l 1
 362 22 l 1
 345 52 318 64 284 64 c 0
 244 64 210 36 202 0 c 1
 182 0 l 1
 174 36 140 64 100 64 c 0
 66 64 35 48 22 22 c 1
 17 22 l 1
 6 22 l 1
 0 22 l 1
 0 31 l 1
 0 295 l 1
 0 304 l 1
 0 305 l 2
 0 358 45 384 100 384 c 0
 141 384 178 370 192 340 c 1
 204 370 243 384 284 384 c 0
184 37 m 1
 184 291 l 1
 184 304 l 1
 184 306 l 1
 183 349 145 368 100 368 c 0
 56 368 19 349 16 307 c 1
 16 306 l 1
 16 306 l 1
 16 44 l 1
 17 44 l 1
 36 70 65 80 100 80 c 0
 135 80 166 63 184 37 c 1
368 300 m 1
 368 314 l 1
 368 315 l 1
 365 357 328 368 284 368 c 0
 238 368 200 348 200 304 c 2
 200 303 l 1
 200 37 l 1
 218 63 249 80 284 80 c 0
 319 80 350 70 368 44 c 1
 368 300 l 1
EndSplineSet
EndChar

StartChar: ion-ios-book
Encoding: 289 62440 288
Width: 384
LayerCount: 2
Fore
SplineSet
100 384 m 0
 135 384 167 374 184 353 c 1
 184 0 l 1
 182 0 l 1
 174 36 140 64 100 64 c 0
 66 64 35 48 22 22 c 1
 17 22 l 1
 6 22 l 1
 0 22 l 1
 0 31 l 1
 0 295 l 1
 0 304 l 1
 0 305 l 2
 0 358 45 384 100 384 c 0
284 384 m 0
 339 384 384 358 384 305 c 2
 384 304 l 1
 384 300 l 1
 384 39 l 1
 384 22 l 1
 378 22 l 1
 367 22 l 1
 362 22 l 1
 345 52 318 64 284 64 c 0
 244 64 210 36 202 0 c 1
 200 0 l 1
 200 353 l 1
 217 374 250 384 284 384 c 0
EndSplineSet
EndChar

StartChar: ion-ios-bookmarks-outline
Encoding: 290 62441 289
Width: 418
LayerCount: 2
Fore
SplineSet
385 384 m 2
 404 384 418 371 418 352 c 2
 418 66 l 2
 418 47 404 32 385 32 c 2
 242 32 l 1
 242 32 217 28 217 13 c 2
 217 0 l 1
 209 0 l 1
 201 0 l 1
 201 13 l 2
 201 28 190 32 176 32 c 2
 33 32 l 2
 14 32 0 47 0 66 c 2
 0 352 l 2
 0 371 14 384 33 384 c 2
 183 384 l 2
 193 384 203 379 209 372 c 1
 209 372 l 1
 209 372 l 1
 215 379 225 384 235 384 c 2
 385 384 l 2
201 37 m 1
 201 346 l 2
 201 355 189 368 176 368 c 2
 33 368 l 2
 24 368 17 361 17 352 c 2
 17 66 l 2
 17 57 24 48 33 48 c 2
 177 48 l 2
 187 48 196 45 201 37 c 1
273 368 m 1
 273 268 l 1
 296 282 l 1
 305 288 l 1
 314 282 l 1
 337 268 l 1
 337 368 l 1
 273 368 l 1
401 66 m 2
 401 352 l 2
 401 361 394 368 385 368 c 2
 353 368 l 1
 353 237 l 1
 305 269 l 1
 257 237 l 1
 257 368 l 1
 242 368 l 2
 229 368 217 355 217 346 c 2
 217 37 l 1
 222 46 231 48 241 48 c 2
 385 48 l 2
 394 48 401 57 401 66 c 2
EndSplineSet
EndChar

StartChar: ion-ios-bookmarks
Encoding: 291 62442 290
Width: 418
LayerCount: 2
Fore
SplineSet
296 283 m 1
 273 268 l 1
 273 384 l 1
 337 384 l 1
 337 268 l 1
 314 283 l 1
 305 289 l 1
 296 283 l 1
385 384 m 2
 404 384 418 371 418 352 c 2
 418 66 l 2
 418 47 404 32 385 32 c 2
 242 32 l 1
 242 32 217 28 217 13 c 2
 217 0 l 1
 209 0 l 1
 201 0 l 1
 201 13 l 2
 201 28 190 32 176 32 c 2
 33 32 l 2
 14 32 0 47 0 66 c 2
 0 352 l 2
 0 371 14 384 33 384 c 2
 183 384 l 1
 183 384 201 376 201 369 c 2
 201 40 l 1
 209 34 l 1
 217 40 l 1
 217 369 l 1
 217 369 227 384 235 384 c 2
 257 384 l 1
 257 238 l 1
 305 270 l 1
 353 238 l 1
 353 384 l 1
 385 384 l 2
EndSplineSet
EndChar

StartChar: ion-ios-box-outline
Encoding: 292 62443 291
Width: 320
LayerCount: 2
Fore
SplineSet
192 208 m 2
 191 208 l 1
 128 208 l 2
 119 208 112 201 112 192 c 0
 112 183 119 176 128 176 c 2
 192 176 l 2
 201 176 208 183 208 192 c 0
 208 201 201 208 192 208 c 2
192 224 m 1
 192 224 l 1
 210 224 224 210 224 192 c 0
 224 174 210 160 192 160 c 2
 128 160 l 2
 110 160 96 174 96 192 c 0
 96 210 110 224 128 224 c 2
 192 224 l 1
320 336 m 1
 320 256 l 1
 304 256 l 1
 304 48 l 1
 16 48 l 1
 16 256 l 1
 0 256 l 1
 0 336 l 1
 320 336 l 1
288 64 m 1
 288 256 l 1
 32 256 l 1
 32 64 l 1
 288 64 l 1
304 272 m 1
 304 320 l 1
 16 320 l 1
 16 272 l 1
 304 272 l 1
EndSplineSet
EndChar

StartChar: ion-ios-box
Encoding: 293 62444 292
Width: 320
LayerCount: 2
Fore
SplineSet
16 48 m 1
 16 240 l 1
 304 240 l 1
 304 48 l 1
 16 48 l 1
128 208 m 2
 119 208 112 201 112 192 c 0
 112 183 119 176 128 176 c 2
 192 176 l 2
 201 176 208 183 208 192 c 0
 208 201 201 208 192 208 c 2
 128 208 l 2
0 336 m 1
 320 336 l 1
 320 256 l 1
 304 256 l 1
 16 256 l 1
 0 256 l 1
 0 336 l 1
EndSplineSet
EndChar

StartChar: ion-ios-briefcase-outline
Encoding: 294 62445 293
Width: 416
LayerCount: 2
Fore
SplineSet
368 320 m 1
 416 320 l 1
 416 0 l 1
 0 0 l 1
 0 320 l 1
 48 320 l 1
 48 336 l 1
 80 336 l 1
 80 320 l 1
 128 320 l 1
 128 350 l 1
 128 352 l 2
 128 370 138 384 157 384 c 2
 256 384 l 2
 275 384 288 370 288 352 c 2
 288 350 l 1
 288 320 l 1
 336 320 l 1
 336 336 l 1
 368 336 l 1
 368 320 l 1
144 320 m 1
 144 320 l 1
 272 320 l 1
 272 320 l 1
 272 350 l 2
 272 360 265 368 255 368 c 2
 158 368 l 2
 147 368 144 360 144 350 c 2
 144 320 l 1
400 16 m 1
 400 240 l 1
 16 240 l 1
 16 16 l 1
 400 16 l 1
400 256 m 1
 400 304 l 1
 368 304 l 1
 368 288 l 1
 336 288 l 1
 336 304 l 1
 80 304 l 1
 80 288 l 1
 48 288 l 1
 48 304 l 1
 16 304 l 1
 16 256 l 1
 400 256 l 1
EndSplineSet
EndChar

StartChar: ion-ios-briefcase
Encoding: 295 62446 294
Width: 416
LayerCount: 2
Fore
SplineSet
48 320 m 1
 48 336 l 1
 80 336 l 1
 80 320 l 1
 48 320 l 1
0 0 m 1
 0 240 l 1
 416 240 l 1
 416 0 l 1
 0 0 l 1
336 320 m 1
 336 336 l 1
 368 336 l 1
 368 320 l 1
 336 320 l 1
368 320 m 1
 416 320 l 1
 416 256 l 1
 0 256 l 1
 0 320 l 1
 48 320 l 1
 48 288 l 1
 80 288 l 1
 80 320 l 1
 128 320 l 1
 128 350 l 1
 128 352 l 2
 128 370 138 384 157 384 c 2
 256 384 l 2
 275 384 288 370 288 352 c 2
 288 350 l 1
 288 320 l 1
 336 320 l 1
 336 288 l 1
 368 288 l 1
 368 320 l 1
272 320 m 1
 272 350 l 2
 272 360 265 368 255 368 c 2
 158 368 l 2
 147 368 144 360 144 350 c 2
 144 320 l 1
 144 320 l 1
 272 320 l 1
 272 320 l 1
EndSplineSet
EndChar

StartChar: ion-ios-browsers-outline
Encoding: 296 62447 295
Width: 384
LayerCount: 2
Fore
SplineSet
0 304 m 1
 304 304 l 1
 304 0 l 1
 0 0 l 1
 0 304 l 1
288 16 m 1
 288 288 l 1
 16 288 l 1
 16 16 l 1
 288 16 l 1
384 384 m 1
 384 80 l 1
 320 80 l 1
 320 96 l 1
 368 96 l 1
 368 368 l 1
 96 368 l 1
 96 320 l 1
 80 320 l 1
 80 384 l 1
 384 384 l 1
EndSplineSet
EndChar

StartChar: ion-ios-browsers
Encoding: 297 62448 296
Width: 384
LayerCount: 2
Fore
SplineSet
0 304 m 1
 304 304 l 1
 304 0 l 1
 0 0 l 1
 0 304 l 1
80 384 m 1
 384 384 l 1
 384 80 l 1
 320 80 l 1
 320 320 l 1
 80 320 l 1
 80 384 l 1
EndSplineSet
EndChar

StartChar: ion-ios-calculator-outline
Encoding: 298 62449 297
Width: 288
LayerCount: 2
Fore
SplineSet
32 288 m 1
 32 352 l 1
 256 352 l 1
 256 288 l 1
 32 288 l 1
48 336 m 1
 48 304 l 1
 240 304 l 1
 240 336 l 1
 48 336 l 1
256 384 m 2
 274 384 288 370 288 352 c 2
 288 32 l 2
 288 14 274 0 256 0 c 2
 32 0 l 2
 14 0 0 14 0 32 c 2
 0 352 l 2
 0 370 14 384 32 384 c 2
 256 384 l 2
272 32 m 2
 272 352 l 2
 272 361 265 368 256 368 c 2
 32 368 l 2
 23 368 16 361 16 352 c 2
 16 32 l 2
 16 23 23 16 32 16 c 2
 256 16 l 2
 265 16 272 23 272 32 c 2
48 208 m 1
 80 208 l 1
 96 208 l 1
 96 192 l 1
 32 192 l 1
 32 256 l 1
 48 256 l 1
 48 240 l 1
 48 208 l 1
48 128 m 1
 80 128 l 1
 96 128 l 1
 96 112 l 1
 32 112 l 1
 32 176 l 1
 48 176 l 1
 48 160 l 1
 48 128 l 1
48 48 m 1
 80 48 l 1
 96 48 l 1
 96 32 l 1
 32 32 l 1
 32 96 l 1
 48 96 l 1
 48 80 l 1
 48 48 l 1
128 208 m 1
 160 208 l 1
 176 208 l 1
 176 192 l 1
 112 192 l 1
 112 256 l 1
 128 256 l 1
 128 240 l 1
 128 208 l 1
208 208 m 1
 240 208 l 1
 256 208 l 1
 256 192 l 1
 192 192 l 1
 192 256 l 1
 208 256 l 1
 208 240 l 1
 208 208 l 1
128 128 m 1
 160 128 l 1
 176 128 l 1
 176 112 l 1
 112 112 l 1
 112 176 l 1
 128 176 l 1
 128 160 l 1
 128 128 l 1
128 48 m 1
 160 48 l 1
 176 48 l 1
 176 32 l 1
 112 32 l 1
 112 96 l 1
 128 96 l 1
 128 80 l 1
 128 48 l 1
208 48 m 1
 240 48 l 1
 256 48 l 1
 256 32 l 1
 192 32 l 1
 192 176 l 1
 208 176 l 1
 208 80 l 1
 208 48 l 1
EndSplineSet
EndChar

StartChar: ion-ios-calculator
Encoding: 299 62450 298
Width: 288
LayerCount: 2
Fore
SplineSet
256 384 m 2
 274 384 288 370 288 352 c 2
 288 32 l 2
 288 14 274 0 256 0 c 2
 32 0 l 2
 14 0 0 14 0 32 c 2
 0 352 l 2
 0 370 14 384 32 384 c 2
 256 384 l 2
248 168 m 1
 200 168 l 1
 200 40 l 1
 248 40 l 1
 248 168 l 1
248 248 m 1
 200 248 l 1
 200 200 l 1
 248 200 l 1
 248 248 l 1
168 88 m 1
 120 88 l 1
 120 40 l 1
 168 40 l 1
 168 88 l 1
168 168 m 1
 120 168 l 1
 120 120 l 1
 168 120 l 1
 168 168 l 1
168 248 m 1
 120 248 l 1
 120 200 l 1
 168 200 l 1
 168 248 l 1
88 88 m 1
 40 88 l 1
 40 40 l 1
 88 40 l 1
 88 88 l 1
88 168 m 1
 40 168 l 1
 40 120 l 1
 88 120 l 1
 88 168 l 1
88 248 m 1
 40 248 l 1
 40 200 l 1
 88 200 l 1
 88 248 l 1
40 296 m 1
 248 296 l 1
 248 344 l 1
 40 344 l 1
 40 296 l 1
EndSplineSet
EndChar

StartChar: ion-ios-calendar-outline
Encoding: 300 62451 299
Width: 384
LayerCount: 2
Fore
SplineSet
16 336 m 1
 16 272 l 1
 368 272 l 1
 368 336 l 1
 16 336 l 1
288 352 m 1
 384 352 l 1
 384 0 l 1
 0 0 l 1
 0 352 l 1
 96 352 l 1
 96 384 l 1
 112 384 l 1
 112 352 l 1
 272 352 l 1
 272 384 l 1
 288 384 l 1
 288 352 l 1
368 16 m 1
 368 256 l 1
 16 256 l 1
 16 16 l 1
 368 16 l 1
368 272 m 1
 368 336 l 1
 288 336 l 1
 288 304 l 1
 272 304 l 1
 272 336 l 1
 112 336 l 1
 112 304 l 1
 96 304 l 1
 96 336 l 1
 16 336 l 1
 16 272 l 1
 368 272 l 1
EndSplineSet
EndChar

StartChar: ion-ios-calendar
Encoding: 301 62452 300
Width: 384
LayerCount: 2
Fore
SplineSet
0 0 m 1
 0 256 l 1
 384 256 l 1
 384 0 l 1
 0 0 l 1
384 352 m 1
 384 272 l 1
 0 272 l 1
 0 352 l 1
 96 352 l 1
 96 304 l 1
 112 304 l 1
 112 352 l 1
 272 352 l 1
 272 304 l 1
 288 304 l 1
 288 352 l 1
 384 352 l 1
96 352 m 1
 96 384 l 1
 112 384 l 1
 112 352 l 1
 96 352 l 1
272 352 m 1
 272 384 l 1
 288 384 l 1
 288 352 l 1
 272 352 l 1
EndSplineSet
EndChar

StartChar: ion-ios-camera-outline
Encoding: 302 62453 301
Width: 384
LayerCount: 2
Fore
SplineSet
354 288 m 2
 372 288 384 275 384 257 c 2
 384 81 l 2
 384 63 372 48 354 48 c 2
 34 48 l 2
 16 48 0 63 0 81 c 2
 0 257 l 2
 0 275 16 288 34 288 c 2
 47 288 l 1
 47 304 l 1
 81 304 l 1
 81 288 l 1
 94 288 l 1
 126 324 137 336 149 336 c 2
 237 336 l 2
 249 336 260 324 292 288 c 1
 354 288 l 2
368 81 m 2
 368 257 l 2
 368 266 363 272 354 272 c 2
 292 272 l 1
 285 272 l 1
 280 275 l 1
 277 279 273 283 270 286 c 0
 258 299 250 310 244 316 c 0
 239 321 237 320 237 320 c 1
 149 320 l 1
 149 320 147 320 142 316 c 0
 136 311 128 302 117 289 c 0
 114 285 110 279 106 275 c 1
 101 272 l 1
 94 272 l 1
 34 272 l 2
 25 272 16 265 16 257 c 2
 16 81 l 2
 16 72 25 64 34 64 c 2
 354 64 l 2
 362 64 368 72 368 81 c 2
192 258 m 0
 239 258 278 220 278 173 c 0
 278 126 239 88 192 88 c 0
 145 88 106 126 106 173 c 0
 106 220 145 258 192 258 c 0
192 104 m 0
 230 104 262 135 262 173 c 0
 262 211 230 242 192 242 c 0
 154 242 122 211 122 173 c 0
 122 135 154 104 192 104 c 0
288 239 m 1
 288 256 l 1
 305 256 l 1
 305 239 l 1
 288 239 l 1
160 173 m 0
 160 194 171 205 192 205 c 0
 213 205 224 194 224 173 c 0
 224 152 213 141 192 141 c 0
 171 141 160 152 160 173 c 0
EndSplineSet
EndChar

StartChar: ion-ios-camera
Encoding: 303 62454 302
Width: 384
LayerCount: 2
Fore
SplineSet
354 288 m 2
 372 288 384 275 384 257 c 2
 384 81 l 2
 384 63 372 48 354 48 c 2
 34 48 l 2
 16 48 0 63 0 81 c 2
 0 257 l 2
 0 275 16 288 34 288 c 2
 47 288 l 1
 47 304 l 1
 81 304 l 1
 81 288 l 1
 94 288 l 1
 126 324 137 336 149 336 c 2
 237 336 l 2
 249 336 260 324 292 288 c 1
 354 288 l 2
192 88 m 0
 239 88 278 126 278 173 c 0
 278 220 239 258 192 258 c 0
 145 258 106 220 106 173 c 0
 106 126 145 88 192 88 c 0
305 239 m 1
 305 256 l 1
 288 256 l 1
 288 239 l 1
 305 239 l 1
192 242 m 0
 230 242 262 211 262 173 c 0
 262 135 230 104 192 104 c 0
 154 104 122 135 122 173 c 0
 122 211 154 242 192 242 c 0
192 141 m 0
 210 141 224 155 224 173 c 0
 224 191 210 205 192 205 c 0
 174 205 160 191 160 173 c 0
 160 155 174 141 192 141 c 0
EndSplineSet
EndChar

StartChar: ion-ios-cart-outline
Encoding: 304 62455 303
Width: 384
LayerCount: 2
Fore
SplineSet
96 48 m 0
 109 48 120 37 120 24 c 0
 120 11 109 0 96 0 c 0
 83 0 72 11 72 24 c 0
 72 37 83 48 96 48 c 0
96 16 m 0
 100 16 104 20 104 24 c 0
 104 28 100 32 96 32 c 0
 92 32 88 28 88 24 c 0
 88 20 92 16 96 16 c 0
320 48 m 0
 333 48 344 37 344 24 c 0
 344 11 333 0 320 0 c 0
 307 0 296 11 296 24 c 0
 296 37 307 48 320 48 c 0
320 16 m 0
 324 16 328 20 328 24 c 0
 328 28 324 32 320 32 c 0
 316 32 312 28 312 24 c 0
 312 20 316 16 320 16 c 0
384 320 m 1
 368 192 l 1
 97 144 l 1
 102 114 l 1
 109 80 123 80 128 80 c 2
 368 80 l 1
 368 64 l 1
 128 64 l 2
 117 64 107 69 100 78 c 0
 94 86 89 97 87 111 c 2
 44 345 l 1
 44 345 l 1
 42 353 41 357 37 361 c 0
 31 366 19 368 0 368 c 1
 0 384 l 1
 23 384 38 380 47 373 c 0
 54 367 57 359 59 352 c 1
 384 320 l 1
355 206 m 1
 366 305 l 1
 62 336 l 1
 94 160 l 1
 355 206 l 1
EndSplineSet
EndChar

StartChar: ion-ios-cart
Encoding: 305 62456 304
Width: 384
LayerCount: 2
Fore
SplineSet
96 48 m 0
 109 48 120 37 120 24 c 0
 120 11 109 0 96 0 c 0
 83 0 72 11 72 24 c 0
 72 37 83 48 96 48 c 0
320 48 m 0
 333 48 344 37 344 24 c 0
 344 11 333 0 320 0 c 0
 307 0 296 11 296 24 c 0
 296 37 307 48 320 48 c 0
384 320 m 1
 368 192 l 1
 97 144 l 1
 102 114 l 1
 109 80 123 80 128 80 c 2
 368 80 l 1
 368 64 l 1
 128 64 l 2
 117 64 107 69 100 78 c 0
 94 86 89 97 87 111 c 2
 44 345 l 1
 44 345 l 1
 42 353 41 357 37 361 c 0
 31 366 19 368 0 368 c 1
 0 384 l 1
 23 384 38 380 47 373 c 0
 54 367 57 359 59 352 c 1
 384 320 l 1
EndSplineSet
EndChar

StartChar: ion-ios-chatboxes-outline
Encoding: 306 62457 305
Width: 416
LayerCount: 2
Fore
SplineSet
16 384 m 1
 16 192 l 1
 112 192 l 1
 112 176 l 1
 0 176 l 1
 0 400 l 1
 288 400 l 1
 288 288 l 1
 272 288 l 1
 272 384 l 1
 16 384 l 1
128 272 m 1
 416 272 l 1
 416 48 l 1
 368 48 l 1
 368 -16 l 1
 355 -16 l 1
 291 48 l 1
 128 48 l 1
 128 272 l 1
400 64 m 1
 400 256 l 1
 144 256 l 1
 144 64 l 1
 297 64 l 1
 352 9 l 1
 352 64 l 1
 400 64 l 1
EndSplineSet
EndChar

StartChar: ion-ios-chatboxes
Encoding: 307 62458 306
Width: 416
LayerCount: 2
Fore
SplineSet
288 400 m 1
 288 288 l 1
 112 288 l 1
 112 176 l 1
 0 176 l 1
 0 400 l 1
 288 400 l 1
128 272 m 1
 416 272 l 1
 416 48 l 1
 368 48 l 1
 368 -16 l 1
 355 -16 l 1
 291 48 l 1
 128 48 l 1
 128 272 l 1
EndSplineSet
EndChar

StartChar: ion-ios-chatbubble-outline
Encoding: 308 62459 307
Width: 384
LayerCount: 2
Fore
SplineSet
192 336 m 0
 95 336 16 274 16 198 c 0
 16 172 26 147 43 125 c 0
 43 124 43 123 44 122 c 0
 45 121 46 121 46 120 c 0
 50 114 52 107 52 100 c 0
 52 97 53 97 39 53 c 1
 78 70 l 1
 78 70 l 1
 80 71 88 74 89 74 c 2
 90 74 l 1
 90 74 l 1
 95 76 100 77 106 77 c 0
 111 77 115 76 120 75 c 1
 121 74 l 1
 123 74 l 1
 142 68 164 64 193 64 c 0
 241 64 285 79 318 104 c 0
 350 129 368 162 368 198 c 0
 368 274 289 336 192 336 c 0
192 352 m 1
 192 352 l 1
 298 352 384 283 384 198 c 0
 384 113 299 48 193 48 c 0
 166 48 141 51 118 59 c 1
 116 59 l 1
 116 59 l 1
 113 60 110 61 106 61 c 0
 102 61 97 60 94 59 c 1
 95 59 l 1
 94 59 l 2
 93 59 85 55 84 55 c 2
 34 33 l 1
 32 32 l 1
 29 32 l 1
 26 32 l 1
 20 33 18 38 19 42 c 1
 19 42 l 1
 19 42 36 99 36 100 c 0
 36 104 35 108 33 111 c 1
 33 111 l 1
 33 111 l 1
 33 111 l 1
 34 110 l 1
 30 114 l 1
 11 138 0 167 0 198 c 0
 0 283 86 352 192 352 c 1
EndSplineSet
EndChar

StartChar: ion-ios-chatbubble
Encoding: 309 62460 308
Width: 384
LayerCount: 2
Fore
SplineSet
192 352 m 1
 192 352 l 1
 298 352 384 283 384 198 c 0
 384 113 299 48 193 48 c 0
 166 48 141 51 118 59 c 1
 116 59 l 1
 116 59 l 1
 113 60 110 61 106 61 c 0
 102 61 97 60 94 59 c 1
 95 59 l 1
 94 59 l 2
 93 59 85 55 84 55 c 2
 34 33 l 1
 32 32 l 1
 29 32 l 1
 26 32 l 1
 20 33 18 38 19 42 c 1
 19 42 l 1
 19 42 36 99 36 100 c 0
 36 104 35 108 33 111 c 1
 33 111 l 1
 33 111 l 1
 33 111 l 1
 34 110 l 1
 30 114 l 1
 11 138 0 167 0 198 c 0
 0 283 86 352 192 352 c 1
EndSplineSet
EndChar

StartChar: ion-ios-checkmark-empty
Encoding: 310 62461 309
Width: 207
LayerCount: 2
Fore
SplineSet
74 118 m 2
 72 116 68 114 65 114 c 0
 62 114 58 116 56 118 c 2
 0 174 l 1
 18 192 l 1
 65 145 l 1
 190 271 l 1
 207 253 l 1
 74 118 l 2
EndSplineSet
EndChar

StartChar: ion-ios-checkmark-outline
Encoding: 311 62462 310
Width: 416
LayerCount: 2
Fore
SplineSet
292 271 m 1
 310 253 l 1
 176 118 l 2
 174 116 170 114 167 114 c 0
 164 114 160 116 158 118 c 2
 102 174 l 1
 120 192 l 1
 167 145 l 1
 292 271 l 1
208 400 m 0
 323 400 416 307 416 192 c 0
 416 77 323 -16 208 -16 c 0
 93 -16 0 77 0 192 c 0
 0 307 93 400 208 400 c 0
208 1 m 0
 313 1 399 87 399 192 c 0
 399 297 313 383 208 383 c 0
 103 383 17 297 17 192 c 0
 17 87 103 1 208 1 c 0
EndSplineSet
EndChar

StartChar: ion-ios-checkmark
Encoding: 312 62463 311
Width: 416
LayerCount: 2
Fore
SplineSet
208 400 m 0
 323 400 416 307 416 192 c 0
 416 77 323 -16 208 -16 c 0
 93 -16 0 77 0 192 c 0
 0 307 93 400 208 400 c 0
176 118 m 2
 310 253 l 1
 292 271 l 1
 167 145 l 1
 120 192 l 1
 102 174 l 1
 158 118 l 2
 160 116 164 114 167 114 c 0
 170 114 174 116 176 118 c 2
EndSplineSet
EndChar

StartChar: ion-ios-circle-filled
Encoding: 313 62464 312
Width: 416
LayerCount: 2
Fore
SplineSet
208 400 m 0
 323 400 416 307 416 192 c 0
 416 77 323 -16 208 -16 c 0
 93 -16 0 77 0 192 c 0
 0 307 93 400 208 400 c 0
208 1 m 0
 313 1 399 87 399 192 c 0
 399 297 313 383 208 383 c 0
 103 383 17 297 17 192 c 0
 17 87 103 1 208 1 c 0
208 352 m 0
 296 352 368 280 368 192 c 0
 368 104 296 32 208 32 c 0
 120 32 48 104 48 192 c 0
 48 280 120 352 208 352 c 0
EndSplineSet
EndChar

StartChar: ion-ios-circle-outline
Encoding: 314 62465 313
Width: 416
LayerCount: 2
Fore
SplineSet
208 400 m 0
 323 400 416 307 416 192 c 0
 416 77 323 -16 208 -16 c 0
 93 -16 0 77 0 192 c 0
 0 307 93 400 208 400 c 0
208 1 m 0
 313 1 399 87 399 192 c 0
 399 297 313 383 208 383 c 0
 103 383 17 297 17 192 c 0
 17 87 103 1 208 1 c 0
EndSplineSet
EndChar

StartChar: ion-ios-clock-outline
Encoding: 315 62466 314
Width: 416
LayerCount: 2
Fore
SplineSet
208 400 m 0
 323 400 416 307 416 192 c 0
 416 77 323 -16 208 -16 c 0
 93 -16 0 77 0 192 c 0
 0 307 93 400 208 400 c 0
208 1 m 0
 313 1 399 87 399 192 c 0
 399 297 313 383 208 383 c 0
 103 383 17 297 17 192 c 0
 17 87 103 1 208 1 c 0
208 192 m 1
 208 320 l 1
 225 320 l 1
 225 175 l 1
 112 175 l 1
 112 192 l 1
 208 192 l 1
EndSplineSet
EndChar

StartChar: ion-ios-clock
Encoding: 316 62467 315
Width: 416
LayerCount: 2
Fore
SplineSet
208 400 m 0
 323 400 416 307 416 192 c 0
 416 77 323 -16 208 -16 c 0
 93 -16 0 77 0 192 c 0
 0 307 93 400 208 400 c 0
225 175 m 1
 225 320 l 1
 208 320 l 1
 208 192 l 1
 112 192 l 1
 112 175 l 1
 225 175 l 1
EndSplineSet
EndChar

StartChar: ion-ios-close-empty
Encoding: 317 62468 316
Width: 192
LayerCount: 2
Fore
SplineSet
180 288 m 1
 192 276 l 1
 108 192 l 1
 192 108 l 1
 180 96 l 1
 96 180 l 1
 12 96 l 1
 0 108 l 1
 84 192 l 1
 0 276 l 1
 12 288 l 1
 96 204 l 1
 180 288 l 1
EndSplineSet
EndChar

StartChar: ion-ios-close-outline
Encoding: 318 62469 317
Width: 416
LayerCount: 2
Fore
SplineSet
355 339 m 0
 436 258 436 126 355 45 c 0
 274 -36 142 -36 61 45 c 0
 -20 126 -20 258 61 339 c 0
 142 420 274 420 355 339 c 0
343 57 m 0
 417 131 417 253 343 327 c 0
 269 401 147 401 73 327 c 0
 -1 253 -1 131 73 57 c 0
 147 -17 269 -17 343 57 c 0
292 288 m 1
 304 276 l 1
 220 192 l 1
 304 108 l 1
 292 96 l 1
 208 180 l 1
 124 96 l 1
 112 108 l 1
 196 192 l 1
 112 276 l 1
 124 288 l 1
 208 204 l 1
 292 288 l 1
EndSplineSet
EndChar

StartChar: ion-ios-close
Encoding: 319 62470 318
Width: 416
LayerCount: 2
Fore
SplineSet
355 339 m 0
 436 258 436 126 355 45 c 0
 274 -36 142 -36 61 45 c 0
 -20 126 -20 258 61 339 c 0
 142 420 274 420 355 339 c 0
304 108 m 1
 220 192 l 1
 304 276 l 1
 292 288 l 1
 208 204 l 1
 124 288 l 1
 112 276 l 1
 196 192 l 1
 112 108 l 1
 124 96 l 1
 208 180 l 1
 292 96 l 1
 304 108 l 1
EndSplineSet
EndChar

